<?xml version="1.0" encoding="UTF-8"?>
<svg width="14px" height="16px" viewBox="0 0 14 16" version="1.1" xmlns="http://www.w3.org/2000/svg" xmlns:xlink="http://www.w3.org/1999/xlink">
    <!-- Generator: Sketch 60.1 (88133) - https://sketch.com -->
    <title>notificacao</title>
    <desc>Created with Sketch.</desc>
    <g id="Page-3" stroke="none" stroke-width="1" fill="none" fill-rule="evenodd">
        <g id="Menu" transform="translate(-69.000000, -184.000000)" fill="#FFFFFF" fill-rule="nonzero">
            <g id="Search" transform="translate(56.000000, 172.000000)">
                <g id="Group-7">
                    <g id="Group-3">
                        <path d="M26.7308965,23.3215625 C26.1271502,22.6728125 24.9974696,21.696875 24.9974696,18.5 C24.9974696,16.071875 23.2949799,14.128125 20.9993689,13.65125 L20.9993689,13 C20.9993689,12.4478125 20.5518716,12 20,12 C19.4481284,12 19.0006311,12.4478125 19.0006311,13 L19.0006311,13.65125 C16.7050201,14.128125 15.0025304,16.071875 15.0025304,18.5 C15.0025304,21.696875 13.8728498,22.6728125 13.2691035,23.3215625 C13.0816046,23.523125 12.9984801,23.7640625 13.000021,24 C13.0034801,24.5125 13.4056652,25 14.0031615,25 L25.9968385,25 C26.5943348,25 26.9968324,24.5125 26.999979,24 C27.0015199,23.7640625 26.9183954,23.5228125 26.7308965,23.3215625 L26.7308965,23.3215625 Z M15.1103423,23.5 C15.7734632,22.6259375 16.4984588,21.1771875 16.5018963,18.518125 C16.5018963,18.511875 16.5000213,18.50625 16.5000213,18.5 C16.5000213,16.566875 18.0668868,15 20,15 C21.9331132,15 23.4999787,16.566875 23.4999787,18.5 C23.4999787,18.50625 23.4981037,18.511875 23.4981037,18.518125 C23.5015412,21.1775 24.2265368,22.62625 24.8896577,23.5 L15.1103423,23.5 Z M20,28 C21.1037433,28 21.9990503,27.1046875 21.9990503,26 L18.0009497,26 C18.0009497,27.1046875 18.8962567,28 20,28 Z" id="notificacao"></path>
                    </g>
                </g>
            </g>
        </g>
    </g>
</svg>