<?xml version="1.0" encoding="UTF-8"?>
<svg width="13px" height="14px" viewBox="0 0 13 14" version="1.1" xmlns="http://www.w3.org/2000/svg" xmlns:xlink="http://www.w3.org/1999/xlink">
    <!-- Generator: Sketch 61 (89581) - https://sketch.com -->
    <title>calendar</title>
    <desc>Created with Sketch.</desc>
    <g id="Page-1" stroke="none" stroke-width="1" fill="none" fill-rule="evenodd">
        <g id="Desafio" transform="translate(-204.000000, -353.000000)" fill="#B294FF" fill-rule="nonzero">
            <g id="Mask-3">
                <g id="Group-2" transform="translate(24.000000, 297.000000)">
                    <g id="Group-3">
                        <g id="Group-9" transform="translate(112.000000, 56.000000)">
                            <g id="Group-Copy" transform="translate(60.428571, 0.000000)">
                                <g id="Group-5" transform="translate(7.714286, 0.000000)">
                                    <path d="M3.96428571,7.875 L2.89285714,7.875 C2.71607143,7.875 2.57142857,7.72734375 2.57142857,7.546875 L2.57142857,6.453125 C2.57142857,6.27265625 2.71607143,6.125 2.89285714,6.125 L3.96428571,6.125 C4.14107143,6.125 4.28571429,6.27265625 4.28571429,6.453125 L4.28571429,7.546875 C4.28571429,7.72734375 4.14107143,7.875 3.96428571,7.875 Z M6.85714286,7.546875 L6.85714286,6.453125 C6.85714286,6.27265625 6.7125,6.125 6.53571429,6.125 L5.46428571,6.125 C5.2875,6.125 5.14285714,6.27265625 5.14285714,6.453125 L5.14285714,7.546875 C5.14285714,7.72734375 5.2875,7.875 5.46428571,7.875 L6.53571429,7.875 C6.7125,7.875 6.85714286,7.72734375 6.85714286,7.546875 Z M9.42857143,7.546875 L9.42857143,6.453125 C9.42857143,6.27265625 9.28392857,6.125 9.10714286,6.125 L8.03571429,6.125 C7.85892857,6.125 7.71428571,6.27265625 7.71428571,6.453125 L7.71428571,7.546875 C7.71428571,7.72734375 7.85892857,7.875 8.03571429,7.875 L9.10714286,7.875 C9.28392857,7.875 9.42857143,7.72734375 9.42857143,7.546875 Z M6.85714286,10.171875 L6.85714286,9.078125 C6.85714286,8.89765625 6.7125,8.75 6.53571429,8.75 L5.46428571,8.75 C5.2875,8.75 5.14285714,8.89765625 5.14285714,9.078125 L5.14285714,10.171875 C5.14285714,10.3523438 5.2875,10.5 5.46428571,10.5 L6.53571429,10.5 C6.7125,10.5 6.85714286,10.3523438 6.85714286,10.171875 Z M4.28571429,10.171875 L4.28571429,9.078125 C4.28571429,8.89765625 4.14107143,8.75 3.96428571,8.75 L2.89285714,8.75 C2.71607143,8.75 2.57142857,8.89765625 2.57142857,9.078125 L2.57142857,10.171875 C2.57142857,10.3523438 2.71607143,10.5 2.89285714,10.5 L3.96428571,10.5 C4.14107143,10.5 4.28571429,10.3523438 4.28571429,10.171875 Z M9.42857143,10.171875 L9.42857143,9.078125 C9.42857143,8.89765625 9.28392857,8.75 9.10714286,8.75 L8.03571429,8.75 C7.85892857,8.75 7.71428571,8.89765625 7.71428571,9.078125 L7.71428571,10.171875 C7.71428571,10.3523438 7.85892857,10.5 8.03571429,10.5 L9.10714286,10.5 C9.28392857,10.5 9.42857143,10.3523438 9.42857143,10.171875 Z M12,3.0625 L12,12.6875 C12,13.4121094 11.4241071,14 10.7142857,14 L1.28571429,14 C0.575892857,14 0,13.4121094 0,12.6875 L0,3.0625 C0,2.33789062 0.575892857,1.75 1.28571429,1.75 L2.57142857,1.75 L2.57142857,0.328125 C2.57142857,0.14765625 2.71607143,0 2.89285714,0 L3.96428571,0 C4.14107143,0 4.28571429,0.14765625 4.28571429,0.328125 L4.28571429,1.75 L7.71428571,1.75 L7.71428571,0.328125 C7.71428571,0.14765625 7.85892857,0 8.03571429,0 L9.10714286,0 C9.28392857,0 9.42857143,0.14765625 9.42857143,0.328125 L9.42857143,1.75 L10.7142857,1.75 C11.4241071,1.75 12,2.33789062 12,3.0625 Z M10.7142857,12.5234375 L10.7142857,4.375 L1.28571429,4.375 L1.28571429,12.5234375 C1.28571429,12.6136719 1.35803571,12.6875 1.44642857,12.6875 L10.5535714,12.6875 C10.6419643,12.6875 10.7142857,12.6136719 10.7142857,12.5234375 Z" id="calendar"></path>
                                </g>
                            </g>
                        </g>
                    </g>
                </g>
            </g>
        </g>
    </g>
</svg>