<?xml version="1.0" encoding="UTF-8"?>
<svg width="18px" height="16px" viewBox="0 0 18 16" version="1.1" xmlns="http://www.w3.org/2000/svg" xmlns:xlink="http://www.w3.org/1999/xlink">
    <!-- Generator: Sketch 62 (91390) - https://sketch.com -->
    <title>camera</title>
    <desc>Created with Sketch.</desc>
    <g id="Overview---Fev2020" stroke="none" stroke-width="1" fill="none" fill-rule="evenodd">
        <g id="9.0---Fotos" transform="translate(-319.000000, -24.000000)" fill="#FFFFFF" fill-rule="nonzero">
            <path d="M337,28 L337,38.2857143 C337,39.2321429 336.244141,40 335.3125,40 L320.6875,40 C319.755859,40 319,39.2321429 319,38.2857143 L319,28 C319,27.0535714 319.755859,26.2857143 320.6875,26.2857143 L323.78125,26.2857143 L324.213672,25.1107143 C324.459766,24.4428571 325.089063,24 325.792188,24 L330.204297,24 C330.907422,24 331.536719,24.4428571 331.782812,25.1107143 L332.21875,26.2857143 L335.3125,26.2857143 C336.244141,26.2857143 337,27.0535714 337,28 Z M332.21875,33.1428571 C332.21875,30.7785714 330.327344,28.8571429 328,28.8571429 C325.672656,28.8571429 323.78125,30.7785714 323.78125,33.1428571 C323.78125,35.5071429 325.672656,37.4285714 328,37.4285714 C330.327344,37.4285714 332.21875,35.5071429 332.21875,33.1428571 Z M331.09375,33.1428571 C331.09375,34.875 329.705078,36.2857143 328,36.2857143 C326.294922,36.2857143 324.90625,34.875 324.90625,33.1428571 C324.90625,31.4107143 326.294922,30 328,30 C329.705078,30 331.09375,31.4107143 331.09375,33.1428571 Z" id="camera"></path>
        </g>
    </g>
</svg>