<?xml version="1.0" encoding="utf-8"?>
<!-- Generator: Adobe Illustrator 24.0.1, SVG Export Plug-In . SVG Version: 6.00 Build 0)  -->
<svg version="1.1" id="Camada_1" xmlns="http://www.w3.org/2000/svg" xmlns:xlink="http://www.w3.org/1999/xlink" x="0px" y="0px"
	 viewBox="0 0 20.23 17.3" style="enable-background:new 0 0 20.23 17.3;" xml:space="preserve">
<path d="M7.43,0.01C6.54,0.06,5.59,0.33,4.59,0.6C3.26,0.96,2,1.27,1.1,1.96C0.64,2.31,0.28,2.77,0.11,3.34s-0.15,1.24,0.06,2.01
	l1.22,4.57c0.83,3.08,3.87,4.99,6.82,4.2c0.1-0.03,0.19-0.06,0.28-0.09c0.65,1.48,1.89,2.65,3.52,3.09c2.94,0.79,5.99-1.11,6.82-4.2
	l1.22-4.57c0.21-0.77,0.23-1.44,0.06-2.02c-0.17-0.58-0.53-1.04-0.98-1.38c-0.91-0.69-2.16-1.01-3.49-1.36
	c-1-0.27-1.95-0.53-2.84-0.58c-0.63-0.04-1.25,0.04-1.79,0.3L10.8,2.51c-0.21-0.77-0.52-1.36-0.96-1.77
	C9.4,0.32,8.86,0.11,8.29,0.03C8.01,0,7.72-0.01,7.43,0.01z M7.49,1.01C7.74,1,7.97,1,8.17,1.02c0.41,0.05,0.71,0.18,0.98,0.44
	c0.27,0.26,0.51,0.66,0.68,1.31l1.22,4.57c0.69,2.59-0.71,5.18-3.1,5.82s-4.9-0.9-5.59-3.49L1.14,5.1C0.96,4.45,0.97,3.98,1.07,3.63
	S1.38,3,1.71,2.76c0.65-0.5,1.81-0.84,3.14-1.19C5.85,1.3,6.76,1.07,7.49,1.01z M12.22,4.01c0.16-0.01,0.33-0.01,0.51,0
	c0.74,0.05,1.65,0.28,2.65,0.55c1.33,0.36,2.49,0.7,3.14,1.19c0.33,0.25,0.53,0.51,0.63,0.87c0.1,0.36,0.11,0.83-0.06,1.47
	l-1.22,4.57c-0.69,2.59-3.2,4.13-5.59,3.49c-1.32-0.35-2.33-1.3-2.87-2.53c0.73-0.41,1.34-0.98,1.81-1.66
	c0.39,0.64,1.03,1.14,1.82,1.35c1.15,0.31,2.33-0.06,3.05-0.89c0.18-0.21,0.16-0.52-0.05-0.71c-0.21-0.18-0.52-0.16-0.71,0.05
	c0,0,0,0,0,0c-0.46,0.53-1.25,0.79-2.04,0.58c-0.79-0.21-1.34-0.83-1.48-1.53c0.34-0.87,0.48-1.85,0.37-2.83l0.92,0.24
	c0.26,0.08,0.54-0.06,0.63-0.32c0.08-0.26-0.06-0.54-0.32-0.63c-0.02,0-0.03-0.01-0.05-0.01l-1.21-0.32
	c-0.05-0.01-0.1-0.02-0.15-0.02c-0.01,0-0.02,0-0.03,0l-0.7-2.62C11.54,4.13,11.84,4.03,12.22,4.01z M7,4.25
	c-0.28,0-0.5,0.22-0.51,0.49c0,0.19,0.1,0.36,0.27,0.45l1.51,0.82c0.24,0.14,0.54,0.07,0.69-0.17S9.03,5.3,8.79,5.15
	C8.78,5.15,8.76,5.14,8.75,5.13L7.23,4.31C7.16,4.27,7.08,4.25,7,4.25z M4.55,4.89C4.39,4.9,4.24,5,4.16,5.14L3.26,6.6
	C3.11,6.84,3.18,7.15,3.42,7.29c0.24,0.15,0.54,0.07,0.69-0.16c0,0,0,0,0,0l0.9-1.46c0.15-0.23,0.08-0.54-0.15-0.69
	C4.77,4.92,4.66,4.89,4.55,4.89z M15.63,7.9c-0.28,0.01-0.49,0.24-0.49,0.51c0.01,0.22,0.16,0.42,0.38,0.47l1.21,0.32
	c0.26,0.08,0.54-0.07,0.63-0.33c0.08-0.26-0.07-0.54-0.33-0.63c-0.01,0-0.02-0.01-0.04-0.01l-1.21-0.32
	C15.73,7.9,15.68,7.9,15.63,7.9z M7.44,7.91c-0.28,0-0.57,0.03-0.86,0.11c-1.15,0.31-1.99,1.22-2.2,2.3
	c-0.05,0.27,0.12,0.53,0.4,0.59s0.53-0.12,0.59-0.4C5.5,9.82,6.04,9.19,6.84,8.98c0.79-0.21,1.58,0.05,2.04,0.58
	c0.17,0.21,0.49,0.25,0.7,0.07s0.25-0.49,0.07-0.7C9.65,8.93,9.64,8.92,9.63,8.91C9.09,8.29,8.29,7.92,7.44,7.91z"/>
</svg>
