<svg width="12" height="12" viewBox="0 0 12 12" fill="none" xmlns="http://www.w3.org/2000/svg">
<path d="M3.084 10.2662C2.814 10.2662 2.598 10.0502 2.598 9.7802V5.37019L2.604 5.28619L2.622 5.22019L2.64 5.1662L2.67 5.1122L2.712 5.05819L2.748 5.0162L2.808 4.9682L2.856 4.9442L5.796 3.5702C5.862 3.5342 5.928 3.5162 6 3.5162C6.186 3.5162 6.36 3.6242 6.438 3.7982C6.552 4.0382 6.444 4.3322 6.204 4.4462L4.242 5.36419L6 6.1622L10.344 4.1942L6 2.2202L1.656 4.1882C1.752 4.2482 1.83 4.3322 1.866 4.4402C1.914 4.5602 1.908 4.6922 1.854 4.8122C1.776 4.9862 1.602 5.09419 1.416 5.09419C1.344 5.09419 1.278 5.0822 1.218 5.0522L0.288 4.63219C0.114 4.55419 0 4.3802 0 4.1882C0 3.9962 0.114 3.8222 0.282 3.74419L5.796 1.2422C5.862 1.2122 5.934 1.2002 6 1.2002C6.066 1.2002 6.138 1.2122 6.198 1.2422L11.712 3.7502C11.886 3.8282 12 4.0022 12 4.1882C12 4.3802 11.886 4.55419 11.718 4.63219L6.204 7.1342C6.144 7.1642 6.072 7.1762 6 7.1762C5.928 7.1762 5.862 7.1642 5.802 7.1342L3.57 6.12019V7.93819C4.236 8.55019 5.094 8.8862 6.006 8.8862C6.918 8.8862 7.776 8.55019 8.442 7.94419V7.20619C8.442 6.93619 8.658 6.72019 8.928 6.72019C9.198 6.72019 9.414 6.93619 9.414 7.20619V8.14819C9.414 8.28019 9.36 8.40619 9.27 8.49619C8.4 9.37819 7.242 9.8582 6 9.8582C5.13 9.8582 4.29 9.6182 3.564 9.1622V9.7802C3.564 10.0502 3.348 10.2662 3.084 10.2662Z" fill="white"/>
</svg>
