<?xml version="1.0" encoding="utf-8"?>
<!-- Generator: Adobe Illustrator 24.0.1, SVG Export Plug-In . SVG Version: 6.00 Build 0)  -->
<svg version="1.1" id="Camada_1" xmlns="http://www.w3.org/2000/svg" xmlns:xlink="http://www.w3.org/1999/xlink" x="0px" y="0px"
	 viewBox="0 0 562.54 666.1" style="enable-background:new 0 0 562.54 666.1;" xml:space="preserve">
<style type="text/css">
	.st0{fill:#FFFFFF;}
</style>
<g>
	<g>
		<g>
			<g>
				<path d="M485.91,47.5l0.4,0.2l0.2-0.6L485.91,47.5z M239.51,227.8l0.5,0.4c0.4-0.6,0.9-1.1,1.3-1.7L239.51,227.8z"/>
				<path class="st0" d="M485.91,47.5l0.4,0.2l0.2-0.6L485.91,47.5z M239.51,227.8l0.5,0.4c0.4-0.6,0.9-1.1,1.3-1.7L239.51,227.8z
					 M485.91,47.5l0.4,0.2l0.2-0.6L485.91,47.5z M239.51,227.8l0.5,0.4c0.4-0.6,0.9-1.1,1.3-1.7L239.51,227.8z M485.91,47.5l0.4,0.2
					l0.2-0.6L485.91,47.5z M239.51,227.8l0.5,0.4c0.4-0.6,0.9-1.1,1.3-1.7L239.51,227.8z M485.91,47.5l0.4,0.2l0.2-0.6L485.91,47.5z
					 M239.51,227.8l0.5,0.4c0.4-0.6,0.9-1.1,1.3-1.7L239.51,227.8z M485.91,47.5l0.4,0.2l0.2-0.6L485.91,47.5z M239.51,227.8
					l0.5,0.4c0.4-0.6,0.9-1.1,1.3-1.7L239.51,227.8z M485.91,47.5l0.4,0.2l0.2-0.6L485.91,47.5z M239.51,227.8l0.5,0.4
					c0.4-0.6,0.9-1.1,1.3-1.7L239.51,227.8z M485.91,47.5l0.4,0.2l0.2-0.6L485.91,47.5z M239.51,227.8l0.5,0.4
					c0.4-0.6,0.9-1.1,1.3-1.7L239.51,227.8z M485.91,47.5l0.4,0.2l0.2-0.6L485.91,47.5z M239.51,227.8l0.5,0.4
					c0.4-0.6,0.9-1.1,1.3-1.7L239.51,227.8z M485.91,47.5l0.4,0.2l0.2-0.6L485.91,47.5z M239.51,227.8l0.5,0.4
					c0.4-0.6,0.9-1.1,1.3-1.7L239.51,227.8z M485.91,47.5l0.4,0.2l0.2-0.6L485.91,47.5z M239.51,227.8l0.5,0.4
					c0.4-0.6,0.9-1.1,1.3-1.7L239.51,227.8z M485.91,47.5l0.4,0.2l0.2-0.6L485.91,47.5z M239.51,227.8l0.5,0.4
					c0.4-0.6,0.9-1.1,1.3-1.7L239.51,227.8z M485.91,47.5l0.4,0.2l0.2-0.6L485.91,47.5z M485.91,47.5l0.4,0.2l0.2-0.6L485.91,47.5z
					 M485.91,47.5l0.4,0.2l0.2-0.6L485.91,47.5z M485.91,47.5l0.4,0.2l0.2-0.6L485.91,47.5z M485.91,47.5l0.4,0.2l0.2-0.6
					L485.91,47.5z M485.91,47.5l0.4,0.2l0.2-0.6L485.91,47.5z M485.91,47.5l0.4,0.2l0.2-0.6L485.91,47.5z M239.51,227.8l0.5,0.4
					c0.4-0.6,0.9-1.1,1.3-1.7L239.51,227.8z M485.91,47.5l0.4,0.2l0.2-0.6L485.91,47.5z M239.51,227.8l0.5,0.4
					c0.4-0.6,0.9-1.1,1.3-1.7L239.51,227.8z M485.91,47.5l0.4,0.2l0.2-0.6L485.91,47.5z M239.51,227.8l0.5,0.4
					c0.4-0.6,0.9-1.1,1.3-1.7L239.51,227.8z M485.91,47.5l0.4,0.2l0.2-0.6L485.91,47.5z M239.51,227.8l0.5,0.4
					c0.4-0.6,0.9-1.1,1.3-1.7L239.51,227.8z M485.91,47.5l0.4,0.2l0.2-0.6L485.91,47.5z M239.51,227.8l0.5,0.4
					c0.4-0.6,0.9-1.1,1.3-1.7L239.51,227.8z M485.91,47.5l0.4,0.2l0.2-0.6L485.91,47.5z M239.51,227.8l0.5,0.4
					c0.4-0.6,0.9-1.1,1.3-1.7L239.51,227.8z M485.91,47.5l0.4,0.2l0.2-0.6L485.91,47.5z M239.51,227.8l0.5,0.4
					c0.4-0.6,0.9-1.1,1.3-1.7L239.51,227.8z M485.91,47.5l0.4,0.2l0.2-0.6L485.91,47.5z M239.51,227.8l0.5,0.4
					c0.4-0.6,0.9-1.1,1.3-1.7L239.51,227.8z"/>
			</g>
		</g>
		<g>
			<g>
				<path class="st0" d="M241.21,226.5c-0.4,0.6-0.9,1.1-1.3,1.7l-0.5-0.4L241.21,226.5z"/>
			</g>
			<g>
				<polygon class="st0" points="486.51,47 486.31,47.6 485.91,47.5 				"/>
				<path d="M557.51,109.5c-6.9-30.5-24.6-58-50.2-78.3c-1.7-1.4-3.5-2.7-5.2-4c-2.5-1.8-5-3.5-7.5-5C471.51,7.6,445.01,0,419.21,0
					c-15.1,0-30,2.6-43.9,7.9c-19.8,7.6-36.6,20.3-48.7,37l-153.2,212.6l-0.6,0.9l-1.9,2.5l-0.9,1.3l-0.3,0.4l-0.8,1h-0.1l-0.8,1
					l-2.6,3.7l-7.9,11l-135,187.4c-10.9,15-17.4,32.8-19.3,51.6c-0.2,1.7-0.3,3.3-0.5,5c-0.1,2-0.2,3.7-0.2,5.4
					c0,3.2,0.1,6.2,0.3,9.2c0.1,0.7,0.1,1.4,0.2,1.9c0.1,1.4,0.2,2.6,0.3,3.7c0.5,4.3,1.3,8.7,2.2,13.1c7.3,32.5,27,61.7,55.5,82.2
					c24.8,17.9,54.2,27.3,82.9,27.3c15.1,0,30-2.6,43.9-7.9c18.5-7.1,34.3-18.7,46.2-33.8c0.9-1.1,1.7-2.2,2.5-3.3L359.11,451
					l14.8-20.5l106.5-147.7l60.1-83.4C558.81,174,564.81,142.1,557.51,109.5z M359.11,415.6l-14.8,20.5l-120.6,167.6l-3.9,5.4
					c-9.7,13.3-23.3,23.7-39.3,29.8c-11.6,4.4-24,6.6-36.7,6.6c-24.3,0-49.4-8-70.7-23.4c-24.4-17.5-41.2-42.4-47.5-70
					c-0.5-2.3-0.9-4.6-1.4-7c-0.3-1.8-0.5-3.3-0.7-4.9c-0.2-2.6-0.4-5.3-0.5-8c-0.1-1.7,0-3.2,0-4.6c0.4-17.9,5.9-34.8,16-48.8
					l131.2-182l3.9-5.5l5.7-8l90.5,65.3l20,14.5l58.1,41.9l12,8.6L359.11,415.6z"/>
			</g>
		</g>
	</g>
</g>
</svg>
