<svg width="12" height="12" viewBox="0 0 12 12" fill="none" xmlns="http://www.w3.org/2000/svg">
<path d="M3.0275 12C2.81048 12 2.62773 11.838 2.59347 11.61L1.54267 4.614C1.31994 4.338 1.20001 3.984 1.20001 3.612C1.20001 3.204 1.34278 2.826 1.59977 2.538C1.85676 2.25 2.19942 2.094 2.56491 2.094C2.62773 2.094 2.68484 2.1 2.74766 2.106C2.74766 2.082 2.74766 2.058 2.74766 2.034C2.74766 1.512 2.93041 1.026 3.26164 0.66C3.59287 0.294 4.03261 0.09 4.5009 0.09C4.73505 0.09 4.95778 0.138 5.16908 0.234C5.34612 0.312 5.50031 0.426 5.64308 0.564C5.71161 0.528 5.78585 0.498 5.8601 0.474C5.9686 0.438 6.08282 0.42 6.20275 0.42C6.35123 0.42 6.494 0.444 6.63678 0.498C6.6996 0.408 6.77955 0.33 6.87092 0.264C7.09936 0.096 7.3849 0 7.68187 0C7.92173 0 8.15016 0.066 8.34433 0.186C8.4871 0.276 8.73267 0.48 8.83547 0.858C8.88115 0.852 8.92684 0.852 8.97253 0.852C9.378 0.852 9.78347 1.014 10.0633 1.29C10.4345 1.656 10.5373 2.154 10.3374 2.622C10.3374 2.628 10.3374 2.628 10.3317 2.634C10.3317 2.634 10.3374 2.64 10.3431 2.646C10.6401 2.976 10.8 3.414 10.8 3.876C10.8 4.092 10.76 4.302 10.6858 4.5L9.72065 11.076C9.67497 11.598 9.2181 12 8.66985 12H3.0275ZM8.66985 11.082C8.78978 11.082 8.84689 11.016 8.8526 10.968L9.74921 4.848H8.71554C8.58419 6.33 8.53279 6.876 8.51566 7.086C8.86402 7.386 9.04677 7.746 9.04677 8.13C9.04677 8.562 8.8012 8.97 8.36146 9.294L8.16729 11.088H8.66985V11.082ZM4.04974 11.082L3.85557 9.288C3.41013 8.964 3.17027 8.556 3.17027 8.124C3.17027 7.746 3.35302 7.392 3.69567 7.092L3.49579 4.842H2.46212L3.3987 11.076H4.04974V11.082ZM4.92922 11.082H7.28211L7.43059 9.738C7.02512 9.864 6.57396 9.924 6.10566 9.924C5.63737 9.924 5.19192 9.858 4.78645 9.738L4.92922 11.082ZM6.10566 7.242C5.47747 7.242 4.90067 7.38 4.47806 7.632C4.15254 7.824 4.03832 8.01 4.03832 8.124C4.03832 8.238 4.15254 8.424 4.47806 8.616C4.90067 8.868 5.47747 9.006 6.10566 9.006C6.73386 9.006 7.31066 8.868 7.73327 8.616C8.05879 8.424 8.173 8.238 8.173 8.124C8.173 8.01 8.05879 7.824 7.73327 7.632C7.31066 7.38 6.73386 7.242 6.10566 7.242ZM6.5454 6.342C6.95087 6.378 7.33921 6.468 7.68758 6.6L7.83606 4.848H6.5454V6.342ZM4.52946 6.6C4.87211 6.468 5.26045 6.378 5.67164 6.342V4.848H4.38098L4.52946 6.6ZM5.22048 2.892C5.10055 2.892 4.98633 2.946 4.88924 3.036C4.80358 3.126 4.75218 3.246 4.74647 3.378C4.74076 3.486 4.76932 3.594 4.83214 3.678C4.9692 3.852 5.22048 3.93 5.22048 3.93L9.92054 3.924C9.92054 3.906 9.92054 3.894 9.92054 3.876C9.92054 3.648 9.84058 3.432 9.70352 3.276C9.57788 3.138 9.40656 3.06 9.22952 3.06C9.14386 3.06 9.0639 3.078 8.98395 3.114L8.72696 3.234C8.66985 3.258 8.61274 3.276 8.54992 3.276C8.49281 3.276 8.44142 3.264 8.39002 3.246C8.28151 3.198 8.19014 3.108 8.14445 2.994L8.03594 2.73C7.99597 2.628 7.93315 2.544 7.84748 2.484C7.75611 2.418 7.699 2.406 7.63618 2.406C7.55623 2.406 7.45343 2.43 7.32208 2.46L7.24784 2.478C7.21929 2.484 7.18502 2.49 7.15647 2.49C7.06509 2.49 6.97943 2.46 6.9109 2.406C6.8081 2.334 6.74528 2.22 6.72244 2.094L6.68246 1.806C6.65962 1.668 6.5968 1.542 6.50543 1.458C6.42547 1.38 6.31697 1.338 6.21417 1.338C6.17419 1.338 6.13993 1.344 6.10566 1.356C6.0714 1.368 6.03142 1.386 5.99716 1.41L5.80299 1.542C5.73446 1.584 5.6545 1.614 5.56884 1.614C5.44891 1.614 5.33469 1.56 5.24903 1.47L5.09484 1.296C5.00917 1.2 4.9178 1.128 4.80929 1.08C4.71221 1.038 4.60941 1.014 4.5009 1.014C4.27247 1.014 4.04974 1.116 3.88984 1.29C3.71851 1.488 3.62143 1.752 3.62143 2.034C3.62143 2.07 3.63285 2.202 3.63856 2.232L3.7128 2.682C3.74136 2.844 3.68425 3.006 3.56432 3.114C3.47866 3.186 3.38157 3.222 3.27877 3.222C3.22738 3.222 3.18169 3.216 3.136 3.198L2.70198 3.042C2.67913 3.03 2.662 3.024 2.63344 3.024C2.6106 3.018 2.58776 3.018 2.56491 3.018C2.44499 3.018 2.31935 3.072 2.23368 3.174C2.13089 3.288 2.07378 3.444 2.07378 3.612C2.07378 3.726 2.10233 3.834 2.15373 3.924H3.96408C3.88984 3.738 3.86128 3.534 3.87271 3.324C3.89555 2.958 4.04403 2.622 4.2896 2.37C4.54659 2.112 4.87782 1.974 5.22048 1.968C5.56884 1.968 5.88865 2.112 6.11708 2.37C6.23701 2.502 6.32268 2.658 6.37979 2.826C6.41976 2.94 6.40834 3.066 6.35694 3.18C6.30554 3.294 6.21417 3.378 6.09995 3.414C6.05427 3.432 6.00858 3.438 5.96289 3.438C5.77443 3.438 5.60882 3.312 5.546 3.126C5.52886 3.078 5.50602 3.042 5.47747 3.006C5.41465 2.934 5.32327 2.892 5.22048 2.892ZM8.54992 1.896C8.63559 1.992 8.71554 2.094 8.77265 2.214C8.91542 2.166 9.07532 2.136 9.23523 2.136C9.34374 2.136 9.44653 2.148 9.55504 2.172C9.56075 2.112 9.54362 2.04 9.45795 1.956C9.33803 1.842 9.15528 1.77 8.96682 1.77C8.84689 1.77 8.73838 1.8 8.63559 1.854C8.61274 1.872 8.57848 1.884 8.54992 1.896ZM7.64189 1.482C7.76753 1.482 7.88746 1.5 8.00168 1.542C7.99026 1.494 7.99026 1.446 7.99597 1.398C8.02452 1.182 7.98454 1.038 7.88746 0.978C7.83606 0.948 7.76182 0.924 7.67616 0.924C7.56765 0.924 7.45343 0.96 7.37348 1.014C7.32779 1.044 7.32208 1.068 7.31637 1.074C7.39632 1.188 7.45914 1.332 7.49912 1.488C7.55623 1.488 7.5962 1.482 7.64189 1.482Z" fill="white"/>
</svg>
