<?xml version="1.0" encoding="utf-8"?>
<!-- Generator: Adobe Illustrator 24.0.1, SVG Export Plug-In . SVG Version: 6.00 Build 0)  -->
<svg version="1.1" id="Camada_1" xmlns="http://www.w3.org/2000/svg" xmlns:xlink="http://www.w3.org/1999/xlink" x="0px" y="0px"
	 viewBox="0 0 91.45 86.46" style="enable-background:new 0 0 91.45 86.46;" xml:space="preserve">
<style type="text/css">
	.st0{fill:none;stroke:#000000;stroke-width:5;stroke-miterlimit:10;}
</style>
<path class="st0" d="M88.41,32.74H3.07v0c0-16.52,13.39-29.91,29.91-29.91h25.51C75.01,2.83,88.41,16.22,88.41,32.74L88.41,32.74z"
	/>
<path class="st0" d="M3.07,65.15h85.34v0c0,10.2-8.26,18.46-18.46,18.46H21.53C11.34,83.61,3.07,75.34,3.07,65.15
	C3.07,65.15,3.07,65.15,3.07,65.15z"/>
<path d="M82,59.13H9.48c-3.54,0-6.41-2.87-6.41-6.41v-7.56c0-3.54,2.87-6.41,6.41-6.41H82c3.54,0,6.41,2.87,6.41,6.41v7.56
	C88.41,56.26,85.54,59.13,82,59.13z"/>
</svg>
