<?xml version="1.0" encoding="UTF-8"?>
<svg width="12px" height="13px" viewBox="0 0 12 13" version="1.1" xmlns="http://www.w3.org/2000/svg" xmlns:xlink="http://www.w3.org/1999/xlink">
    <!-- Generator: Sketch 61 (89581) - https://sketch.com -->
    <title>Ico - Shows</title>
    <desc>Created with Sketch.</desc>
    <g id="Page-1" stroke="none" stroke-width="1" fill="none" fill-rule="evenodd">
        <g id="Ico---Shows" fill="#30287B" fill-rule="nonzero">
            <path d="M2.33997,12.5526 C1.76361,12.5526 1.21126,12.3457 0.778992,11.9675 C-0.181608,11.1223 -0.26566,9.65662 0.592876,8.71101 C1.03715,8.22047 1.67355,7.9427 2.33997,7.9427 C2.81426,7.9427 3.27055,8.08454 3.65479,8.34459 L3.65479,1.23478 C3.65479,0.957004 3.88893,0.732422 4.17111,0.732422 L11.4897,0.732422 C11.7719,0.732422 11.9999998,0.957004 11.9999998,1.23478 L11.9999998,8.79966 C11.9999998,9.36703 11.7899,9.91666 11.4056,10.3422 C10.9614,10.8327 10.325,11.1105 9.65854,11.1105 C9.08218,11.1105 8.52983,10.9036 8.09756,10.5254 C7.13696,9.68026 7.05291,8.21456 7.91145,7.26895 C8.35573,6.77842 8.99212,6.50065 9.65854,6.50065 C10.1328,6.50065 10.5891,6.64249 10.9734,6.90253 L10.9734,3.90022 L4.68143,3.90022 L4.68143,10.2417 C4.68143,10.8091 4.4713,11.3587 4.08706,11.7842 C3.64278,12.2748 3.00638,12.5526 2.33997,12.5526 Z M2.33997,8.94741 C1.61351,8.94741 1.02515,9.5266 1.02515,10.2417 C1.02515,10.9568 1.61351,11.536 2.33997,11.536 C3.06642,11.536 3.65479,10.9568 3.65479,10.2417 C3.65479,9.5266 3.06642,8.94741 2.33997,8.94741 Z M9.65854,7.50536 C8.93208,7.50536 8.34372,8.08454 8.34372,8.79966 C8.34372,9.51478 8.93208,10.094 9.65854,10.094 C10.385,10.094 10.9734,9.51478 10.9734,8.79966 C10.9734,8.08454 10.385,7.50536 9.65854,7.50536 Z M10.9734,2.89551 L10.9734,1.74304 L4.68143,1.74304 L4.68143,2.89551 L10.9734,2.89551 Z" id="Shape"></path>
        </g>
    </g>
</svg>