<?xml version="1.0" encoding="utf-8"?>
<!-- Generator: Adobe Illustrator 24.0.1, SVG Export Plug-In . SVG Version: 6.00 Build 0)  -->
<svg version="1.1"
	 id="Camada_1" xmlns:cc="http://creativecommons.org/ns#" xmlns:dc="http://purl.org/dc/elements/1.1/" xmlns:inkscape="http://www.inkscape.org/namespaces/inkscape" xmlns:rdf="http://www.w3.org/1999/02/22-rdf-syntax-ns#" xmlns:sodipodi="http://sodipodi.sourceforge.net/DTD/sodipodi-0.dtd" xmlns:svg="http://www.w3.org/2000/svg"
	 xmlns="http://www.w3.org/2000/svg" xmlns:xlink="http://www.w3.org/1999/xlink" x="0px" y="0px" viewBox="0 0 75.96 67.67"
	 style="enable-background:new 0 0 75.96 67.67;" xml:space="preserve">
<g transform="translate(0,-952.36218)">
	<path d="M20.26,953.27c-5.19,0-10.4,1.99-14.34,5.97c-7.89,7.97-7.88,20.87,0,28.84l29.91,30.28c1.16,1.18,3.06,1.2,4.24,0.04
		c0.01-0.01,0.03-0.03,0.04-0.04c9.98-10.07,19.95-20.14,29.94-30.22c7.89-7.97,7.89-20.91,0-28.87c-7.89-7.97-20.76-7.97-28.66,0
		l-3.41,3.41l-3.41-3.44C30.63,955.26,25.45,953.27,20.26,953.27L20.26,953.27z M20.26,959.21c3.63,0,7.25,1.41,10.06,4.25
		l5.53,5.62c1.16,1.18,3.06,1.2,4.24,0.04c0.01-0.01,0.03-0.03,0.04-0.04l5.5-5.56c5.63-5.68,14.53-5.68,20.16,0
		c5.63,5.68,5.63,14.7,0,20.38c-9.27,9.35-18.54,18.74-27.81,28.09l-27.81-28.12c-5.62-5.69-5.63-14.73,0-20.41
		C12.98,960.62,16.63,959.21,20.26,959.21L20.26,959.21z"/>
</g>
</svg>
