<svg width="12" height="12" viewBox="0 0 12 12" fill="none" xmlns="http://www.w3.org/2000/svg">
<path fill-rule="evenodd" clip-rule="evenodd" d="M5.80007 0.0540102C5.84809 0.0240135 5.90811 0.00599934 5.96813 0C6.04615 0 6.13018 0.0180141 6.20221 0.0540102L11.8141 3.34164C11.9581 3.43163 12.0301 3.6176 11.9881 3.77958C11.9461 3.94156 11.79 4.06157 11.622 4.06157H0.386287C0.218232 4.06157 0.0621805 3.94156 0.0141647 3.77958C-0.0338512 3.6176 0.0441746 3.42563 0.188222 3.34164L5.80007 0.0540102ZM6.77239 2.03979C6.77239 1.61984 6.41828 1.26585 5.99814 1.26585C5.578 1.26585 5.22388 1.61984 5.22388 2.03979C5.22388 2.45974 5.578 2.81369 5.99814 2.81369C6.41828 2.81369 6.77239 2.45974 6.77239 2.03979ZM0.596357 4.7035C0.644373 4.56551 0.776416 4.46354 0.920464 4.45154V4.44553H2.51699C2.66704 4.44553 2.81109 4.5475 2.87111 4.68548C2.93113 4.82947 2.89511 4.99746 2.78708 5.10544L2.51699 5.37542V8.62105C2.51699 8.82503 2.33093 9.01102 2.12686 9.01102H1.35261C1.14854 9.01102 0.962478 8.82503 0.962478 8.62105V5.38743L0.686386 5.11145C0.584353 5.00346 0.548341 4.84148 0.596357 4.7035ZM4.85776 4.7035C4.90578 4.56551 5.03782 4.46354 5.18187 4.45154V4.44553H6.7844C6.93445 4.44553 7.07249 4.5475 7.13251 4.68548C7.19253 4.82947 7.16252 4.99746 7.05449 5.10544L6.7844 5.37542V8.62105C6.7844 8.82503 6.59834 9.01102 6.39427 9.01102H5.61401C5.40994 9.01102 5.22388 8.82503 5.22388 8.62105V5.38743L4.94779 5.11145C4.84576 5.00346 4.80975 4.84148 4.85776 4.7035ZM9.12517 4.7035C9.17319 4.56551 9.30523 4.46354 9.44928 4.45154V4.44553H11.0458C11.1959 4.44553 11.3339 4.5475 11.3939 4.68548C11.4539 4.82947 11.4239 4.99746 11.3159 5.10544L11.0458 5.37542V8.62105C11.0458 8.82503 10.8597 9.01102 10.6557 9.01102H9.88142C9.67735 9.01102 9.49129 8.82503 9.49129 8.62105V5.38743L9.2152 5.11145C9.11317 5.00346 9.07715 4.84148 9.12517 4.7035ZM11.0457 9.48627C11.3158 9.48627 11.5559 9.72625 11.5559 9.99622C11.5559 10.2662 11.3158 10.5062 11.0457 10.5062H0.96842C0.686327 10.5062 0.458252 10.2842 0.440246 10.0262C0.434244 9.89423 0.48226 9.76224 0.578291 9.66026C0.668321 9.55827 0.794363 9.49827 0.920404 9.49227L11.0457 9.48627ZM11.4299 10.9801C11.7 10.9801 11.9401 11.2201 11.9401 11.4901C11.9401 11.76 11.7 12 11.4299 12H0.57835C0.296257 12 0.0681817 11.778 0.0501758 11.5201C0.0441738 11.3881 0.0921896 11.2561 0.188221 11.1541C0.278251 11.0521 0.404293 10.9921 0.530334 10.9861L11.4299 10.9801Z" fill="white"/>
</svg>
