<svg width="12" height="12" viewBox="0 0 12 12" fill="none" xmlns="http://www.w3.org/2000/svg">
<path fill-rule="evenodd" clip-rule="evenodd" d="M10.2972 8.32636H11.1486V3.67213H10.2972V8.32636ZM8.57454 9.33884H9.42594V2.66032H8.57454V9.33884ZM4.31649 6.59754H7.69029V5.40096H4.31649V6.59754ZM2.56136 9.33885H3.41276V2.65965H2.56136V9.33885ZM0.851479 8.32636H1.70288V3.67213H0.851479V8.32636ZM11.5746 2.72568H10.2774V2.18676C10.2774 1.9253 10.0872 1.71387 9.8514 1.71387H8.1486C7.914 1.71387 7.7232 1.9253 7.7232 2.18676V4.45451H4.2642V2.18676C4.2642 1.9253 4.0734 1.71387 3.8382 1.71387H2.1354C1.9002 1.71387 1.71 1.9253 1.71 2.18676V2.72568H0.4254C0.1908 2.72568 0 2.93779 0 3.19924V8.79992C0 9.06138 0.1908 9.27281 0.4254 9.27281H1.7094V9.8124C1.7094 10.0732 1.9002 10.2853 2.1354 10.2853H3.8382C4.0728 10.2853 4.2642 10.0739 4.2642 9.8124V7.54399H7.7226V9.8124C7.7226 10.0732 7.9134 10.2853 8.148 10.2853H8.1486H9.8514C10.0866 10.2853 10.2774 10.0732 10.2774 9.8124V9.27281H11.574C11.8092 9.27281 12 9.06138 12 8.79992V3.19924C12 2.93779 11.8098 2.72568 11.5746 2.72568Z" fill="white"/>
</svg>
