<svg width="12" height="12" viewBox="0 0 12 12" fill="none" xmlns="http://www.w3.org/2000/svg">
<path d="M3.60001 6.972H8.40001C8.64601 6.972 8.84401 6.774 8.84401 6.528V1.722C8.84401 1.476 8.64601 1.278 8.40001 1.278H7.92001L6.26401 0.09C6.18601 0.03 6.09601 0 6.00001 0C5.90401 0 5.81401 0.03 5.74201 0.084L4.08001 1.272H3.60001C3.35401 1.272 3.15601 1.47 3.15601 1.716V6.522C3.15001 6.768 3.35401 6.972 3.60001 6.972ZM6.00001 0.996L6.39001 1.278H5.61001L6.00001 0.996ZM4.04401 2.166H7.95601V6.078H4.04401V2.166Z" fill="white"/>
<path d="M11.556 10.92H11.064V8.32795C11.448 8.15395 11.706 7.76395 11.706 7.33795C11.706 6.73795 11.22 6.25195 10.62 6.25195C10.02 6.25195 9.534 6.73795 9.534 7.33795C9.534 7.48795 9.57 7.63795 9.63 7.78195C8.628 8.18995 7.344 8.41195 6.006 8.41195C4.668 8.41195 3.384 8.18995 2.382 7.78795C2.448 7.64995 2.478 7.49395 2.478 7.34395C2.478 6.74395 1.992 6.25795 1.392 6.25795C0.792 6.25795 0.306 6.74395 0.306 7.34395C0.306 7.76995 0.564 8.15395 0.948 8.33395V10.926H0.444C0.198 10.92 0 11.124 0 11.364C0 11.604 0.198 11.808 0.444 11.808H2.328C2.574 11.808 2.772 11.61 2.772 11.364C2.772 11.118 2.574 10.92 2.328 10.92H1.836V8.51395C2.982 9.02395 4.452 9.29995 6 9.29995C7.53 9.29995 9.036 9.01195 10.17 8.51395V10.92H9.672C9.426 10.92 9.228 11.118 9.228 11.364C9.228 11.61 9.426 11.808 9.672 11.808H11.556C11.802 11.808 12 11.61 12 11.364C12 11.118 11.802 10.92 11.556 10.92ZM1.392 7.53595C1.284 7.53595 1.194 7.44595 1.194 7.33795C1.194 7.22995 1.284 7.13995 1.392 7.13995C1.5 7.13995 1.59 7.22995 1.59 7.33795C1.584 7.44595 1.5 7.53595 1.392 7.53595ZM10.614 7.53595C10.506 7.53595 10.416 7.44595 10.416 7.33795C10.416 7.22995 10.506 7.13995 10.614 7.13995C10.722 7.13995 10.812 7.22995 10.812 7.33795C10.812 7.44595 10.722 7.53595 10.614 7.53595Z" fill="white"/>
</svg>
