<?xml version="1.0" encoding="utf-8"?>
<!-- Generator: Adobe Illustrator 24.0.1, SVG Export Plug-In . SVG Version: 6.00 Build 0)  -->
<svg version="1.1" id="Camada_1" xmlns="http://www.w3.org/2000/svg" xmlns:xlink="http://www.w3.org/1999/xlink" x="0px" y="0px"
	 viewBox="0 0 762 551.89" style="enable-background:new 0 0 762 551.89;" xml:space="preserve">
<g>
	<path d="M353,27H253L131,149l88,66l19-19l23-23v33v42c-9,3-18,7-27,12v-21l-4,4l-9,8l-9-7l-110-82l-12-10l11-11L238,4l4-4h6h109h4
		l4,2c21,15,41,23,61,23c19,0,39-8,61-23l3-2h4h110h6l4,4l137,137l11,11l-13,10l-109,82l-10,7l-8-8l-4-4v268v14h-14H473
		c4-8,6-18,3-27h114V206v-33l24,23l19,19l87-66L598,27h-99c-25,17-49,25-73,25S378,44,353,27z M6,516c-15-10,0-33,15-23
		c13,8,29,15,45,19c17,5,36,7,55,7s37-2,54-7c63-16,76-50,160-50c41,0,82,11,114,31c15,10,1,33-15,23c-27-17-63-26-99-26
		c-77,0-92,33-153,49c-19,5-40,8-61,8s-42-3-62-8C40,534,22,526,6,516z M6,414c-15-9,0-32,15-23c13,9,29,15,45,20c17,4,36,7,55,7
		s37-3,54-7c63-17,76-50,160-50c41,0,82,10,114,30c15,10,1,33-15,23c-27-17-63-26-99-26c-77,0-92,33-153,49c-19,5-40,8-61,8
		s-42-3-62-8C40,432,22,424,6,414z M6,313c-15-10,0-33,15-23c13,8,29,15,45,19c17,5,36,7,55,7s37-2,54-7c63-17,76-50,160-50
		c41,0,82,10,114,31c15,9,1,32-15,23c-27-18-63-26-99-26c-77,0-92,32-153,48c-19,6-40,8-61,8s-42-2-62-8C40,330,22,323,6,313z"/>
</g>
</svg>
