<?xml version="1.0" encoding="utf-8"?>
<!-- Generator: Adobe Illustrator 24.0.1, SVG Export Plug-In . SVG Version: 6.00 Build 0)  -->
<svg version="1.1" id="Camada_1" xmlns="http://www.w3.org/2000/svg" xmlns:xlink="http://www.w3.org/1999/xlink" x="0px" y="0px"
	 viewBox="0 0 268 285" style="enable-background:new 0 0 268 285;" xml:space="preserve">
<g>
	<path d="M40,99h142c18,0,33,12,38,29c21,0,40,1,46,25c5,17-3,36-17,47c-7,6-17,11-28,12c-6,42-42,73-84,73H85c-47,0-85-38-85-85
		v-61C0,117,18,99,40,99z M222,141v58c7-2,14-5,19-9c9-8,15-22,12-34C249,140,235,141,222,141z M182,112H40c-15,0-26,12-26,27v61
		c0,40,32,72,71,72h52c39,0,71-32,71-72v-61C208,124,196,112,182,112z"/>
	<path d="M64,1c7-5,15,6,8,11c-6,4-8,8-8,11c0,9,16,19,17,35c0,10-4,17-12,22c-7,5-14-7-7-11c4-3,6-4,6-10c-1-14-16-21-17-36
		C51,16,54,9,64,1z"/>
	<path d="M109,1c7-5,15,6,8,11c-6,4-8,8-8,11c0,9,15,19,16,35c1,10-3,17-11,22s-15-7-7-11c4-3,6-4,6-10c-1-14-16-21-17-36
		C96,16,99,9,109,1z"/>
	<path d="M153,1c8-5,16,6,8,11c-5,4-8,8-7,11c0,9,15,19,16,35c1,10-3,17-11,22s-15-7-7-11c4-3,6-4,5-10c0-14-15-21-16-36
		C141,16,144,9,153,1z"/>
</g>
</svg>
