<?xml version="1.0" encoding="utf-8"?>
<!-- Generator: Adobe Illustrator 24.0.1, SVG Export Plug-In . SVG Version: 6.00 Build 0)  -->
<svg version="1.1" id="Camada_1" xmlns="http://www.w3.org/2000/svg" xmlns:xlink="http://www.w3.org/1999/xlink" x="0px" y="0px"
	 viewBox="0 0 88 88" style="enable-background:new 0 0 88 88;" xml:space="preserve">
<path d="M0,72c0,8.84,7.16,16,16,16h56c8.84,0,16-7.16,16-16V36c0-8.84-7.16-16-16-16h-8v-8c0-6.63-5.37-12-12-12H36
	c-6.63,0-12,5.37-12,12v8h-8C7.16,20,0,27.16,0,36V72z M28,80V28h32v52H28z M72,28c4.42,0,8,3.58,8,8v36c0,4.42-3.58,8-8,8h-4V28H72
	z M32,12c0-2.21,1.79-4,4-4h16c2.21,0,4,1.79,4,4v8H32V12z M8,36c0-4.42,3.58-8,8-8h4v52h-4c-4.42,0-8-3.58-8-8V36z"/>
</svg>
