<svg width="20px" height="20px" xmlns="http://www.w3.org/2000/svg">
    <g stroke="none" stroke-width="1" fill="none" fill-rule="evenodd">
        <path d="M19.5195827,0.429546514 C19.5062955,0.188321026 19.3066281,-0.000364608501 19.0650373,5.29050084e-07 L11.2195827,5.29050084e-07 C10.9779918,-0.000364608501 10.7783245,0.188321026 10.7650373,0.429546514 L10.3400373,8.07272833 C10.1954635,10.6509339 12.1146659,12.8823079 14.6854918,13.1250011 L14.6854918,18.2954556 L13.6514009,18.2954556 L6.75594636,10.7545465 C6.66960542,10.6601698 6.54749538,10.6065404 6.41958272,10.6068192 L0.951400906,10.6068192 C0.771451725,10.6066963 0.608371208,10.7127432 0.535491815,10.8772738 C0.528963846,10.8958486 0.523649623,10.914828 0.519582724,10.934092 L0.501400906,10.934092 L0.162764542,13.0113647 C-0.0732233123,14.456702 -0.0524506028,15.9323338 0.224128179,17.3704556 L0.503673633,18.834092 C0.545605054,19.0509593 0.737371706,19.2062903 0.958219088,19.2023499 L7.92867363,19.2023499 L7.92867363,19.2023499 L7.98776454,19.2023499 L17.9536736,19.2023499 L17.9536736,18.2931829 L15.5945827,18.2931829 L15.5945827,13.1250011 C18.1654086,12.8823079 20.0846111,10.6509339 19.9400373,8.07272833 L19.5195827,0.429546514 Z M12.3286736,18.2954556 L8.18094636,18.2954556 L1.98094636,11.5159102 L6.22185545,11.5159102 L12.4195827,18.2954556 L12.3286736,18.2954556 Z M11.3809464,5.73863742 L11.6491282,0.909091969 L18.6309464,0.909091969 L18.8991282,5.73863742 L11.3809464,5.73863742 Z" fill="#30287B"></path>
        <circle fill="#000000" cx="4.81423494" cy="13.0232837" r="1" />
        <circle fill="#000000" cx="7.78243908" cy="14.4385557" r="1" />
        <circle fill="#000000" cx="7.59492825" cy="16.5578585" r="1" />
    </g>
</svg>