<?xml version="1.0" encoding="utf-8"?>
<!-- Generator: Adobe Illustrator 24.0.1, SVG Export Plug-In . SVG Version: 6.00 Build 0)  -->
<svg version="1.1" id="Camada_1" xmlns="http://www.w3.org/2000/svg" xmlns:xlink="http://www.w3.org/1999/xlink" x="0px" y="0px"
	 viewBox="0 0 70 91.56" style="enable-background:new 0 0 70 91.56;" xml:space="preserve">
<path d="M69.94,18.58c-0.08-0.79-0.47-1.51-1.09-2.01c-0.08-0.06-0.12-0.15-0.21-0.21c-0.08-0.05-0.16-0.06-0.24-0.1
	c-0.36-0.18-0.75-0.3-1.15-0.34c-0.09-0.01-0.16-0.05-0.25-0.05H53.69l7.49-11.2c0.92-1.38,0.55-3.24-0.82-4.16
	s-3.24-0.55-4.16,0.82l-9.72,14.54H3c-0.09,0-0.16,0.04-0.25,0.05c-0.4,0.04-0.79,0.16-1.15,0.35c-0.08,0.04-0.17,0.05-0.24,0.1
	c-0.09,0.06-0.13,0.14-0.21,0.21C0.98,16.69,0.84,16.84,0.71,17c-0.37,0.45-0.6,1-0.65,1.58C0.03,18.67,0.01,18.77,0,18.87
	c0,0.09,0.04,0.17,0.05,0.26c0.04,0.4,0.16,0.79,0.34,1.14c0.04,0.08,0.05,0.17,0.1,0.25L32,68.44v17.12h-9.71c-1.66,0-3,1.34-3,3
	s1.34,3,3,3h25.42c1.66,0,3-1.34,3-3s-1.34-3-3-3H38V68.44l31.51-47.93c0.05-0.08,0.06-0.17,0.1-0.25c0.18-0.36,0.3-0.74,0.34-1.14
	c0.01-0.09,0.05-0.16,0.05-0.26C69.99,18.77,69.97,18.67,69.94,18.58z M8.56,21.87h33.9l-6.69,10H15.14L8.56,21.87z M54.86,31.87
	h-4.65L35.76,53.48c-0.92,1.38-2.78,1.75-4.16,0.83c-1.38-0.92-1.75-2.78-0.83-4.16c0,0,0-0.01,0.01-0.01L40.7,35.3
	c0-0.01,0.01-0.01,0.01-0.01l8.97-13.42h11.75L54.86,31.87z"/>
</svg>
