<?xml version="1.0" encoding="utf-8"?>
<!-- Generator: Adobe Illustrator 24.0.1, SVG Export Plug-In . SVG Version: 6.00 Build 0)  -->
<svg version="1.1" id="Camada_1" xmlns="http://www.w3.org/2000/svg" xmlns:xlink="http://www.w3.org/1999/xlink" x="0px" y="0px"
	 viewBox="0 0 56.35 37.19" style="enable-background:new 0 0 56.35 37.19;" xml:space="preserve">
<g>
	<path d="M48.46,9.13c-4.33,0-7.89,3.56-7.89,7.89c0,4.27,3.62,9.91,5.81,12.93c0.47,0.65,1.25,1.07,2.08,1.07
		c0.83,0,1.6-0.42,2.08-1.07c2.19-2.97,5.81-8.6,5.81-12.93S52.79,9.13,48.46,9.13z M48.46,27.64c-3.08-4.27-4.86-8.19-4.86-10.56
		c0-2.67,2.19-4.86,4.86-4.86c2.67,0,4.86,2.19,4.86,4.86C53.32,19.46,51.48,23.37,48.46,27.64z"/>
	<path d="M48.46,34.11h-29.6c-1.84,0-3.38-1.54-3.38-3.38s1.54-3.38,3.38-3.38h6.94c3.56,0,6.41-2.91,6.41-6.41
		s-2.85-6.47-6.35-6.47h-1.19c0.89-0.47,1.6-1.42,1.72-2.49h0.83c0.71,0,1.3-0.53,1.36-1.25l0.3-3.38c0.06-0.77-0.47-1.42-1.19-1.48
		l-6.41-0.83l-3.56-3.91C17.08,0.42,16.13,0,15.18,0H8.84C7.77,0,6.82,0.53,6.29,1.48L4.21,5.1L1.96,5.22
		C1.19,5.28,0.59,5.93,0.65,6.7l0.3,4.03c0.12,0.71,0.71,1.3,1.48,1.3h0.95C3.5,13.11,4.15,14,5.1,14.53H1.54
		C0.71,14.53,0,15.18,0,16.07c0,0.83,0.71,1.54,1.54,1.54h24.32c1.84,0,3.38,1.54,3.38,3.38c0,1.84-1.48,3.38-3.38,3.38h-7
		c-3.56,0-6.41,2.91-6.41,6.41c0,3.56,2.91,6.41,6.41,6.41H48.4c0.83,0,1.54-0.65,1.54-1.54S49.29,34.11,48.46,34.11z M23.19,9.96
		c0.95,0,1.72,0.77,1.72,1.72c0,0.95-0.77,1.72-1.72,1.72c-0.95,0-1.72-0.77-1.72-1.72C21.47,10.68,22.24,9.96,23.19,9.96z
		 M12.87,1.84h2.31c0.47,0,0.89,0.18,1.19,0.53l2.37,2.61h-5.93L12.87,1.84z M7.89,2.37c0.18-0.36,0.53-0.53,0.95-0.53h2.19v3.14
		H6.41L7.89,2.37z M6.52,9.96c0.95,0,1.72,0.77,1.72,1.72c0,0.95-0.77,1.72-1.72,1.72c-0.95,0-1.72-0.77-1.72-1.72
		C4.86,10.68,5.58,9.96,6.52,9.96z M9.73,12.04h10.26c0.12,1.07,0.77,1.96,1.72,2.49H8.01C8.96,14,9.61,13.11,9.73,12.04z"/>
	<circle cx="48.4" cy="17.02" r="2.61"/>
</g>
</svg>
