<svg width="12" height="13" viewBox="0 0 12 13" fill="none" xmlns="http://www.w3.org/2000/svg">
<path d="M10.8 5.7739C10.8 3.01482 8.45801 0.794733 5.66044 0.987227C3.33127 1.14764 1.432 3.00841 1.22026 5.32474C0.976433 8.01323 2.96553 10.2975 5.53853 10.5477V12.0756H5.07654C4.81988 12.0756 4.61456 12.2809 4.61456 12.5376C4.61456 12.7942 4.81988 12.9996 5.07654 12.9996H6.91806C7.17472 12.9996 7.38005 12.7942 7.38005 12.5376C7.38005 12.2809 7.17472 12.0756 6.91806 12.0756H6.46249V10.5477C8.89433 10.3167 10.8 8.26348 10.8 5.7739ZM4.15257 6.81978C4.33223 6.64012 4.62739 6.64653 4.80705 6.82619L5.53853 7.57692V5.113C5.53853 4.85634 5.74385 4.65102 6.00051 4.65102C6.25717 4.65102 6.46249 4.85634 6.46249 5.113V6.26796L7.19397 5.51724C7.37363 5.33758 7.66237 5.33116 7.84845 5.51082C8.03452 5.69048 8.03452 5.97922 7.85486 6.1653L6.46249 7.59617V10.5349H5.53853V8.90512L4.14616 7.47425C3.96008 7.28818 3.9665 6.99302 4.15257 6.81978Z" fill="white"/>
</svg>
