<?xml version="1.0" encoding="utf-8"?>
<!-- Generator: Adobe Illustrator 24.0.1, SVG Export Plug-In . SVG Version: 6.00 Build 0)  -->
<svg version="1.1" id="Camada_1" xmlns="http://www.w3.org/2000/svg" xmlns:xlink="http://www.w3.org/1999/xlink" x="0px" y="0px"
	 viewBox="0 0 50.82 37" style="enable-background:new 0 0 50.82 37;" xml:space="preserve">
<style type="text/css">
	.st0{fill-rule:evenodd;clip-rule:evenodd;}
</style>
<g>
	<path class="st0" d="M50.82,0v37C33.88,37,16.94,37,0,37V0C16.94,0,33.88,0,50.82,0z M20.53,32.04c-1.08,0.62-2.4-0.17-2.4-1.38
		l-0.01-15.96c0-1.31,1.46-2.04,2.52-1.31l13.7,7.9c1.08,0.62,1.05,2.13,0,2.76L20.53,32.04L20.53,32.04z M21.33,27.88l9.02-5.21
		l-9.02-5.21V27.88z M3.2,9.94c4.36,0,9.81-0.74,8.85-6.73H3.2V9.94z M16.14,3.2c4.27,5.19,14.27,5.19,18.54,0H16.14z M38.77,3.2
		c-0.98,6.11,4.55,6.73,8.85,6.73V3.2H38.77z M47.62,13.14h-2c-2.25,2.06-2.64,8.19-2.64,10.32c0,3.05,0.51,6.57,1.89,10.34h2.76
		V13.14z M41.48,33.8c-1.24-3.75-1.71-7.26-1.71-10.34c0-3.43,0.65-7.75,2.38-10.8c-2.51-0.65-5.69-2.2-6.54-5.84
		c-5.36,4.64-15.04,4.65-20.4,0c-0.85,3.64-4.03,5.18-6.53,5.84c1.74,3.1,2.38,7.38,2.38,10.8c0,3.07-0.48,6.58-1.72,10.34H41.48z
		 M5.95,33.8c1.38-3.77,1.9-7.29,1.9-10.34c0-1.61-0.13-7.49-2.64-10.31H3.2V33.8H5.95z"/>
</g>
</svg>
