<svg width="12" height="12" viewBox="0 0 12 12" fill="none" xmlns="http://www.w3.org/2000/svg">
<path d="M4.50134 12C4.36949 12 4.23765 11.946 4.14775 11.8559L3.06303 10.7754C2.97314 10.6853 2.9192 10.5593 2.9192 10.4212C2.9192 10.2831 2.97314 10.1571 3.06303 10.067L3.18888 9.94097C3.50052 9.62881 3.48254 9.1966 3.14693 8.86043C2.97913 8.69235 2.76938 8.5963 2.56562 8.5963C2.37984 8.5963 2.20604 8.67434 2.06221 8.81841L1.93636 8.94447C1.84647 9.03452 1.72061 9.08254 1.58278 9.08254C1.44494 9.08254 1.31909 9.02851 1.22919 8.94447L0.144473 7.85793C-0.0353155 7.68384 -0.0473014 7.38369 0.108515 7.18559C0.114508 7.17959 0.120501 7.16758 1.64271 5.64882C1.7326 5.55878 1.86445 5.50475 2.00228 5.50475C2.13413 5.50475 2.26597 5.55878 2.35587 5.64282C2.45175 5.73287 2.4997 5.86493 2.4997 6.003C2.4997 6.14107 2.44576 6.26713 2.35587 6.35718L1.21122 7.50375L1.61274 7.90595C1.89441 7.71386 2.22402 7.61181 2.5776 7.61181C3.05704 7.61181 3.5125 7.8039 3.8541 8.15208C4.46538 8.76438 4.56127 9.71286 4.09382 10.3972L4.49534 10.7994L8.36678 6.92146L8.15104 6.70535C8.06114 6.62131 8.00721 6.48924 8.00721 6.35118C8.00721 6.21311 8.05515 6.08704 8.14504 5.99099C8.23494 5.90095 8.36678 5.84692 8.50462 5.84692C8.64246 5.84692 8.7743 5.90095 8.86419 5.997L9.07994 6.21311L10.7939 4.50225L10.3924 4.10005C10.1107 4.29215 9.78111 4.3942 9.42753 4.3942C8.9481 4.3942 8.49263 4.2021 8.15104 3.85393C7.53976 3.24162 7.44387 2.29315 7.91132 1.6088L7.49781 1.2006L5.78982 2.91146L6.04751 3.16958C6.13741 3.25963 6.19135 3.38569 6.19135 3.52376C6.19135 3.66183 6.1434 3.78789 6.05351 3.88394C5.96361 3.97399 5.83177 4.02201 5.69992 4.02201C5.56209 4.02201 5.43024 3.96798 5.34035 3.87794L5.08265 3.61981L3.39264 5.31866C3.30275 5.4087 3.17091 5.46273 3.03307 5.46273C2.90122 5.46273 2.76938 5.4087 2.67948 5.31866C2.58959 5.23462 2.53565 5.10255 2.54165 4.96448C2.54165 4.82641 2.59558 4.70035 2.68548 4.6103L7.15022 0.138069C7.24011 0.054027 7.36596 0 7.5038 0C7.63564 0 7.76749 0.054027 7.85738 0.138069L8.9421 1.22461C9.12788 1.41071 9.12788 1.74087 8.9421 1.93297L8.81625 2.05903C8.66643 2.2091 8.58852 2.38919 8.59451 2.58729C8.60051 2.78539 8.6904 2.97749 8.8582 3.14557C9.026 3.31366 9.23576 3.4097 9.43952 3.4097C9.6253 3.4097 9.79909 3.33167 9.94292 3.18759L10.0688 3.06153C10.1587 2.97149 10.2845 2.92346 10.4224 2.92346C10.5542 2.92346 10.686 2.97749 10.7759 3.06153L11.8607 4.14807C12.0464 4.33417 12.0464 4.66433 11.8607 4.85643L4.85492 11.8619C4.76503 11.952 4.63917 12 4.50134 12ZM7.5038 5.83492C7.36596 5.83492 7.23412 5.78089 7.14422 5.69085L6.3112 4.85643C6.22131 4.77239 6.16737 4.64032 6.16737 4.50825C6.16737 4.37018 6.21532 4.24412 6.30521 4.14807C6.39511 4.05803 6.52695 4.004 6.66479 4.004C6.80262 4.004 6.93447 4.05803 7.02436 4.15408L7.85738 4.98849C7.94728 5.07854 8.00121 5.2046 8.00121 5.34267C8.00121 5.48074 7.95327 5.6068 7.86337 5.69685C7.76749 5.78089 7.64164 5.83492 7.5038 5.83492Z" fill="white"/>
</svg>
