<?xml version="1.0" encoding="utf-8"?>
<!-- Generator: Adobe Illustrator 24.0.1, SVG Export Plug-In . SVG Version: 6.00 Build 0)  -->
<svg version="1.1" id="Camada_1" xmlns="http://www.w3.org/2000/svg" xmlns:xlink="http://www.w3.org/1999/xlink" x="0px" y="0px"
	 viewBox="0 0 55.19 34.19" style="enable-background:new 0 0 55.19 34.19;" xml:space="preserve">
<style type="text/css">
	.st0{fill:#010202;}
</style>
<g>
	<path class="st0" d="M36.36,12.15V5.73c0-1.13,0.95-2.08,2.08-2.08h4.95c0.87,0,1.56,0.43,1.91,1.13l3.3,6.42
		c0.35,0.69,0.35,1.39-0.09,2.08c-0.43,0.69-1.13,1.04-1.82,1.04h-8.24C37.31,14.32,36.36,13.36,36.36,12.15z M38.44,5.47
		c-0.17,0-0.35,0.17-0.35,0.35v6.42c0,0.17,0.17,0.35,0.35,0.35h8.24c0.17,0,0.35-0.09,0.35-0.17c0-0.09,0.09-0.17,0-0.35l-3.3-6.42
		c-0.09-0.09-0.17-0.17-0.35-0.17H38.44z"/>
	<path class="st0" d="M34.28,28.29c0-3.21,2.69-5.9,5.9-5.9s5.9,2.69,5.9,5.9s-2.69,5.9-5.9,5.9
		C36.97,34.19,34.28,31.59,34.28,28.29z M36.01,28.29c0,2.26,1.91,4.17,4.17,4.17c2.26,0,4.17-1.91,4.17-4.17
		c0-2.26-1.91-4.17-4.17-4.17C37.92,24.12,36.01,26.03,36.01,28.29z"/>
	<path class="st0" d="M6.16,28.29c0-3.21,2.69-5.9,5.9-5.9s5.9,2.69,5.9,5.9s-2.69,5.9-5.9,5.9S6.16,31.59,6.16,28.29z M7.9,28.29
		c0,2.26,1.91,4.17,4.17,4.17s4.17-1.91,4.17-4.17c0-2.26-1.91-4.17-4.17-4.17S7.9,26.03,7.9,28.29z"/>
	<path class="st0" d="M0,27.07V2.08C0,0.95,0.95,0,2.08,0H45.9c0.78,0,1.48,0.35,1.82,1.04l7.2,12.84c0.17,0.35,0.26,0.69,0.26,1.04
		v12.15c0,1.13-0.95,2.08-2.08,2.08h-7.9c-0.52,0-0.87-0.35-0.87-0.87c0-2.26-1.91-4.17-4.17-4.17c-2.26,0-4.17,1.91-4.17,4.17
		c0,0.52-0.35,0.87-0.87,0.87H17.09c-0.52,0-0.87-0.35-0.87-0.87c0-2.26-1.91-4.17-4.17-4.17S7.9,26.03,7.9,28.29
		c0,0.52-0.35,0.87-0.87,0.87H2.08C0.95,29.16,0,28.2,0,27.07z M12.24,22.39c2.95,0,5.38,2.17,5.81,5.03h16.4
		c0.43-2.86,2.86-5.03,5.81-5.03s5.38,2.17,5.81,5.03h7.12c0.17,0,0.35-0.17,0.35-0.35V14.93c0-0.09-0.09-0.09-0.09-0.17l-7.2-12.84
		c-0.09-0.09-0.17-0.17-0.35-0.17H2.08c-0.17,0-0.35,0.17-0.35,0.35v24.99c0,0.17,0.17,0.35,0.35,0.35h4.17
		C6.68,24.56,9.28,22.39,12.24,22.39z"/>
	<path class="st0" d="M3.9,9.81c0-0.17,0-0.26,0.95-4.51c0.26-0.95,1.13-1.65,2.08-1.65h23.17c1.04,0,1.82,0.69,2.08,1.65
		c0.95,4.25,0.95,4.34,0.95,4.51c0,2-2.43,3.47-5.47,3.47c-2,0-3.64-0.61-4.6-1.56c-0.95,0.95-2.6,1.56-4.6,1.56
		s-3.64-0.61-4.6-1.56c-0.95,0.95-2.69,1.56-4.6,1.56C6.25,13.28,3.9,11.8,3.9,9.81z M14.75,9.89c0,0.78,1.65,1.74,3.73,1.74
		s3.73-0.95,3.73-1.74c0-0.52,0.35-0.87,0.87-0.87c0.52,0,0.87,0.35,0.87,0.87c0,0.78,1.65,1.74,3.73,1.74
		c2.08,0,3.64-0.87,3.73-1.65c-0.09-0.26-0.35-1.48-0.95-4.17c0-0.17-0.17-0.26-0.35-0.26H6.86c-0.17,0-1.21,4.08-1.3,4.43
		c0.09,0.78,1.65,1.65,3.73,1.65s3.73-0.95,3.73-1.74c0-0.52,0.35-0.87,0.87-0.87S14.75,9.37,14.75,9.89z"/>
	<rect x="22.21" y="4.6" class="st0" width="1.74" height="5.21"/>
	<rect x="13.02" y="4.6" class="st0" width="1.74" height="5.21"/>
</g>
</svg>
