<?xml version="1.0" encoding="utf-8"?>
<!-- Generator: Adobe Illustrator 24.0.1, SVG Export Plug-In . SVG Version: 6.00 Build 0)  -->
<svg version="1.1" id="Camada_1" xmlns="http://www.w3.org/2000/svg" xmlns:xlink="http://www.w3.org/1999/xlink" x="0px" y="0px"
	 viewBox="0 0 769.23 770.08" style="enable-background:new 0 0 769.23 770.08;" xml:space="preserve">
<g>
	<path d="M421.5,346.7C279.2,302.88,141.15,247.45,0,201.13C0,134.08,0,67.05,0,0l515.98,0.09
		c214.38-2.68,245.09,296.44,66.87,358.6L550.22,608.2c-85.46,0-157.05-44.41-144.24-142.85L421.5,346.7L421.5,346.7z
		 M502.31,617.57c-5.69,44.27-7.67,103.65,30.86,106.82c100.7,8.33,41.47-342.68,180.42-329.65
		c105.17,9.66,31.32,242.86,18.53,305.81l-44.83-7.05c6.02-29.59,63.84-249.77,22.21-253.61c-81.65-7.48-24.42,342.8-180.06,329.84
		c-81.38-6.77-77.79-100.48-69.98-166.98C472.55,609.4,486.99,614.31,502.31,617.57L502.31,617.57z M454.41,444.98h71.4l5.14-39.35
		h-71.39L454.41,444.98z M519.85,490.5h-69.33c2.77,34.68,26.09,56.78,60.16,64.48L519.85,490.5L519.85,490.5z M465.51,360.11h71.39
		l4.88-37.21c85.32-21.79,126.79-88.06,107.82-173.2H314.95c-63.64,0-117.34-44.65-131.33-104.18H45.52V168.4
		c142.53,48.93,281.14,103.07,425.98,145.86L465.51,360.11L465.51,360.11z"/>
</g>
</svg>
