<?xml version="1.0" encoding="utf-8"?>
<!-- Generator: Adobe Illustrator 24.0.1, SVG Export Plug-In . SVG Version: 6.00 Build 0)  -->
<svg version="1.1" id="Camada_1" xmlns="http://www.w3.org/2000/svg" xmlns:xlink="http://www.w3.org/1999/xlink" x="0px" y="0px"
	 viewBox="0 0 64.7 86.7" style="enable-background:new 0 0 64.7 86.7;" xml:space="preserve">
<g>
	<path d="M64.6,84.2l-3-10.8V20.6c0-1.1-0.9-2-2-2h-6.8C51.8,8.2,43,0,32.4,0S12.9,8.2,11.9,18.6H5.1c-1.1,0-2,0.9-2,2v52.8l-3,10.8
		c-0.2,0.6,0,1.2,0.3,1.7s1,0.8,1.6,0.8h60.7c0.6,0,1.2-0.3,1.6-0.8C64.7,85.4,64.8,84.8,64.6,84.2z M32.4,4
		c8.5,0,15.4,6.4,16.4,14.6H15.9C16.9,10.4,23.9,4,32.4,4z M4.6,82.7L7,74.2c0-0.2,0.1-0.4,0.1-0.5V22.6h50.5v51.1
		c0,0.2,0,0.4,0.1,0.5l2.4,8.5H4.6z"/>
	<path d="M43.6,51.5c-5.2,0-8.6,4.2-8.6,9.6c0,5.8,3.7,9.3,8.4,9.3c4.4,0,8.5-3.4,8.5-9.8C51.8,55.3,48.9,51.5,43.6,51.5z
		 M43.5,66.5c-2.1,0-3.2-2.3-3.1-5.5c0-3.1,0.9-5.5,3.1-5.5c2.2,0,3,2.4,3,5.5C46.5,64.4,45.5,66.5,43.5,66.5z"/>
	<polygon points="39.2,38.7 21.6,70.5 25.4,70.5 43.1,38.7 	"/>
	<path d="M29.7,47.8c0-5.2-3-9.1-8.3-9.1c-5.2,0-8.6,4.2-8.6,9.6c0,5.8,3.7,9.3,8.4,9.3C25.6,57.6,29.7,54.3,29.7,47.8z M21.3,53.7
		c-2.1,0-3.2-2.3-3.2-5.5c0-3.1,1-5.5,3.1-5.5c2.2,0,3.1,2.4,3.1,5.5C24.4,51.6,23.4,53.7,21.3,53.7z"/>
</g>
</svg>
