<?xml version="1.0" encoding="utf-8"?>
<!-- Generator: Adobe Illustrator 24.0.1, SVG Export Plug-In . SVG Version: 6.00 Build 0)  -->
<svg version="1.1" id="Camada_1" xmlns="http://www.w3.org/2000/svg" xmlns:xlink="http://www.w3.org/1999/xlink" x="0px" y="0px"
	 viewBox="0 0 90 88.8" style="enable-background:new 0 0 90 88.8;" xml:space="preserve">
<g>
	<path d="M6.8,0.6C6.1,1.3,5.6,2.4,7.2,9c1,3.9,8.4,25.9,11,32.2c5.2,12.8,8.5,12.4,10.4,12.7c0.9,0.1,1.8-0.1,2.6-0.6
		c2.1-1.4,2.8-1.9,3.7-2.4c0.3-0.2,0.6-0.4,1-0.6c2.3,3.8,5.1,9.6,7.9,15.3c3.7,7.6,7.5,15.5,10.6,19.6c1.9,2.6,4.1,3.4,5.5,3.5
		c2.7,0.3,5.5-1.1,7.2-3.7c1.7-2.6,1.7-5.8,0.1-8.2C63.9,71.8,16.5,9.5,9.4,1C8.4-0.2,7.3,0.1,6.8,0.6z M64,83.2
		c-0.9,1.5-2.4,2.3-3.8,2.1c-1.1-0.1-2.2-0.9-3.2-2.2c-2.9-3.8-6.6-11.6-10.3-19c-3.3-6.8-6.5-13.3-9-17.1c-0.3-0.4-0.7-0.7-1.2-0.7
		c-0.4,0-0.8,0-1.1,0.3c-1.1,0.7-3.9,2.4-6.2,3.9c-0.1,0.1-0.2,0.1-0.2,0.1c-1.2,0.6-1.2-0.3-3.2-3C22.6,43.2,13.6,17.8,11,9.5
		C10,6.2,11.1,8,11.8,9c8.5,11,49.2,64.8,52.4,69.6C65.2,80.2,64.8,82,64,83.2z"/>
	<path d="M89.5,17.4c-0.7-0.7-1.7-0.7-2.4,0c-4.4,4.2-8.4,8.4-11.7,11.7c-0.8,0.8-1.6,1.6-2.3,2.3l-3.2-3.2l13.6-13.2
		c0.7-0.7,0.7-1.7,0-2.4c-0.7-0.7-1.7-0.7-2.4,0L67.5,25.7l-3-3L78.1,9.4c0.7-0.7,0.7-1.7,0-2.4c-0.7-0.7-1.7-0.7-2.4,0L62,20.3
		l-3-3L73.9,2.9c0.7-0.7,0.7-1.7,0-2.4c-0.7-0.7-1.7-0.7-2.4,0L54.5,17.1c-4.4,4.2-4,10.5,0.7,16.2l-9.7,9.6c-0.7,0.7-0.7,1.7,0,2.4
		c0.3,0.3,0.6,0.4,0.9,0.5c0.5,0.1,1.1-0.1,1.5-0.5l9.7-9.6c1.9,1.6,4.2,2.6,6.6,3c0.3,0.1,0.6,0.1,0.9,0.1c3.1,0.3,5.9-0.6,7.8-2.4
		c1.2-1.1,2.9-2.9,5-5c3.3-3.3,7.3-7.4,11.6-11.6C90.2,19.2,90.2,18.1,89.5,17.4z M65.4,35.4c-2.4-0.2-4.7-1.4-6.5-3.2
		c-3.5-3.6-5.9-8.7-2.3-12.5l14.1,14.1c-0.1,0.1-0.2,0.1-0.2,0.2C69.4,35.1,67.4,35.6,65.4,35.4z"/>
	<path d="M37.8,58.4c-0.7-0.6-1.8-0.6-2.4,0.1C28.5,66.2,16,79.9,11.8,83.6c-2.1,1.9-5.4,1.1-7.2-0.8c-1.8-2-1.6-4.4,0.8-6.8
		c5.9-6,14.6-12.8,21.2-17.8c0.8-0.6,0.9-1.6,0.3-2.4c-0.6-0.8-1.6-0.9-2.4-0.3C17.9,60.6,9,67.6,3,73.7c-4.4,4.5-3.2,9-0.8,11.5
		c1.4,1.4,3.3,2.4,5.3,2.8c2.3,0.4,4.7-0.1,6.6-1.8c4.9-4.3,18.9-19.8,23.8-25.4C38.5,60.1,38.5,59,37.8,58.4z"/>
</g>
</svg>
