<?xml version="1.0" encoding="utf-8"?>
<!-- Generator: Adobe Illustrator 24.0.1, SVG Export Plug-In . SVG Version: 6.00 Build 0)  -->
<svg version="1.1" id="Camada_1" xmlns="http://www.w3.org/2000/svg" xmlns:xlink="http://www.w3.org/1999/xlink" x="0px" y="0px"
	 viewBox="0 0 35.25 74.38" style="enable-background:new 0 0 35.25 74.38;" xml:space="preserve">
<path d="M17.52,0.62C8.29,0.68,0.77,8.33,0.77,17.68v9.69c0,0.86,0.7,1.55,1.55,1.55h7.15c1.6,0,3.02,1.06,3.45,2.59
	c0.72,2.53,4.47,2.01,4.48-0.61c0-2.86,0-1.87,0-2.09c0-3.45,2.81-6.25,6.26-6.25c3.45,0,6.25,2.81,6.25,6.25V36
	c0,1.26,1.02,2.28,2.28,2.28s2.28-1.02,2.28-2.28V17.48c0-9.29-7.56-16.85-16.85-16.85L17.52,0.62z M22,3.73
	c0.35,0,0.69,0.17,0.91,0.58l1.42,2.54c0.73,1.3-1.23,2.36-1.94,1.09l-1.42-2.53C20.48,4.51,21.24,3.72,22,3.73L22,3.73z M8.4,7.43
	c0.88-0.04,1.66,1.1,0.85,1.92L7.4,11.19c-1.03,1.03-2.63-0.52-1.57-1.57l1.84-1.84C7.9,7.54,8.15,7.44,8.4,7.43L8.4,7.43z
	 M16.17,16.15c0.56,0,1.11,0.37,1.11,1.1v2.32c0,1.47-2.23,1.47-2.23,0v-2.32C15.06,16.52,15.61,16.15,16.17,16.15L16.17,16.15z
	 M28.5,16.37c0.25,0.01,0.5,0.11,0.73,0.34l1.84,1.84c1.06,1.06-0.55,2.6-1.57,1.57l-1.84-1.84C26.84,17.47,27.63,16.33,28.5,16.37
	L28.5,16.37z M5.93,22.63c0.35,0,0.69,0.18,0.91,0.58l1.42,2.53c0.73,1.3-1.23,2.36-1.94,1.09L4.9,24.29
	C4.4,23.41,5.17,22.62,5.93,22.63L5.93,22.63z M1.11,33.15c-0.56,0-1.11,0.37-1.11,1.1v13.99c0,3.82,3.11,6.93,6.93,6.93h5.26v13.78
	c0,3,2.44,5.43,5.43,5.43s5.43-2.44,5.43-5.43V55.17h5.26c3.82,0,6.93-3.11,6.93-6.93v-4.82c0-1.47-2.23-1.47-2.23,0v4.82
	c0,2.59-2.11,4.7-4.7,4.7H6.93c-2.59,0-4.7-2.11-4.7-4.7V34.25C2.23,33.52,1.67,33.15,1.11,33.15L1.11,33.15z M14.42,55.17h6.41
	v13.78c0,1.77-1.44,3.21-3.21,3.21c-1.77,0-3.21-1.44-3.21-3.21L14.42,55.17z"/>
</svg>
