<?xml version="1.0" encoding="utf-8"?>
<!-- Generator: Adobe Illustrator 24.0.1, SVG Export Plug-In . SVG Version: 6.00 Build 0)  -->
<svg version="1.1" id="Camada_1" xmlns="http://www.w3.org/2000/svg" xmlns:xlink="http://www.w3.org/1999/xlink" x="0px" y="0px"
	 viewBox="0 0 47 24" style="enable-background:new 0 0 47 24;" xml:space="preserve">
<path d="M4.84,11.43c0.31,0.52,0.85,0.86,1.46,0.91c0.73-0.02,1.4-0.4,1.81-1c0.81-1.08,2.09-1.71,3.44-1.71
	c1.23,0.08,2.34,0.73,3,1.77c0.31,0.52,0.85,0.86,1.46,0.91c0.73-0.02,1.41-0.39,1.81-1c0.81-1.08,2.09-1.71,3.44-1.71
	c1.23,0.08,2.34,0.73,3,1.77c0.31,0.52,0.85,0.86,1.46,0.91c0.73-0.03,1.4-0.4,1.81-1c0.81-1.09,2.09-1.72,3.44-1.71
	c1.23,0.08,2.34,0.73,3,1.77c0.31,0.52,0.85,0.86,1.46,0.91c0.73-0.03,1.4-0.4,1.81-1c0.81-1.08,2.09-1.71,3.44-1.71
	c1.23,0.08,2.34,0.73,3,1.77c0.31,0.52,0.85,0.86,1.46,0.91c0.66-0.01,1.27-0.32,1.68-0.83c-0.25-2.02-1.97-3.53-4-3.51H4
	c-1.35,0-2.6,0.68-3.34,1.81c0.37-0.11,0.76-0.16,1.15-0.15C3.07,9.63,4.2,10.34,4.84,11.43z M42.17,12.56
	c-0.31-0.52-0.85-0.86-1.46-0.91c-0.73,0.03-1.4,0.4-1.81,1c-0.81,1.08-2.09,1.72-3.44,1.71c-1.23-0.08-2.34-0.73-3-1.77
	c-0.31-0.52-0.85-0.86-1.46-0.91c-0.73,0.03-1.4,0.4-1.81,1c-0.81,1.08-2.09,1.72-3.44,1.71c-1.23-0.08-2.34-0.73-3-1.77
	c-0.31-0.52-0.85-0.86-1.46-0.91c-0.73,0.02-1.4,0.4-1.81,1c-0.81,1.09-2.09,1.72-3.44,1.71c-1.23-0.08-2.34-0.73-3-1.77
	c-0.31-0.52-0.85-0.86-1.46-0.91c-0.73,0.03-1.4,0.4-1.81,1c-0.81,1.08-2.09,1.72-3.44,1.71c-1.23-0.08-2.34-0.73-3-1.77
	c-0.31-0.52-0.85-0.86-1.46-0.91c-0.66,0.01-1.27,0.32-1.68,0.83c0.25,2.02,1.97,3.53,4,3.51h39c1.35,0,2.6-0.68,3.34-1.81
	c-0.37,0.11-0.76,0.16-1.15,0.15c-1.33-0.03-2.54-0.74-3.22-1.88L42.17,12.56z"/>
<path d="M44.08,9H2.92C1.31,9,0,7.69,0,6.08c0,0,0,0,0,0V5.79C0.01,2.59,2.59,0.01,5.79,0h35.42c3.2,0.01,5.78,2.59,5.79,5.79v0.29
	C47,7.69,45.69,9,44.08,9L44.08,9z M5.79,2C3.7,2.01,2.01,3.7,2,5.79v0.29C2,6.59,2.41,7,2.92,7l0,0h41.17
	c0.51,0,0.92-0.41,0.92-0.92v0V5.79C45,3.7,43.31,2.01,41.22,2H5.79L5.79,2z"/>
<path d="M41.21,24H5.79c-3.2-0.01-5.78-2.59-5.79-5.79v-0.29C0,16.31,1.31,15,2.92,15l0,0h41.17c1.61,0,2.92,1.31,2.92,2.92
	c0,0,0,0,0,0v0.29C47,21.41,44.41,24,41.21,24z M2.92,17C2.41,17,2,17.41,2,17.92v0v0.29C2.01,20.3,3.7,21.99,5.79,22h35.42
	c2.09-0.01,3.78-1.7,3.79-3.79v-0.29c0-0.51-0.41-0.92-0.92-0.92l0,0H2.92L2.92,17z"/>
</svg>
