<?xml version="1.0" encoding="utf-8"?>
<!-- Generator: Adobe Illustrator 24.0.1, SVG Export Plug-In . SVG Version: 6.00 Build 0)  -->
<svg version="1.1" id="Camada_1" xmlns="http://www.w3.org/2000/svg" xmlns:xlink="http://www.w3.org/1999/xlink" x="0px" y="0px"
	 viewBox="0 0 57.2 55.9" style="enable-background:new 0 0 57.2 55.9;" xml:space="preserve">
<path d="M0.7,32.4C-1.4,27,1.3,21,6.6,19C8,9.3,15.6,1.7,25.3,0.2C37.5-1.6,48.8,6.8,50.6,19c2.5,1,4.6,2.9,5.7,5.4
	c2.4,5.2,0.1,11.3-5.2,13.7l-3,14.6c-12.7,4.2-26.4,4.2-39.1,0L6,38.1C3.6,37,1.6,34.9,0.7,32.4z M28.6,33.8
	c2.9,3.1,7.7,3.4,10.9,0.5c0.4-0.4,0.8-0.8,1.1-1.3c2.4,3.5,7.2,4.3,10.7,1.9s4.3-7.2,1.9-10.7c-1.2-1.7-3-2.8-5-3.2
	c-0.7-10.8-10-19-20.8-18.4C17.5,3.3,9.6,11.2,9,21.1c-4.2,0.7-7,4.7-6.3,8.9c0.7,4.2,4.7,7,8.9,6.3c2-0.3,3.8-1.5,5-3.2
	c2.4,3.5,7.2,4.3,10.7,1.9C27.8,34.6,28.2,34.2,28.6,33.8z M39.5,52.2c2.1-0.4,4.3-0.9,6.4-1.6l2.4-11.7c-2.7,0.4-5.5-0.4-7.7-2
	c-3.5,2.7-8.3,2.9-12,0.4c-3.7,2.4-8.5,2.2-12-0.4c-2.2,1.7-5,2.4-7.7,2l2.4,11.7c2.1,0.6,4.2,1.2,6.4,1.6L16.3,41
	c-0.1-0.7,0.4-1.3,1.1-1.4c0.7-0.1,1.3,0.4,1.4,1.1l1.5,12c2.3,0.3,4.7,0.5,7,0.6V40.7c0-0.7,0.6-1.3,1.3-1.3c0.7,0,1.3,0.6,1.3,1.3
	v12.5c2.4-0.1,4.7-0.2,7-0.6l1.5-12c0.1-0.7,0.7-1.2,1.4-1.1c0.7,0.1,1.2,0.7,1.1,1.4L39.5,52.2z"/>
</svg>
