<?xml version="1.0" encoding="utf-8"?>
<!-- Generator: Adobe Illustrator 24.0.1, SVG Export Plug-In . SVG Version: 6.00 Build 0)  -->
<svg version="1.1" id="Camada_1" xmlns="http://www.w3.org/2000/svg" xmlns:xlink="http://www.w3.org/1999/xlink" x="0px" y="0px"
	 viewBox="0 0 54.95 25.28" style="enable-background:new 0 0 54.95 25.28;" xml:space="preserve">
<path d="M54.95,15.25C54.9,14.62,53.31,0,27.48,0C1.7,0,0.06,14.62,0.01,15.24L0,15.39c0,9.89,9.26,9.89,15.39,9.89h24.18
	c6.13,0,15.39,0,15.39-9.89L54.95,15.25z M39.57,21.99H15.39c-8.31,0-12.05-0.94-12.09-6.5c0.12-0.86,1.45-8.01,12.94-10.94
	l-2.03,6.66c-0.27,0.87,0.22,1.79,1.1,2.06c0.16,0.05,0.32,0.07,0.48,0.07c0.71,0,1.36-0.46,1.58-1.17l2.55-8.35
	c2.09-0.31,4.44-0.49,7.08-0.51l-2.41,7.9c-0.27,0.87,0.22,1.79,1.1,2.06c0.16,0.05,0.32,0.07,0.48,0.07c0.71,0,1.36-0.46,1.58-1.17
	l2.66-8.73c0.01-0.02,0.01-0.05,0.01-0.07c2.51,0.12,4.73,0.4,6.69,0.8l-2.15,7.04c-0.27,0.87,0.22,1.79,1.09,2.06
	c0.16,0.05,0.32,0.07,0.48,0.07c0.71,0,1.36-0.46,1.58-1.17l2.19-7.19c10.12,3.16,11.27,9.74,11.37,10.5
	C51.62,21.04,47.89,21.99,39.57,21.99z"/>
</svg>
