<?xml version="1.0" encoding="utf-8"?>
<!-- Generator: Adobe Illustrator 24.0.1, SVG Export Plug-In . SVG Version: 6.00 Build 0)  -->
<svg version="1.1" id="Camada_1" xmlns="http://www.w3.org/2000/svg" xmlns:xlink="http://www.w3.org/1999/xlink" x="0px" y="0px"
	 viewBox="0 0 74.93 90" style="enable-background:new 0 0 74.93 90;" xml:space="preserve">
<path d="M72.96,8.1C61.84,2.73,49.9,0,37.46,0C25.03,0,13.08,2.73,1.97,8.1c-1.73,0.84-2.46,2.93-1.62,4.66
	c0.84,1.74,2.93,2.46,4.66,1.62c10.16-4.91,21.08-7.41,32.45-7.41c11.38,0,22.3,2.49,32.46,7.41c0.49,0.24,1.01,0.35,1.52,0.35
	c1.3,0,2.54-0.73,3.14-1.97C75.42,11.03,74.69,8.94,72.96,8.1z"/>
<path d="M68.72,15.91c-9.79-4.73-20.31-7.14-31.26-7.14c-10.95,0-21.47,2.4-31.26,7.14c-1.69,0.82-2.43,2.83-1.67,4.55l29.74,67.46
	c0.56,1.27,1.81,2.08,3.19,2.08c1.38,0,2.63-0.82,3.19-2.08L70.4,20.46C71.15,18.74,70.41,16.73,68.72,15.91z M48.96,51.78
	c-1.33-2.81-4.18-4.76-7.49-4.76c-4.58,0-8.29,3.71-8.29,8.29c0,4.58,3.71,8.29,8.29,8.29c0.85,0,1.67-0.13,2.45-0.37l-6.45,14.64
	L21.04,40.6c0.71,0.19,1.45,0.31,2.22,0.31c4.58,0,8.29-3.71,8.29-8.29s-3.71-8.29-8.29-8.29c-3.23,0-6.02,1.85-7.39,4.54
	l-3.56-8.07c7.95-3.35,16.4-5.05,25.15-5.05c1.87,0,3.72,0.09,5.57,0.25c-1.59,1.51-2.58,3.64-2.58,6c0,4.58,3.71,8.29,8.29,8.29
	s8.29-3.71,8.29-8.29c0-1.25-0.28-2.43-0.78-3.49c2.15,0.65,4.28,1.41,6.37,2.29L48.96,51.78z"/>
</svg>
