<svg width="12" height="12" viewBox="0 0 12 12" fill="none" xmlns="http://www.w3.org/2000/svg">
<path fill-rule="evenodd" clip-rule="evenodd" d="M2.63396 3.04021C2.07896 3.04021 1.64396 3.47944 1.64396 4.04043C1.64396 4.60082 2.07896 5.04005 2.63396 5.04005C3.18956 5.04005 3.62456 4.60082 3.62456 4.04043C3.62456 3.47944 3.18956 3.04021 2.63396 3.04021ZM6.3882 1.99456C5.5566 1.99456 4.8798 2.67793 4.8798 3.51761C4.8798 4.35728 5.5566 5.04005 6.3882 5.04005C7.2204 5.04005 7.8966 4.35728 7.8966 3.51761C7.8966 2.67793 7.2204 1.99456 6.3882 1.99456ZM10.8738 9.64069V6.54431L9.41097 7.30886V8.87553L10.8738 9.64069ZM1.12566 9.87636H8.28486V6.30804H1.12566V9.87636ZM11.4366 11.1431C11.3472 11.1431 11.2584 11.1213 11.1786 11.0801L9.411 10.155V10.4452C9.411 10.7584 9.1584 11.0135 8.8476 11.0135H0.5628C0.2526 11.0135 0 10.7584 0 10.4452V5.73977C0 5.42596 0.2526 5.1709 0.5628 5.1709H0.8436C0.6318 4.83225 0.5184 4.44149 0.5184 4.04043C0.5184 2.8621 1.4676 1.90308 2.634 1.90308C3.1308 1.90308 3.615 2.08604 3.9966 2.41258C4.4232 1.47234 5.3538 0.857422 6.3882 0.857422C7.8414 0.857422 9.0222 2.0509 9.0222 3.5176C9.0222 4.11798 8.8158 4.70199 8.445 5.1709L8.9064 5.17211C9.1962 5.20241 9.4128 5.44716 9.411 5.74099V6.02936L11.1786 5.10487C11.2512 5.0661 11.3346 5.04368 11.4186 5.04005C11.7474 5.04005 12 5.2951 12 5.60892V10.5755C11.9994 10.6657 11.9778 10.7548 11.9382 10.8342C11.8404 11.025 11.6484 11.1431 11.4366 11.1431Z" fill="white"/>
</svg>
