<?xml version="1.0" encoding="UTF-8"?>
<svg width="17px" height="17px" viewBox="0 0 17 17" version="1.1" xmlns="http://www.w3.org/2000/svg" xmlns:xlink="http://www.w3.org/1999/xlink">
    <!-- Generator: Sketch 59.1 (86144) - https://sketch.com -->
    <title>restaurante</title>
    <desc>Created with Sketch.</desc>
    <g id="Page-2" stroke="none" stroke-width="1" fill="none" fill-rule="evenodd">
        <g id="Home" transform="translate(-53.000000, -287.000000)" fill="#30287B">
            <g id="Start" transform="translate(0.000000, 64.000000)">
                <g transform="translate(24.000000, 24.000000)" id="Group-28">
                    <g transform="translate(0.000000, 150.000000)">
                        <g id="Group-17" transform="translate(0.000000, 34.000000)">
                            <g id="Group-9">
                                <g id="iconRestaurante" transform="translate(14.166667, 0.000000)">
                                    <g id="Fill-1.1" transform="translate(15.166667, 15.166667)">
                                        <path d="M5.04561508,6.07763333 C4.84487909,6.07763333 4.65798555,5.98453333 4.5446326,5.82936667 L1.62792768,1.89875 C1.53448296,1.77216667 1.49900912,1.61945 1.52842535,1.46755 C1.55611434,1.31565 1.64523279,1.18416871 1.77934534,1.09596871 C1.88230828,1.02818537 2.00257429,0.992252042 2.12804245,0.992252042 C2.32704302,0.992252042 2.51479406,1.08453538 2.6290045,1.23888333 L5.54571963,5.17113333 C5.6183823,5.27076667 5.65560176,5.38428333 5.65560176,5.5027 C5.65560176,5.65623333 5.59243281,5.80078333 5.47736486,5.9094 C5.3622765,6.01801667 5.20827411,6.07763333 5.04647257,6.07763333 L5.04561508,6.07763333 Z M10.447316,8.69696917 C10.2924561,8.69696917 10.1453545,8.6422525 10.0320015,8.54261917 C9.91174778,8.43726917 9.84251509,8.2943525 9.83820719,8.14081917 C9.83214346,7.98728583 9.8909841,7.8411025 10.0026016,7.7284025 C10.0917201,7.6451025 10.1799606,7.5740525 10.2708145,7.50708583 C10.6065246,7.2653525 11.0054037,7.1012025 11.4224535,7.0326025 C12.3248875,6.89213583 13.378731,6.1702025 14.1072769,5.19428583 C14.6653442,4.48786917 15.008833,3.65568583 15.1014223,2.78348583 C15.1490134,2.1228025 14.9629774,1.61076067 14.5779612,1.35106067 C14.3875968,1.222844 14.1522547,1.15832733 13.8788356,1.15832733 C13.6011086,1.15832733 13.2930834,1.22447733 12.9642945,1.355144 C12.1302153,1.71937733 11.4094685,2.2967525 10.8877224,3.02113583 C10.1366978,4.01583583 9.7663816,5.16243583 9.918669,6.01911917 C9.98788127,6.4225525 9.95068223,6.83986917 9.80964437,7.22533583 C9.72658965,7.45726917 9.49557585,7.61488583 9.23252841,7.61488583 C9.16676655,7.61488583 9.10014719,7.60426917 9.03526324,7.5838525 C8.88211834,7.5348525 8.75665835,7.43113583 8.68571068,7.29311917 C8.61302759,7.1551025 8.60263554,6.9983025 8.65543286,6.85293583 C8.73068844,6.64468583 8.75059462,6.42173583 8.71513099,6.20776917 C8.50747378,5.0481025 8.94700229,3.6075025 9.89184159,2.35718583 C10.5399052,1.462944 11.4380109,0.749177333 12.4884041,0.295927333 C12.9746662,0.101561279 13.4427575,0.00437794583 13.8866347,0.00437794583 C14.4170171,0.00437794583 14.8894368,0.141577946 15.2909087,0.411894 C16.0280908,0.910060667 16.3949567,1.78226067 16.3248665,2.86678583 C16.2123915,3.9578525 15.7910133,4.9917525 15.1040152,5.86558583 C14.1574609,7.11263583 12.8578628,7.97421917 11.6300903,8.16776917 C11.4085906,8.20451917 11.1957476,8.29271917 11.0183886,8.42256917 C10.9578126,8.46421917 10.9058932,8.50423583 10.8574446,8.5467025 C10.7406412,8.64551917 10.5970105,8.69696917 10.447316,8.69696917 Z M4.44177379,16.3333333 C4.10865658,16.3333333 3.78764642,16.2402333 3.51251235,16.06465 C3.12143242,15.8180167 2.85666998,15.4243833 2.78484439,14.9858333 C2.71216131,14.5521833 2.83070007,14.1013833 3.11449078,13.75185 L5.73702315,10.5407167 C5.85382651,10.3986167 6.03034841,10.31695 6.21983485,10.31695 C6.35654439,10.31695 6.48545479,10.3586 6.5936015,10.437 C6.72167482,10.5317333 6.80472954,10.6681167 6.82635072,10.8208333 C6.8471144,10.97355 6.80213663,11.1238167 6.70350405,11.2455 L4.08182917,14.455 C4.00481776,14.5513667 3.97108955,14.6714167 3.9883824,14.7922833 C4.00655318,14.9139667 4.07317253,15.02095 4.17701135,15.0952667 C4.27564393,15.1597833 4.36302697,15.1842833 4.45214542,15.1842833 C4.48415864,15.1842833 4.51617187,15.1810167 4.5464701,15.1753 C4.69528668,15.1467167 4.82248208,15.0666833 4.9055368,14.9482667 L6.80299413,12.2116167 C6.91979748,12.0507333 7.10928393,11.9568167 7.30916242,11.9568167 C7.432887,11.9568167 7.55142576,11.9911167 7.65352917,12.0572667 C7.80926697,12.1577167 7.90097833,12.3120667 7.91741369,12.4754 L8.07921523,12.4754 L5.91873087,15.5787333 C5.65829675,15.9495 5.24383982,16.2132833 4.78181222,16.3014833 C4.66933718,16.3219 4.55857714,16.3333333 4.44522419,16.3333333 L4.44177379,16.3333333 Z M12.1292965,16.3333333 C12.0271931,16.3333333 11.9268251,16.32435 11.8273146,16.3072 C11.3877861,16.2328833 10.9932354,15.9870667 10.7457862,15.63345 L5.45139495,8.13073333 C5.40553927,8.13318333 5.3579686,8.134 5.3094996,8.134 C4.51954061,8.134 3.76939398,7.77221667 3.30734596,7.16625 L0.115499616,2.95796667 C-0.0869654526,2.67785 -0.0142856727,2.31933333 0.263453799,2.14048333 C0.364687457,2.07515 0.484089844,2.04085 0.605223559,2.04085 C0.807686791,2.04085 0.996309611,2.13395 1.11052006,2.29156667 L4.29459053,6.48678333 C4.52733975,6.79221667 4.90717013,6.97515 5.30778461,6.97515 C5.34498365,6.97515 5.52062764,6.96535 5.52062764,6.96535 C5.87710143,6.96535 6.20848322,7.13276667 6.40574839,7.41206667 L11.7650236,14.9972667 C11.8766411,15.13365 12.0012232,15.19 12.1344823,15.19 C12.2357078,15.19 12.3282971,15.1597833 12.406166,15.1001667 C12.5956524,14.9588833 12.6268082,14.6983667 12.4762562,14.5203333 L6.56842784,7.30835 C6.33049281,7.01271667 6.28461672,6.62235 6.44556076,6.2867 C6.62294016,5.9094 6.57620656,5.46431667 6.32095826,5.12703333 L3.12737365,0.917116667 C3.02269775,0.773383333 2.98894912,0.620666667 3.01922693,0.468766667 C3.04950475,0.3185 3.14035861,0.187016667 3.27533273,0.10045 C3.37657864,0.0351166667 3.4959749,0 3.61884199,0 C3.81957797,0 4.00906442,0.0939166667 4.12327486,0.250716667 L7.31598156,4.45655 C7.80397908,5.10416667 7.90867539,5.95105 7.59458645,6.68441667 L13.4357954,13.8131 C13.6581526,14.0842333 13.7818772,14.4223333 13.7827619,14.7653333 C13.785348,15.6269167 13.0429801,16.3308833 12.130154,16.3333333 L12.1292965,16.3333333 Z" id="restaurante"></path>
                                    </g>
                                </g>
                            </g>
                        </g>
                    </g>
                </g>
            </g>
        </g>
    </g>
</svg>