<?xml version="1.0" encoding="UTF-8"?>
<svg width="12px" height="12px" viewBox="0 0 12 12" version="1.1" xmlns="http://www.w3.org/2000/svg" xmlns:xlink="http://www.w3.org/1999/xlink">
    <!-- Generator: Sketch 61 (89581) - https://sketch.com -->
    <title>Ico - Petshop</title>
    <desc>Created with Sketch.</desc>
    <g id="Page-1" stroke="none" stroke-width="1" fill="none" fill-rule="evenodd">
        <g id="Ico---Petshop" fill="#30287B" fill-rule="nonzero">
            <path d="M7.998,3.51077 C8.736,3.51077 9.33,2.92568 9.33,2.19875 C9.33,1.47181 8.736,0.886719 7.998,0.886719 C7.26,0.886719 6.666,1.47181 6.666,2.19875 C6.666,2.92568 7.266,3.51077 7.998,3.51077 Z M2.664,4.82871 C2.664,4.10178 2.07,3.51668 1.332,3.51668 C0.594,3.51668 0,4.10178 0,4.82871 C0,5.55565 0.594,6.14074 1.332,6.14074 C2.07,6.14074 2.664,5.54974 2.664,4.82871 Z M10.668,3.51077 C9.93,3.51077 9.336,4.09587 9.336,4.8228 C9.336,5.54974 9.93,6.13483 10.668,6.13483 C11.406,6.13483 12,5.54974 12,4.8228 C12,4.09587 11.406,3.51077 10.668,3.51077 Z M4.002,3.51077 C4.74,3.51077 5.334,2.92568 5.334,2.19875 C5.334,1.47181 4.734,0.886719 4.002,0.886719 C3.27,0.886719 2.664,1.47181 2.664,2.19875 C2.664,2.92568 3.264,3.51077 4.002,3.51077 Z M6,4.1727 C4.896,4.1727 3.906,4.84644 3.51,5.86888 C3.402,6.14074 3.204,6.37714 2.946,6.5308 C2.034,7.07452 1.542,8.10287 1.692,9.13713 C1.878,10.4314 3.006,11.3948 4.332,11.3888279 C4.722,11.3888279 5.112,11.3002 5.466,11.1347 C5.802,10.9751 6.198,10.9751 6.534,11.1347 C6.888,11.3061 7.272,11.3888279 7.668,11.3888279 C8.994,11.3888279 10.122,10.4314 10.308,9.13713 C10.458,8.09696 9.966,7.06861 9.054,6.5308 C8.796,6.37714 8.598,6.14074 8.49,5.86297 C8.094,4.84644 7.104,4.1727 6,4.1727 Z" id="Shape"></path>
        </g>
    </g>
</svg>