<?xml version="1.0" encoding="utf-8"?>
<!-- Generator: Adobe Illustrator 24.0.1, SVG Export Plug-In . SVG Version: 6.00 Build 0)  -->
<svg version="1.1"
	 id="Camada_1" xmlns:cc="http://creativecommons.org/ns#" xmlns:dc="http://purl.org/dc/elements/1.1/" xmlns:inkscape="http://www.inkscape.org/namespaces/inkscape" xmlns:rdf="http://www.w3.org/1999/02/22-rdf-syntax-ns#" xmlns:sodipodi="http://sodipodi.sourceforge.net/DTD/sodipodi-0.dtd" xmlns:svg="http://www.w3.org/2000/svg"
	 xmlns="http://www.w3.org/2000/svg" xmlns:xlink="http://www.w3.org/1999/xlink" x="0px" y="0px" viewBox="0 0 96.2 96.2"
	 style="enable-background:new 0 0 96.2 96.2;" xml:space="preserve">
<g transform="translate(0,-952.36218)">
	<path d="M0,1013.2l2.1,2.1l7.8,7.8l2.1,2.1l2.1-2.1c3.1-3.1,8.2-3.1,11.3,0c3.1,3.1,3.1,8.2,0,11.3l-2.1,2.1l2.1,2.1l7.8,7.8
		l2.1,2.1l2.1-2.1L94,989.8l2.1-2.1l-2.1-2.1l-7.8-7.8l-2.1-2.1l-2.1,2.1c-3.1,3.1-8.2,3.1-11.3,0c-3.1-3.1-3.1-8.2,0-11.3l2.1-2.1
		l-2.1-2.1l-7.8-7.8l-2.1-2.1l-2.1,2.1l-56.6,56.6C2.1,1011.1,0,1013.2,0,1013.2z M8.5,1013.2l34.6-34.6l3.5,3.5l4.2-4.2l-3.5-3.5
		l13.4-13.4l3.8,3.8c-3.5,5.4-2.8,12.7,1.9,17.4c4.7,4.7,12,5.3,17.4,1.9l3.8,3.8l-13.4,13.4l-3.5-3.5l-4.2,4.2l3.5,3.5L35.4,1040
		l-3.8-3.8c3.5-5.4,2.9-12.7-1.9-17.4c-4.7-4.7-12-5.3-17.4-1.9L8.5,1013.2L8.5,1013.2z M49.5,984.9"/>
	<polygon points="57,984.9 62.6,990.5 58.5,994.6 52.8,988.9 	"/>
</g>
</svg>
