<?xml version="1.0" encoding="UTF-8"?>
<svg width="19px" height="19px" viewBox="0 0 19 19" version="1.1" xmlns="http://www.w3.org/2000/svg" xmlns:xlink="http://www.w3.org/1999/xlink">
    <!-- Generator: Sketch 60.1 (88133) - https://sketch.com -->
    <title>center</title>
    <desc>Created with Sketch.</desc>
    <g id="Page-3" stroke="none" stroke-width="1" fill="none" fill-rule="evenodd">
        <g id="HomeMap" transform="translate(-307.000000, -515.000000)" fill="#30287B">
            <g id="Buttons" transform="translate(288.000000, 94.000000)">
                <g id="Center" transform="translate(6.000000, 408.000000)">
                    <g id="location" transform="translate(12.857143, 12.857143)">
                        <g id="Group">
                            <path d="M10,6.72727273 C8.19181818,6.72727273 6.72727273,8.19181818 6.72727273,10 C6.72727273,11.8081818 8.19181818,13.2727273 10,13.2727273 C11.8081818,13.2727273 13.2727273,11.8081818 13.2727273,10 C13.2727273,8.19181818 11.8081818,6.72727273 10,6.72727273 L10,6.72727273 Z M17.3145455,9.18181818 C16.9381818,5.77 14.23,3.06181818 10.8181818,2.68545455 L10.8181818,1 L9.18181818,1 L9.18181818,2.68545455 C5.77,3.06181818 3.06181818,5.77 2.68545455,9.18181818 L1,9.18181818 L1,10.8181818 L2.68545455,10.8181818 C3.06181818,14.23 5.77,16.9381818 9.18181818,17.3145455 L9.18181818,19 L10.8181818,19 L10.8181818,17.3145455 C14.23,16.9381818 16.9381818,14.23 17.3145455,10.8181818 L19,10.8181818 L19,9.18181818 L17.3145455,9.18181818 L17.3145455,9.18181818 Z M10,15.7272727 C6.83363636,15.7272727 4.27272727,13.1663636 4.27272727,10 C4.27272727,6.83363636 6.83363636,4.27272727 10,4.27272727 C13.1663636,4.27272727 15.7272727,6.83363636 15.7272727,10 C15.7272727,13.1663636 13.1663636,15.7272727 10,15.7272727 L10,15.7272727 Z" id="center"></path>
                        </g>
                    </g>
                </g>
            </g>
        </g>
    </g>
</svg>