<?xml version="1.0" encoding="UTF-8"?>
<svg width="17px" height="14px" viewBox="0 0 17 14" version="1.1" xmlns="http://www.w3.org/2000/svg" xmlns:xlink="http://www.w3.org/1999/xlink">
    <!-- Generator: Sketch 61 (89581) - https://sketch.com -->
    <title>checklist</title>
    <desc>Created with Sketch.</desc>
    <g id="Page-1" stroke="none" stroke-width="1" fill="none" fill-rule="evenodd">
        <g id="Desafio" transform="translate(-27.000000, -785.000000)" fill="#30287B" fill-rule="nonzero">
            <g id="Group-5" transform="translate(27.000000, 781.000000)">
                <path d="M6.90674283,7.24136335 L16.4687759,7.24136335 C16.7609492,7.24136335 17,7.00804352 17,6.72287483 L17,5.42665355 C17,5.14148487 16.7609492,4.90816504 16.4687759,4.90816504 L6.90674283,4.90816504 C6.6145696,4.90816504 6.37551877,5.14148487 6.37551877,5.42665355 L6.37551877,6.72287483 C6.37551877,7.00804352 6.6145696,7.24136335 6.90674283,7.24136335 Z M6.90674283,12.4262485 L16.4687759,12.4262485 C16.7609492,12.4262485 17,12.1929286 17,11.90776 L17,10.6115387 C17,10.32637 16.7609492,10.0930502 16.4687759,10.0930502 L6.90674283,10.0930502 C6.6145696,10.0930502 6.37551877,10.32637 6.37551877,10.6115387 L6.37551877,11.90776 C6.37551877,12.1929286 6.6145696,12.4262485 6.90674283,12.4262485 Z M6.90674283,17.6111336 L16.4687759,17.6111336 C16.7609492,17.6111336 17,17.3778138 17,17.0926451 L17,15.7964238 C17,15.5112551 16.7609492,15.2779353 16.4687759,15.2779353 L6.90674283,15.2779353 C6.6145696,15.2779353 6.37551877,15.5112551 6.37551877,15.7964238 L6.37551877,17.0926451 C6.37551877,17.3778138 6.6145696,17.6111336 6.90674283,17.6111336 Z M2.12572628,14.8890689 C1.24588643,14.8890689 0.512133197,15.5857879 0.512133197,16.4445345 C0.512133197,17.3032811 1.24588643,18 2.12572628,18 C3.00556613,18 3.71939847,17.3032811 3.71939847,16.4445345 C3.71939847,15.5857879 3.00556613,14.8890689 2.12572628,14.8890689 Z M5.19686539,5.19981483 L2.79971681,7.53949424 L2.28177335,8.04502054 C2.12572628,8.19732654 1.85347395,8.19732654 1.69742688,8.04502054 L0.117035301,6.50899832 C-0.039011767,6.35669232 -0.039011767,6.11041028 0.117035301,5.95810428 L0.638298911,5.44933742 C0.794345979,5.29703142 1.04667741,5.29703142 1.20272448,5.44933742 L1.95639861,6.16549968 L4.07133441,4.1142295 C4.22738148,3.9619235 4.4797129,3.9619235 4.63575997,4.1142295 L5.20018554,4.64892078 C5.35291246,4.80122678 5.35291246,5.04750882 5.19686539,5.19981483 L5.19686539,5.19981483 Z M5.19686539,10.3717377 L2.79971681,12.7114172 L2.2784532,13.220184 C2.12240613,13.37249 1.8501538,13.37249 1.69410673,13.220184 L0.117035301,11.6809212 C-0.039011767,11.5286152 -0.039011767,11.2823332 0.117035301,11.1300272 L0.638298911,10.6212603 C0.794345979,10.4689543 1.04667741,10.4689543 1.20272448,10.6212603 L1.95639861,11.3374226 L4.07133441,9.27319021 C4.22738148,9.12088421 4.4797129,9.12088421 4.63575997,9.27319021 L5.20018554,9.82408425 C5.35291246,9.9731497 5.35291246,10.2194317 5.19686539,10.3717377 L5.19686539,10.3717377 Z" id="checklist"></path>
            </g>
        </g>
    </g>
</svg>