<?xml version="1.0" encoding="UTF-8"?>
<svg width="18px" height="18px" viewBox="0 0 18 18" version="1.1" xmlns="http://www.w3.org/2000/svg" xmlns:xlink="http://www.w3.org/1999/xlink">
    <!-- Generator: Sketch 60.1 (88133) - https://sketch.com -->
    <title>clock</title>
    <desc>Created with Sketch.</desc>
    <g id="Page-3" stroke="none" stroke-width="1" fill="none" fill-rule="evenodd">
        <g id="Parceiro-VIP" transform="translate(-24.000000, -1116.000000)" fill="#30287B" fill-rule="nonzero">
            <g id="Group-32" transform="translate(0.000000, 986.000000)">
                <g id="Group-5-Copy" transform="translate(24.000000, 128.000000)">
                    <path d="M9,2 C4.02822581,2 0,6.02822581 0,11 C0,15.9717742 4.02822581,20 9,20 C13.9717742,20 18,15.9717742 18,11 C18,6.02822581 13.9717742,2 9,2 Z M9,18.2580645 C4.98991935,18.2580645 1.74193548,15.0100806 1.74193548,11 C1.74193548,6.98991935 4.98991935,3.74193548 9,3.74193548 C13.0100806,3.74193548 16.2580645,6.98991935 16.2580645,11 C16.2580645,15.0100806 13.0100806,18.2580645 9,18.2580645 Z M11.2427419,14.4693548 L8.16169355,12.2302419 C8.04919355,12.1467742 7.98387097,12.016129 7.98387097,11.8782258 L7.98387097,5.91935484 C7.98387097,5.67983871 8.17983871,5.48387097 8.41935484,5.48387097 L9.58064516,5.48387097 C9.82016129,5.48387097 10.016129,5.67983871 10.016129,5.91935484 L10.016129,11.0616935 L12.4403226,12.8254032 C12.6362903,12.9669355 12.6762097,13.2391129 12.5346774,13.4350806 L11.8524194,14.375 C11.7108871,14.5673387 11.4387097,14.6108871 11.2427419,14.4693548 Z" id="clock"></path>
                </g>
            </g>
        </g>
    </g>
</svg>