<?xml version="1.0" encoding="UTF-8"?>
<svg width="8px" height="8px" viewBox="0 0 8 8" version="1.1" xmlns="http://www.w3.org/2000/svg" xmlns:xlink="http://www.w3.org/1999/xlink">
    <!-- Generator: Sketch 60.1 (88133) - https://sketch.com -->
    <title>Path</title>
    <desc>Created with Sketch.</desc>
    <g id="Page-3" stroke="none" stroke-width="1" fill="none" fill-rule="evenodd">
        <g id="Review" transform="translate(-175.000000, -251.000000)" fill="#30287B" fill-rule="nonzero">
            <g id="Group-6" transform="translate(30.000000, 240.000000)">
                <g id="Group-31">
                    <path d="M152.440323,12.4850806 L149.925403,15 L152.440323,17.5149194 C152.610887,17.6854839 152.610887,17.9612903 152.440323,18.1318548 L152.131855,18.4403226 C151.96129,18.6108871 151.685484,18.6108871 151.514919,18.4403226 L149,15.9254032 L146.485081,18.4403226 C146.314516,18.6108871 146.03871,18.6108871 145.868145,18.4403226 L145.559677,18.1318548 C145.389113,17.9612903 145.389113,17.6854839 145.559677,17.5149194 L148.074597,15 L145.559677,12.4850806 C145.389113,12.3145161 145.389113,12.0387097 145.559677,11.8681452 L145.868145,11.5596774 C146.03871,11.3891129 146.314516,11.3891129 146.485081,11.5596774 L149,14.0745968 L151.514919,11.5596774 C151.685484,11.3891129 151.96129,11.3891129 152.131855,11.5596774 L152.440323,11.8681452 C152.607258,12.0387097 152.607258,12.3145161 152.440323,12.4850806 Z" id="Path"></path>
                </g>
            </g>
        </g>
    </g>
</svg>