<?xml version="1.0" encoding="UTF-8"?>
<svg width="44px" height="20px" viewBox="0 0 44 20" version="1.1" xmlns="http://www.w3.org/2000/svg" xmlns:xlink="http://www.w3.org/1999/xlink">
    <!-- Generator: Sketch 59.1 (86144) - https://sketch.com -->
    <title>distancia</title>
    <desc>Created with Sketch.</desc>
    <g id="Page-2" stroke="none" stroke-width="1" fill="none" fill-rule="evenodd">
        <g id="Home" transform="translate(-62.000000, -397.000000)" fill="#30287B">
            <g id="Start" transform="translate(0.000000, 64.000000)">
                <g transform="translate(24.000000, 24.000000)" id="Group-28">
                    <g transform="translate(0.000000, 150.000000)">
                        <g id="Group-14" transform="translate(0.000000, 129.000000)">
                            <g id="Group-13">
                                <g id="Mask-4">
                                    <g id="Group-26">
                                        <g id="distancia" transform="translate(38.000000, 30.000000)">
                                            <path d="M35.1778333,19.5964796 C29.12375,11.3683957 28,10.5239427 28,7.5 C28,3.35785074 31.5817083,0 36,0 C40.4182917,0 44,3.35785074 44,7.5 C44,10.5239427 42.87625,11.3683957 36.8221667,19.5964796 C36.424875,20.1345263 35.5750833,20.1344873 35.1778333,19.5964796 Z M36,10.6249974 C37.8409583,10.6249974 39.3333333,9.22589619 39.3333333,7.49999817 C39.3333333,5.77410015 37.8409583,4.37499893 36,4.37499893 C34.1590417,4.37499893 32.6666667,5.77410015 32.6666667,7.49999817 C32.6666667,9.22589619 34.1590417,10.6249974 36,10.6249974 Z" id="Shape" fill-rule="nonzero"></path>
                                            <path d="M1.8000007,13.7499991 C0.805875315,13.7499991 1.56541446e-14,12.9105462 1.56541446e-14,11.8749995 C1.56541446e-14,10.8394529 0.805875315,10 1.8000007,10 C2.79412609,10 3.60000141,10.8394529 3.60000141,11.8749995 C3.60000141,12.9105462 2.79412609,13.7499991 1.8000007,13.7499991 Z" id="Path"></path>
                                            <path d="M11.8000007,13.7499991 C10.8058753,13.7499991 10,12.9105462 10,11.8749995 C10,10.8394529 10.8058753,10 11.8000007,10 C12.7941261,10 13.6000014,10.8394529 13.6000014,11.8749995 C13.6000014,12.9105462 12.7941261,13.7499991 11.8000007,13.7499991 Z" id="Path-Copy"></path>
                                            <path d="M21.8000007,13.7499991 C20.8058753,13.7499991 20,12.9105462 20,11.8749995 C20,10.8394529 20.8058753,10 21.8000007,10 C22.7941261,10 23.6000014,10.8394529 23.6000014,11.8749995 C23.6000014,12.9105462 22.7941261,13.7499991 21.8000007,13.7499991 Z" id="Path-Copy-3"></path>
                                        </g>
                                    </g>
                                </g>
                            </g>
                        </g>
                    </g>
                </g>
            </g>
        </g>
    </g>
</svg>