<?xml version="1.0" encoding="UTF-8"?>
<svg width="14px" height="14px" viewBox="0 0 14 14" version="1.1" xmlns="http://www.w3.org/2000/svg" xmlns:xlink="http://www.w3.org/1999/xlink">
    <!-- Generator: Sketch 61 (89581) - https://sketch.com -->
    <title>error-icon</title>
    <desc>Created with Sketch.</desc>
    <g id="Page-1" stroke="none" stroke-width="1" fill="none" fill-rule="evenodd">
        <g id="Validation-Error" transform="translate(-306.000000, -344.000000)" fill="#D73F32" fill-rule="nonzero">
            <g id="Group" transform="translate(24.000000, 304.000000)">
                <g id="Group-12">
                    <path d="M289,40 C285.133065,40 282,43.1330645 282,47 C282,50.8669355 285.133065,54 289,54 C292.866935,54 296,50.8669355 296,47 C296,43.1330645 292.866935,40 289,40 Z M289,52.6451613 C285.881048,52.6451613 283.354839,50.1189516 283.354839,47 C283.354839,43.8810484 285.881048,41.3548387 289,41.3548387 C292.118952,41.3548387 294.645161,43.8810484 294.645161,47 C294.645161,50.1189516 292.118952,52.6451613 289,52.6451613 Z M291.873387,45.2443548 L290.117742,47 L291.873387,48.7556452 C292.006048,48.8883065 292.006048,49.1028226 291.873387,49.2354839 L291.235484,49.8733871 C291.102823,50.0060484 290.888306,50.0060484 290.755645,49.8733871 L289,48.1177419 L287.244355,49.8733871 C287.111694,50.0060484 286.897177,50.0060484 286.764516,49.8733871 L286.126613,49.2354839 C285.993952,49.1028226 285.993952,48.8883065 286.126613,48.7556452 L287.882258,47 L286.126613,45.2443548 C285.993952,45.1116935 285.993952,44.8971774 286.126613,44.7645161 L286.764516,44.1266129 C286.897177,43.9939516 287.111694,43.9939516 287.244355,44.1266129 L289,45.8822581 L290.755645,44.1266129 C290.888306,43.9939516 291.102823,43.9939516 291.235484,44.1266129 L291.873387,44.7645161 C292.006048,44.8971774 292.006048,45.1116935 291.873387,45.2443548 L291.873387,45.2443548 Z" id="error-icon"></path>
                </g>
            </g>
        </g>
    </g>
</svg>