<?xml version="1.0" encoding="UTF-8"?>
<svg width="17px" height="14px" viewBox="0 0 17 14" version="1.1" xmlns="http://www.w3.org/2000/svg" xmlns:xlink="http://www.w3.org/1999/xlink">
    <!-- Generator: Sketch 60.1 (88133) - https://sketch.com -->
    <title>parceiro</title>
    <desc>Created with Sketch.</desc>
    <g id="Page-3" stroke="none" stroke-width="1" fill="none" fill-rule="evenodd">
        <g id="Menu" transform="translate(-68.000000, -393.000000)" fill="#FFFFFF" fill-rule="nonzero">
            <g id="Search" transform="translate(56.000000, 172.000000)">
                <g id="Group-7-Copy-4" transform="translate(0.000000, 208.000000)">
                    <g id="Group-3">
                        <path d="M28.8862091,17.8152344 L26.4582728,13.4402344 C26.3068588,13.1695313 26.0252819,13 25.7197976,13 L15.2802024,13 C14.9747181,13 14.6931412,13.1695313 14.5417272,13.4402344 L12.1137909,17.8152344 C11.7897118,18.4003906 12.1961388,19.125 12.8496097,19.125 L13.699653,19.125 L13.699653,26.0375 C13.699653,26.5679687 14.0795162,27 14.5496964,27 L21.3500434,27 C21.8202236,27 22.2000867,26.5679687 22.2000867,26.0375 L22.2000867,19.125 L26.0252819,19.125 L26.0252819,26.5625 C26.0252819,26.803125 26.2165417,27 26.4503036,27 L26.8753253,27 C27.1090872,27 27.300347,26.803125 27.300347,26.5625 L27.300347,19.125 L28.1503903,19.125 C28.8038612,19.125 29.2102882,18.4003906 28.8862091,17.8152344 Z M20.9250217,25.6875 L14.9747181,25.6875 L14.9747181,23.0679687 L20.9250217,23.0679687 L20.9250217,25.6875 Z M20.9250217,21.7554687 L14.9747181,21.7554687 L14.9747181,19.125 L20.9250217,19.125 L20.9250217,21.7554687 Z M13.5827721,17.8125 L15.5245899,14.3125 L25.4727537,14.3125 L27.4145716,17.8125 L13.5827721,17.8125 Z" id="parceiro"></path>
                    </g>
                </g>
            </g>
        </g>
    </g>
</svg>