<?xml version="1.0" encoding="UTF-8"?>
<svg width="14px" height="14px" viewBox="0 0 14 14" version="1.1" xmlns="http://www.w3.org/2000/svg" xmlns:xlink="http://www.w3.org/1999/xlink">
    <!-- Generator: Sketch 60.1 (88133) - https://sketch.com -->
    <title>ajuda</title>
    <desc>Created with Sketch.</desc>
    <g id="Page-3" stroke="none" stroke-width="1" fill="none" fill-rule="evenodd">
        <g id="Menu" transform="translate(-69.000000, -445.000000)" fill="#FFFFFF" fill-rule="nonzero">
            <g id="Search" transform="translate(56.000000, 172.000000)">
                <g id="Group-7-Copy-5" transform="translate(0.000000, 260.000000)">
                    <g id="Group-3">
                        <path d="M20,13 C16.1342782,13 13,16.1354073 13,20 C13,23.8668508 16.1342782,27 20,27 C23.8657218,27 27,23.8668508 27,20 C27,16.1354073 23.8657218,13 20,13 Z M20,25.6451613 C16.8801452,25.6451613 14.3548387,23.1208992 14.3548387,20 C14.3548387,16.8811895 16.8802581,14.3548387 20,14.3548387 C23.1186976,14.3548387 25.6451613,16.8802298 25.6451613,20 C25.6451613,23.1197984 23.1208992,25.6451613 20,25.6451613 Z M23.0270484,18.4419355 C23.0270484,20.3345323 20.9829073,20.3636613 20.9829073,21.0630685 L20.9829073,21.2419355 C20.9829073,21.4289879 20.83125,21.5806452 20.6441976,21.5806452 L19.3557742,21.5806452 C19.1687218,21.5806452 19.0170645,21.4289879 19.0170645,21.2419355 L19.0170645,20.9975282 C19.0170645,19.9885968 19.7819839,19.5852782 20.3600202,19.2611895 C20.8556935,18.9833065 21.1594879,18.7943065 21.1594879,18.4262984 C21.1594879,17.9395161 20.5385484,17.6164153 20.0365524,17.6164153 C19.3820242,17.6164153 19.0798669,17.92625 18.655125,18.4623145 C18.5406129,18.6068306 18.3316573,18.6336734 18.1847137,18.5222661 L17.3993589,17.9267581 C17.2552097,17.8174677 17.2229194,17.6144113 17.3247298,17.4648992 C17.991621,16.4856331 18.8410484,15.9354839 20.1635403,15.9354839 C21.5486089,15.9354839 23.0270484,17.0166452 23.0270484,18.4419355 L23.0270484,18.4419355 Z M21.1854839,23.1612903 C21.1854839,23.8149718 20.6536815,24.3467742 20,24.3467742 C19.3463185,24.3467742 18.8145161,23.8149718 18.8145161,23.1612903 C18.8145161,22.5076089 19.3463185,21.9758065 20,21.9758065 C20.6536815,21.9758065 21.1854839,22.5076089 21.1854839,23.1612903 Z" id="ajuda"></path>
                    </g>
                </g>
            </g>
        </g>
    </g>
</svg>