<?xml version="1.0" encoding="UTF-8"?>
<svg width="18px" height="18px" viewBox="0 0 18 18" version="1.1" xmlns="http://www.w3.org/2000/svg" xmlns:xlink="http://www.w3.org/1999/xlink">
    <!-- Generator: Sketch 60.1 (88133) - https://sketch.com -->
    <title>info</title>
    <desc>Created with Sketch.</desc>
    <g id="Page-3" stroke="none" stroke-width="1" fill="none" fill-rule="evenodd">
        <g id="Parceiro-VIP" transform="translate(-26.000000, -988.000000)" fill="#30287B" fill-rule="nonzero">
            <g id="Group-32" transform="translate(0.000000, 986.000000)">
                <g id="Group-5" transform="translate(26.000000, 0.000000)">
                    <path d="M9,2 C4.02978629,2 0,6.0312379 0,11 C0,15.9716653 4.02978629,20 9,20 C13.9702137,20 18,15.9716653 18,11 C18,6.0312379 13.9702137,2 9,2 Z M9,18.2580645 C4.98875806,18.2580645 1.74193548,15.0125847 1.74193548,11 C1.74193548,6.99010081 4.98890323,3.74193548 9,3.74193548 C13.009754,3.74193548 16.2580645,6.98886694 16.2580645,11 C16.2580645,15.0111694 13.0125847,18.2580645 9,18.2580645 Z M9,5.99193548 C9.84179032,5.99193548 10.5241935,6.67433871 10.5241935,7.51612903 C10.5241935,8.35791935 9.84179032,9.04032258 9,9.04032258 C8.15820968,9.04032258 7.47580645,8.35791935 7.47580645,7.51612903 C7.47580645,6.67433871 8.15820968,5.99193548 9,5.99193548 Z M11.0322581,15.2096774 C11.0322581,15.4501734 10.8372702,15.6451613 10.5967742,15.6451613 L7.40322581,15.6451613 C7.16272984,15.6451613 6.96774194,15.4501734 6.96774194,15.2096774 L6.96774194,14.3387097 C6.96774194,14.0982137 7.16272984,13.9032258 7.40322581,13.9032258 L7.83870968,13.9032258 L7.83870968,11.5806452 L7.40322581,11.5806452 C7.16272984,11.5806452 6.96774194,11.3856573 6.96774194,11.1451613 L6.96774194,10.2741935 C6.96774194,10.0336976 7.16272984,9.83870968 7.40322581,9.83870968 L9.72580645,9.83870968 C9.96630242,9.83870968 10.1612903,10.0336976 10.1612903,10.2741935 L10.1612903,13.9032258 L10.5967742,13.9032258 C10.8372702,13.9032258 11.0322581,14.0982137 11.0322581,14.3387097 L11.0322581,15.2096774 Z" id="info"></path>
                </g>
            </g>
        </g>
    </g>
</svg>