<?xml version="1.0" encoding="UTF-8"?>
<svg width="18px" height="18px" viewBox="0 0 18 18" version="1.1" xmlns="http://www.w3.org/2000/svg" xmlns:xlink="http://www.w3.org/1999/xlink">
    <!-- Generator: Sketch 60.1 (88133) - https://sketch.com -->
    <title>link</title>
    <desc>Created with Sketch.</desc>
    <g id="Page-3" stroke="none" stroke-width="1" fill="none" fill-rule="evenodd">
        <g id="Parceiro-VIP" transform="translate(-126.000000, -693.000000)" fill="#B294FF" fill-rule="nonzero">
            <g id="Group-30" transform="translate(0.000000, 584.000000)">
                <g id="Group-24-Copy" transform="translate(90.000000, 109.000000)">
                    <path d="M47.4824735,6.51765719 C49.5829545,8.62031324 49.5541264,11.9914043 47.4951298,14.0618221 C47.4912626,14.0660409 47.4866923,14.0706112 47.4824735,14.0748299 L45.1199729,16.4373253 C43.0362615,18.5210322 39.6461786,18.5207509 37.5627836,16.4373253 C35.4790721,14.35397 35.4790721,10.9635079 37.5627836,8.88015258 L38.8672917,7.57564731 C39.2132293,7.22971049 39.8089873,7.45963192 39.8268466,7.94851377 C39.8496279,8.57155162 39.9613545,9.19750743 40.1675108,9.80198281 C40.2373311,10.0066621 40.1874444,10.2330679 40.0345147,10.3859973 L39.5744247,10.8460862 C38.5891354,11.8313734 38.558233,13.4356906 39.5338192,14.4306105 C40.5190382,15.435339 42.1384058,15.4413155 43.1311834,14.4485401 L45.493684,12.0863963 C46.484774,11.0953084 46.4806256,9.49338185 45.493684,8.50644237 C45.3635706,8.37657544 45.2325081,8.2756772 45.1301331,8.20518905 C44.9832783,8.10434414 44.8927242,7.94002537 44.8859026,7.76201023 C44.8719807,7.39051486 45.0036057,7.0076992 45.2971605,6.71414509 L46.0373403,5.97393169 C46.231438,5.77983442 46.5359264,5.75599852 46.7609968,5.91307634 C47.0187514,6.09305824 47.2601741,6.29536491 47.4824735,6.51765719 Z M52.4372208,1.56267468 C50.3538258,-0.520750934 46.9637429,-0.521032184 44.8800315,1.56267468 L42.5175309,3.92517007 C42.5133121,3.92938881 42.5087418,3.93395911 42.5048746,3.93817786 C40.4459132,6.00859569 40.4170499,9.37968676 42.5175309,11.4823428 C42.7398171,11.704625 42.9812283,11.9069202 43.2389725,12.0868885 C43.4640428,12.2439663 43.7685663,12.2200953 43.9626289,12.0260332 L44.7028088,11.2858198 C44.9963635,10.9922656 45.1279886,10.60945 45.1140667,10.2379546 C45.107245,10.0599395 45.0166909,9.89562071 44.8698361,9.79477579 C44.7674611,9.72428765 44.6363986,9.62338941 44.5062853,9.49352247 C43.5193436,8.506583 43.5151952,6.90465644 44.5062853,5.91356853 L46.8687859,3.55142471 C47.8615634,2.5586493 49.4808959,2.56462585 50.46615,3.56935436 C51.4417362,4.56427429 51.410869,6.16859147 50.4255445,7.15387861 L49.9654546,7.61396755 C49.8125249,7.76689694 49.7626381,7.99330275 49.8324585,8.19798204 C50.0386148,8.80245742 50.1503413,9.42841323 50.1731226,10.0514511 C50.1910171,10.5403329 50.7867399,10.7702544 51.1326775,10.4243175 L52.4371857,9.11981227 C54.5209323,7.03649212 54.5209323,3.64602999 52.4372208,1.56267468 L52.4372208,1.56267468 Z" id="link"></path>
                </g>
            </g>
        </g>
    </g>
</svg>