<?xml version="1.0" encoding="UTF-8"?>
<svg width="12px" height="10px" viewBox="0 0 12 10" version="1.1" xmlns="http://www.w3.org/2000/svg" xmlns:xlink="http://www.w3.org/1999/xlink">
    <!-- Generator: Sketch 61.2 (89653) - https://sketch.com -->
    <title>list</title>
    <desc>Created with Sketch.</desc>
    <g id="Page-1" stroke="none" stroke-width="1" fill="none" fill-rule="evenodd">
        <g id="Categoria-Map" transform="translate(-318.000000, -28.000000)" fill="#FFFFFF" fill-rule="nonzero">
            <g id="Arrow" transform="translate(312.000000, 20.000000)">
                <path d="M9,9.63461538 L9,8.67307692 C9,8.46064904 9.16788281,8.28846154 9.375,8.28846154 L17.625,8.28846154 C17.8321172,8.28846154 18,8.46064904 18,8.67307692 L18,9.63461538 C18,9.84704327 17.8321172,10.0192308 17.625,10.0192308 L9.375,10.0192308 C9.16788281,10.0192308 9,9.84704327 9,9.63461538 Z M9.375,13.8653846 L17.625,13.8653846 C17.8321172,13.8653846 18,13.6931971 18,13.4807692 L18,12.5192308 C18,12.3068029 17.8321172,12.1346154 17.625,12.1346154 L9.375,12.1346154 C9.16788281,12.1346154 9,12.3068029 9,12.5192308 L9,13.4807692 C9,13.6931971 9.16788281,13.8653846 9.375,13.8653846 Z M9.375,17.7115385 L17.625,17.7115385 C17.8321172,17.7115385 18,17.539351 18,17.3269231 L18,16.3653846 C18,16.1529567 17.8321172,15.9807692 17.625,15.9807692 L9.375,15.9807692 C9.16788281,15.9807692 9,16.1529567 9,16.3653846 L9,17.3269231 C9,17.539351 9.16788281,17.7115385 9.375,17.7115385 Z M6.375,10.3076923 L7.875,10.3076923 C8.08211719,10.3076923 8.25,10.1355048 8.25,9.92307692 L8.25,8.38461538 C8.25,8.1721875 8.08211719,8 7.875,8 L6.375,8 C6.16788281,8 6,8.1721875 6,8.38461538 L6,9.92307692 C6,10.1355048 6.16788281,10.3076923 6.375,10.3076923 Z M6.375,14.1538462 L7.875,14.1538462 C8.08211719,14.1538462 8.25,13.9816587 8.25,13.7692308 L8.25,12.2307692 C8.25,12.0183413 8.08211719,11.8461538 7.875,11.8461538 L6.375,11.8461538 C6.16788281,11.8461538 6,12.0183413 6,12.2307692 L6,13.7692308 C6,13.9816587 6.16788281,14.1538462 6.375,14.1538462 Z M6.375,18 L7.875,18 C8.08211719,18 8.25,17.8278125 8.25,17.6153846 L8.25,16.0769231 C8.25,15.8644952 8.08211719,15.6923077 7.875,15.6923077 L6.375,15.6923077 C6.16788281,15.6923077 6,15.8644952 6,16.0769231 L6,17.6153846 C6,17.8278125 6.16788281,18 6.375,18 Z" id="list"></path>
            </g>
        </g>
    </g>
</svg>