<?xml version="1.0" encoding="UTF-8"?>
<svg width="14px" height="16px" viewBox="0 0 14 16" version="1.1" xmlns="http://www.w3.org/2000/svg" xmlns:xlink="http://www.w3.org/1999/xlink">
    <!-- Generator: Sketch 60.1 (88133) - https://sketch.com -->
    <title>CLogo</title>
    <desc>Created with Sketch.</desc>
    <g id="Page-3" stroke="none" stroke-width="1" fill="none" fill-rule="evenodd">
        <g id="HomeMap" transform="translate(-157.000000, -24.000000)" fill="#30287B">
            <g id="Topbar">
                <g id="Group-30" transform="translate(148.000000, 16.000000)">
                    <path d="M23,23.0196684 C20.8609843,23.7085631 19.3330684,24 17.2222828,24 C12.5832375,24 9,21.4834092 9,16.1058604 C9,11.0197486 12.7499615,8 17.6664927,8 C19.2776045,8 20.9998102,8.21204162 22.666552,8.55608798 L22.2778061,14.3575596 L19.2498725,14.3575596 L19.0834806,10.4636606 C18.6387726,10.4107304 18.2221286,10.3841049 17.8056508,10.3841049 C14.7778832,10.3841049 12.7499615,12.4503078 12.7499615,15.7350282 C12.7499615,19.3641157 14.7778832,21.271528 18.2501927,21.271528 C19.7779425,21.271528 21.1945983,21.085791 22.527726,20.7152796 L23,23.0196684" id="CLogo"></path>
                </g>
            </g>
        </g>
    </g>
</svg>