<?xml version="1.0" encoding="UTF-8"?>
<svg width="14px" height="11px" viewBox="0 0 14 11" version="1.1" xmlns="http://www.w3.org/2000/svg" xmlns:xlink="http://www.w3.org/1999/xlink">
    <!-- Generator: Sketch 61 (89581) - https://sketch.com -->
    <title>icon-logout</title>
    <desc>Created with Sketch.</desc>
    <g id="Page-1" stroke="none" stroke-width="1" fill="none" fill-rule="evenodd">
        <g id="Menu" transform="translate(-70.000000, -645.000000)" fill="#FFFFFF" fill-rule="nonzero">
            <g id="Search" transform="translate(56.000000, 252.000000)">
                <g id="Group-7-Copy-7" transform="translate(0.000000, 378.000000)">
                    <g id="Group-3">
                        <path d="M27.8062404,20.9865941 L23.1393422,25.7982948 C22.7226549,26.227911 22.0003968,25.9271797 22.0003968,25.3113965 L22.0003968,22.5618532 L18.2224317,22.5618532 C17.8529689,22.5618532 17.5557319,22.2553937 17.5557319,21.8744674 L17.5557319,19.1249241 C17.5557319,18.7439978 17.8529689,18.4375383 18.2224317,18.4375383 L22.0003968,18.4375383 L22.0003968,15.687995 C22.0003968,15.075076 22.719877,14.7714805 23.1393422,15.2010967 L27.8062404,20.0127975 C28.0645865,20.2820236 28.0645865,20.7173679 27.8062404,20.9865941 Z M19.3335979,25.6550895 L19.3335979,24.5094464 C19.3335979,24.3204153 19.1835905,24.1657535 19.000248,24.1657535 L16.6667989,24.1657535 C16.1751079,24.1657535 15.777866,23.7561861 15.777866,23.2492391 L15.777866,17.7501525 C15.777866,17.2432054 16.1751079,16.833638 16.6667989,16.833638 L19.000248,16.833638 C19.1835905,16.833638 19.3335979,16.6789762 19.3335979,16.4899451 L19.3335979,15.3443021 C19.3335979,15.155271 19.1835905,15.0006092 19.000248,15.0006092 L16.6667989,15.0006092 C15.1945037,15.0006092 14,16.2321754 14,17.7501525 L14,23.2492391 C14,24.7672161 15.1945037,25.9987824 16.6667989,25.9987824 L19.000248,25.9987824 C19.1835905,25.9987824 19.3335979,25.8441206 19.3335979,25.6550895 Z" id="icon-logout"></path>
                    </g>
                </g>
            </g>
        </g>
    </g>
</svg>