<?xml version="1.0" encoding="UTF-8"?>
<svg width="1024px" height="1024px" viewBox="0 0 1024 1024" version="1.1" xmlns="http://www.w3.org/2000/svg" xmlns:xlink="http://www.w3.org/1999/xlink">
    <!-- Generator: Sketch 61 (89581) - https://sketch.com -->
    <title>Logo-1024</title>
    <desc>Created with Sketch.</desc>
    <g id="Logo-1024" stroke="none" stroke-width="1" fill="none" fill-rule="evenodd">
        <g id="gazeta-clube2019-MARCA-02-ROXO" transform="translate(5.000000, 47.000000)" fill="#FFFFFF">
            <path d="M332.090588,814.833341 L312.043317,814.833341 C311.378439,809.444701 310.7066,804.014289 310.027798,798.514256 L293.485928,798.514256 C292.82105,803.91682 292.149211,809.34027 291.47389,814.833341 L271.416176,814.833341 C271.920926,810.558632 272.383903,806.391835 272.916501,802.232 C274.204483,792.140484 275.443731,782.042006 276.846588,771.964414 C278.423496,760.609283 280.045658,749.264595 281.841871,737.944275 C284.083656,723.84957 286.527342,709.779233 288.866596,695.698453 C289.273877,693.254768 289.24951,693.251286 291.714082,693.251286 C298.697035,693.251286 305.676507,693.272173 312.655979,693.226761 C313.794277,693.219957 314.288583,693.439262 314.493964,694.716802 C317.84968,715.690028 321.494322,736.624963 324.616809,757.636481 C327.272838,775.490701 329.340572,793.431947 331.669383,811.331421 C331.815587,812.462757 331.940904,813.590612 332.090588,814.833341 M307.364808,778.498314 C305.070807,760.616245 304.729666,742.702847 303.46605,724.72331 L300.044195,724.72331 C298.791023,742.730696 298.439438,760.644093 296.152399,778.498314 L307.364808,778.498314" id="Fill-1"></path>
            <path d="M123.534914,814.857708 L103.463275,814.857708 C102.791436,809.416853 102.130039,804.01777 101.454719,798.524699 L84.891962,798.524699 C84.2897432,803.474729 83.645752,808.389948 83.1305591,813.319091 C82.9947988,814.593149 82.5944799,814.979544 81.3099786,814.962697 C75.6672234,814.889037 70.0209872,814.93081 64.3782321,814.93081 L62.8326532,814.93081 C63.2329721,811.519397 63.5810754,808.302922 63.9883563,805.089928 C65.0814008,796.366458 66.1326729,787.636027 67.3231863,778.926481 C68.9279427,767.237171 70.518775,755.540898 72.3393555,743.886399 C74.6646858,729.022386 77.2093212,714.189703 79.6564877,699.346576 C79.9419325,697.647832 80.2865548,695.966493 80.516303,694.260786 C80.624215,693.467111 80.9688373,693.237362 81.7311837,693.240843 C89.3372417,693.258249 96.9432997,693.26173 104.545877,693.237362 C105.36392,693.237362 105.694618,693.470592 105.833859,694.326926 C108.284507,709.222268 110.884839,724.089762 113.231055,738.999028 C115.257017,751.833598 117.081078,764.699497 118.852924,777.572359 C120.255781,787.796154 121.442813,798.047798 122.723833,808.292479 C122.991873,810.415909 123.245988,812.546302 123.534914,814.857708 M91.4467479,724.918247 C90.2109811,742.758544 89.8524346,760.66498 87.5688767,778.508757 L98.8404629,778.508757 C98.4819165,775.751779 97.9910908,773.074864 97.810077,770.373582 C96.873679,756.174447 96.0243069,741.968349 95.1122761,727.758771 C94.8825279,724.190712 95.6762035,724.730272 91.7321927,724.768563 C91.6939013,724.768563 91.6486479,724.806854 91.4467479,724.918247" id="Fill-2"></path>
            <path d="M55.3519124,716.556805 C49.0512419,718.582767 42.7923438,720.591323 36.3976854,722.645133 C36.2793303,721.301454 36.1748993,720.04132 36.0530631,718.784667 C35.5900857,714.179259 33.5049467,712.268172 28.8682101,712.202032 C28.0083949,712.191589 27.1450986,712.229881 26.2887644,712.330831 C23.4064687,712.675453 21.6276606,714.060904 21.1542401,716.904909 C20.6773385,719.762837 20.4510713,722.690386 20.4336662,725.593568 C20.3361972,743.28418 20.31183,760.974792 20.3292352,778.668885 C20.3327162,782.101183 20.524173,785.547407 20.8548712,788.965781 C21.2621521,793.136059 23.4029877,794.953159 27.5767467,795.033223 C33.7869104,795.144616 35.7780615,793.564227 36.1122407,787.333177 C36.5334457,779.619207 36.5508509,771.88435 36.7457888,764.045063 L30.1248632,764.045063 L30.1248632,744.283236 L55.7940036,744.283236 L55.7940036,814.920367 C53.4860785,814.920367 51.247774,814.96562 49.0094695,814.882075 C48.5743403,814.868151 48.0939577,814.429541 47.7388923,814.081438 C45.1907758,811.568131 42.6670266,809.026977 40.0109981,806.370948 C37.497692,808.894698 35.0122341,811.324459 32.6103211,813.834284 C31.8131644,814.673213 30.9916405,815.059608 29.8498616,814.941253 C26.2017385,814.547896 22.4700707,814.540934 18.9124546,813.757701 C11.1079776,812.038071 6.45035493,806.750381 3.91964363,799.394958 C1.99115112,793.797456 1.02342383,787.98413 0.790194586,782.104665 C0.355065409,771.031497 -0.0243672339,759.940925 -2.12655414e-15,748.857314 C0.0208862005,740.029414 0.525636046,731.19107 1.09652553,722.373612 C1.45159094,716.84225 2.54811646,711.401395 4.68547098,706.218136 C7.47377875,699.464931 12.3193773,695.099715 19.5042302,693.550655 C26.2818023,692.08514 33.1081089,692.071216 39.8230223,693.811733 C48.5638972,696.077886 53.2737354,702.05482 54.6731109,710.820062 C54.9411505,712.518806 55.1500125,714.224513 55.3762796,715.926738 C55.3971658,716.069461 55.3658365,716.212183 55.3519124,716.556805" id="Fill-4"></path>
            <polyline id="Fill-6" points="225.362104 814.82986 182.058048 814.82986 182.058048 693.366161 220.495619 693.366161 220.495619 713.096658 202.279371 713.096658 202.279371 744.109185 220.453846 744.109185 220.453846 763.954556 202.24108 763.954556 202.24108 795.012336 225.362104 795.012336 225.362104 814.82986"></polyline>
            <path d="M175.186488,693.383566 C174.85579,697.999416 174.671295,702.531722 174.187431,707.032698 C172.412104,723.431846 167.354163,739.00599 162.115207,754.538361 C158.373096,765.615009 154.519592,776.66729 152.417048,788.213878 C152.02021,790.413891 151.717361,792.627829 151.34489,794.987969 L174.908005,794.987969 L174.908005,814.826379 L129.14634,814.826379 C129.14634,812.020666 129.000136,809.260206 129.170707,806.520633 C130.082738,791.778456 133.682126,777.582802 138.019494,763.547275 C141.382172,752.64816 144.894535,741.794298 148.023984,730.829042 C149.513866,725.614454 150.26577,720.184042 151.334447,714.847618 C151.431916,714.34983 151.404068,713.827675 151.438878,713.190646 L129.007099,713.190646 L129.007099,693.383566 L175.186488,693.383566" id="Fill-7"></path>
            <polyline id="Fill-8" points="261.286368 814.840303 241.096375 814.840303 241.096375 713.152355 227.583003 713.152355 227.583003 693.338312 274.716195 693.338312 274.716195 713.121025 261.286368 713.121025 261.286368 814.840303"></polyline>
            <path d="M3.37660242,840.474633 C10.6867726,840.66609 17.9621324,840.509443 25.1678716,841.153434 C32.1334195,841.78002 35.6318581,846.712645 36.8362956,853.138632 C37.7204781,857.862395 38.3401021,862.701031 38.3992796,867.490933 C38.5245969,877.565044 38.2878866,887.649598 38.0059229,897.720227 C37.9258591,900.459801 37.3480076,903.227222 36.6726871,905.904137 C34.8277394,913.193421 31.0891095,916.778885 23.6571031,917.311484 C16.9630759,917.795347 10.202909,917.412434 3.37660242,917.412434 L3.37660242,840.474633 Z M14.9649627,852.108247 L14.9649627,906.617749 C16.454845,906.617749 17.8368152,906.628192 19.2222665,906.614268 C23.2741894,906.582939 25.0669217,905.058246 25.731799,901.072463 C25.8466731,900.369294 25.9824334,899.652201 25.9824334,898.94207 C26.045092,887.089151 26.1321179,875.239714 26.1007886,863.393757 C26.0973075,860.970958 25.8188249,858.527272 25.3767336,856.149726 C24.9381234,853.810472 23.3229239,852.344957 20.9175298,852.139576 C18.9751132,851.972486 17.0118103,852.108247 14.9649627,852.108247 L14.9649627,852.108247 Z" id="Fill-9"></path>
            <path d="M187.5546,878.971381 C187.937513,871.870073 188.212515,864.758322 188.76948,857.667457 C188.967899,855.08453 189.653663,852.49116 190.447338,850.002221 C192.208741,844.463897 196.069207,841.153434 201.882533,840.63476 C205.03983,840.352797 208.301559,840.366721 211.420565,840.843622 C217.620285,841.797426 220.760177,846.113907 222.274427,851.847169 C223.579814,856.776312 223.994057,861.827292 224.032349,866.895677 C224.098488,875.539083 224.199438,884.189451 223.931399,892.825894 C223.79912,897.19111 223.203863,901.598099 222.243098,905.855403 C220.593088,913.172535 216.729141,916.576985 209.293653,917.321927 C206.160723,917.642182 202.871147,917.391547 199.769546,916.79281 C194.958758,915.856412 192.038171,912.518101 190.429933,907.982314 C188.863468,903.561402 188.341313,898.952513 188.188148,894.322739 C188.021058,889.216063 188.149856,884.102425 188.149856,878.988787 C187.951437,878.981825 187.753019,878.974863 187.5546,878.971381 M212.757282,879.114104 C212.698104,879.114104 212.635445,879.114104 212.576268,879.114104 C212.576268,875.197941 212.61804,871.274817 212.562344,867.358654 C212.513609,863.825405 212.402216,860.288675 212.231646,856.758907 C212.092404,853.880093 211.020246,852.334514 208.618333,851.972486 C206.905664,851.711409 205.099008,851.78451 203.368934,851.989891 C201.600569,852.202234 200.42398,853.357938 200.131573,855.168075 C199.901825,856.623147 199.696444,858.102586 199.68252,859.571582 C199.58157,869.374172 199.491063,879.173281 199.494447,888.97239 C199.494447,893.177479 199.658153,897.379086 199.88442,901.577212 C200.065434,904.925967 201.475252,906.25224 204.810082,906.55509 C205.426225,906.607306 206.052811,906.600344 206.672435,906.572495 C210.63037,906.401925 212.14462,904.985144 212.262975,901.048095 C212.48228,893.741406 212.597154,886.431236 212.757282,879.114104" id="Fill-10"></path>
            <path d="M331.638054,879.079294 C331.251659,886.184083 330.976658,893.295834 330.416211,900.383218 C330.207349,902.966145 329.514623,905.562996 328.6931,908.038011 C326.882962,913.506714 322.991167,916.681417 317.243981,917.224458 C314.368647,917.492497 311.409769,917.516865 308.548359,917.16528 C302.529652,916.42382 298.919821,912.72 297.203671,907.045916 C295.633725,901.869619 295.202077,896.536676 295.156824,891.179366 C295.07676,882.53596 295.07676,873.885592 295.209039,865.242186 C295.285622,860.47317 295.755561,855.711116 297.141013,851.095266 C299.180898,844.307251 303.302442,840.885395 310.379383,840.408493 C312.840473,840.244885 315.357261,840.335392 317.804427,840.66609 C323.349713,841.421474 326.931697,844.669278 328.76272,849.922158 C330.336147,854.440539 330.847859,859.150377 331.007987,863.87414 C331.175076,868.935562 331.046278,874.000466 331.046278,879.065369 C331.241216,879.072331 331.443116,879.079294 331.638054,879.079294 M306.442334,879.176762 C306.494549,879.176762 306.553727,879.176762 306.609424,879.176762 C306.609424,881.804943 306.571132,884.433123 306.616386,887.061303 C306.696449,891.788547 306.76607,896.519271 306.940122,901.246514 C307.079363,904.93641 308.58317,906.360152 312.29047,906.572495 C317.456324,906.864902 319.290828,905.496856 319.377854,900.379737 C319.586716,888.004663 319.555387,875.622627 319.576273,863.244072 C319.583235,860.908299 319.457918,858.562083 319.269942,856.233271 C319.050637,853.580724 317.793984,852.216159 315.346817,851.861093 C314.361685,851.718371 313.341742,851.68356 312.353129,851.746219 C308.339497,852.031664 307.027148,853.344013 306.912273,857.388974 C306.706893,864.65041 306.592018,871.911846 306.442334,879.176762" id="Fill-11"></path>
            <path d="M55.933245,878.992268 C56.3788173,871.515008 56.7095154,864.020343 57.3430635,856.557007 C57.5554066,854.029777 58.3490822,851.502547 59.2193405,849.093672 C60.8763124,844.533518 64.1972183,841.741729 69.0080065,840.80185 C72.6596106,840.084757 76.3112146,840.077795 79.9628187,840.805331 C84.7109483,841.755653 87.91698,844.533518 89.7166743,848.989241 C91.4850393,853.347494 92.1673218,857.956383 92.2334615,862.582676 C92.393589,873.516602 92.4423235,884.460971 92.2021322,895.391416 C92.1151063,899.258844 91.3318738,903.178488 90.3606655,906.944966 C88.7837574,913.064623 84.6900621,916.719708 78.2954037,917.259268 C75.3713356,917.509902 72.3567607,917.516865 69.4605408,917.095659 C63.017148,916.152299 59.6962421,911.801008 58.1680684,905.817111 C56.7129965,900.129103 56.4797672,894.301853 56.3788173,888.471122 C56.3196397,885.320786 56.3683742,882.163489 56.3683742,879.009673 C56.2221708,879.002711 56.0759674,878.99923 55.933245,878.992268 M80.8052288,879.145433 L80.9479511,879.145433 C80.9479511,873.930845 80.9932046,868.723219 80.930546,863.512112 C80.8992167,860.936147 80.7843426,858.353221 80.5058599,855.79118 C80.2343393,853.29876 78.8697742,852.062993 76.3703922,851.826283 C75.1415874,851.71489 73.8849343,851.718371 72.6526485,851.822802 C70.1428234,852.021221 68.75041,853.201291 68.4545222,855.704154 C68.1307861,858.450689 67.9636965,861.228554 67.9671242,863.989014 C67.9880637,876.082124 68.0646464,888.178715 68.1969257,900.271825 C68.2526223,905.20793 69.99662,906.75699 74.9188012,906.582939 C75.1102581,906.575976 75.3017149,906.579458 75.4931718,906.565533 C78.8662931,906.342747 80.1612376,905.145272 80.6311771,901.786074 C80.728646,901.075944 80.7982667,900.358851 80.7982667,899.64872 C80.8121908,892.808489 80.8052288,885.978702 80.8052288,879.145433" id="Fill-12"></path>
            <path d="M239.989406,840.732229 L251.511627,840.732229 C252.106883,845.522131 252.691697,850.252856 253.279992,854.987061 C254.679367,866.269091 256.075261,877.55112 257.471156,888.83663 C257.798373,891.492659 258.149957,894.145206 258.42844,896.801235 C258.511985,897.608834 258.717366,897.981305 259.618953,897.984786 C260.565795,897.988267 260.670226,897.518328 260.760732,896.759462 C262.730997,880.732784 264.725629,864.713069 266.709819,848.689872 C267.033555,846.082578 267.339886,843.471803 267.660141,840.76704 L279.24502,840.76704 C276.289622,866.491877 272.505739,892.025257 267.949066,917.56908 L261.293331,917.56908 C258.330971,917.56908 255.365131,917.53427 252.39929,917.586485 C251.508146,917.60389 251.139156,917.328889 251.003396,916.437744 C248.410026,899.735746 245.72963,883.044191 243.209362,866.331749 C242.025811,858.495943 241.14859,850.607921 240.13909,842.744267 C240.059027,842.131605 240.045103,841.515462 239.989406,840.732229" id="Fill-13"></path>
            <path d="M135.955241,840.471152 C143.02522,840.669571 150.077794,840.39805 157.012012,841.195207 C164.377879,842.037617 168.126952,846.267072 169.352276,854.356994 C170.800386,863.891545 170.88045,873.506159 169.1643,883.026785 C167.705747,891.134112 162.609514,895.377492 154.373389,895.729076 C152.142047,895.823064 149.89678,895.743 147.480943,895.743 L147.480943,917.482054 L135.955241,917.482054 L135.955241,840.471152 Z M147.536639,851.930714 L147.536639,883.893563 C149.632222,883.893563 151.64774,884.05369 153.624967,883.862233 C156.754416,883.552421 158.254741,882.076463 158.303476,878.950495 C158.41835,871.55678 158.390502,864.166546 158.293033,856.772831 C158.258222,854.200348 157.001569,852.787048 154.425605,852.376286 C152.190781,852.01774 149.893299,852.066474 147.536639,851.930714 L147.536639,851.930714 Z" id="Fill-14"></path>
            <path d="M595.862415,751.213974 C595.862415,669.002408 566.747051,630.481292 509.68247,630.481292 C489.304501,630.481292 471.251861,633.356625 454.365368,638.536403 L454.365368,875.392879 C471.251861,879.987843 487.557022,882.288806 506.194475,882.288806 C565.580905,882.288806 595.862415,842.622431 595.862415,751.213974 M675.640738,748.913011 C675.640738,862.171914 612.167575,929.432442 501.533371,929.432442 C461.936616,929.432442 420.01453,923.107404 376.341485,907.011106 L376.341485,518.378092 L332.087107,514.350536 L332.087107,468.362603 L447.375453,461.463195 L454.365368,468.362603 L454.365368,593.686769 C476.490816,587.361731 500.367225,582.763286 525.98415,582.763286 C620.320155,582.763286 675.640738,639.681663 675.640738,748.913011" id="Fill-15"></path>
            <path d="M293.475484,620.710031 C248.636293,635.66107 216.607305,641.986107 172.359889,641.986107 C75.1137391,641.986107 0,587.368693 0,470.660086 C0,360.276516 78.6086967,294.7391 181.671653,294.7391 C215.444639,294.7391 251.546437,299.341026 286.485569,306.807842 L278.33647,432.716821 L214.863307,432.716821 L211.375311,348.207773 C202.053104,347.059032 193.319191,346.48118 184.588759,346.48118 C121.119077,346.48118 78.6086967,391.323853 78.6086967,462.611936 C78.6086967,541.373798 121.119077,582.770248 193.907486,582.770248 C225.932993,582.770248 255.629689,578.739211 283.575425,570.698024 L293.475484,620.710031" id="Fill-17"></path>
            <polyline id="Fill-18" points="446.602664 0.38639471 333.058315 7.28580295 333.058315 53.2772165 376.150028 61.3323278 376.150028 377.239592 333.058315 385.862111 333.058315 431.850044 496.102959 431.850044 496.102959 385.862111 453.599541 377.239592 453.599541 7.28580295 446.602664 0.38639471"></polyline>
            <path d="M856.403842,487.000056 L856.403842,533.56584 L759.742506,533.56584 L745.184824,505.971689 C715.488128,526.662951 679.389811,540.465249 637.457283,540.465249 C575.73856,540.465249 540.799428,507.123911 540.799428,449.04983 L539.633282,254.738545 L497.126383,246.112544 L497.126383,200.117649 L610.677693,200.117649 L617.664127,207.02402 L617.664127,437.555458 C617.664127,466.876202 636.291137,484.128204 668.320125,484.128204 C692.777866,484.128204 711.408357,476.650944 736.44743,463.426498 L736.44743,256.461656 L693.359199,246.112544 L693.359199,200.117649 L806.907028,200.117649 L813.896943,207.02402 L813.896943,481.249389 L856.403842,487.000056" id="Fill-20"></path>
            <path d="M799.050335,699.886136 L939.973011,699.886136 L939.973011,698.159544 C939.973011,644.697832 918.425414,618.24894 877.08118,618.24894 C835.733465,618.24894 807.784248,646.417463 799.050335,699.886136 M1002.85788,843.614525 L1013.33579,892.477791 C967.918747,908.0032 935.896721,914.328238 891.642343,914.328238 C784.489172,914.328238 716.950162,853.385786 716.950162,742.434808 C716.950162,640.666796 781.585991,567.08123 877.08118,567.08123 C963.261125,567.08123 1013.33579,617.678051 1013.33579,701.609248 C1013.33579,714.830213 1011.58831,732.656585 1009.2595,748.178513 L797.302856,748.178513 C801.382628,821.193189 839.813237,857.413342 912.016832,857.413342 C945.789818,857.413342 970.832372,853.385786 1002.85788,843.614525" id="Fill-21"></path>
        </g>
    </g>
</svg>