<?xml version="1.0" encoding="UTF-8"?>
<svg width="50px" height="38px" viewBox="0 0 50 38" version="1.1" xmlns="http://www.w3.org/2000/svg" xmlns:xlink="http://www.w3.org/1999/xlink">
    <!-- Generator: Sketch 61 (89581) - https://sketch.com -->
    <title>Shape</title>
    <desc>Created with Sketch.</desc>
    <g id="Page-1" stroke="none" stroke-width="1" fill="none" fill-rule="evenodd">
        <g id="RecSenha-2" transform="translate(-155.000000, -200.000000)" fill="#F7F7F7" fill-rule="nonzero">
            <g id="Group" transform="translate(24.000000, 164.000000)">
                <path d="M176.3125,36 L135.6875,36 C133.098633,36 131,38.1266146 131,40.75 L131,69.25 C131,71.8733854 133.098633,74 135.6875,74 L176.3125,74 C178.901367,74 181,71.8733854 181,69.25 L181,40.75 C181,38.1266146 178.901367,36 176.3125,36 Z M176.3125,40.75 L176.3125,44.7879948 C174.122852,46.594875 170.632031,49.4045 163.169238,55.3260677 C161.524609,56.6369688 158.266797,59.7863177 156,59.7496042 C153.733594,59.7867135 150.474707,56.636474 148.830762,55.3260677 C141.369141,49.4053906 137.877441,46.5951719 135.6875,44.7879948 L135.6875,40.75 L176.3125,40.75 Z M135.6875,69.25 L135.6875,50.8831354 C137.925195,52.689224 141.098535,55.2236458 145.935352,59.0616458 C148.069824,60.764224 151.807813,64.5227604 156,64.499901 C160.171582,64.5227604 163.862207,60.81875 166.06377,59.0624375 C170.900488,55.2245365 174.074707,52.6894219 176.3125,50.8831354 L176.3125,69.25 L135.6875,69.25 Z" id="Shape"></path>
            </g>
        </g>
    </g>
</svg>