<?xml version="1.0" encoding="UTF-8"?>
<svg width="14px" height="11px" viewBox="0 0 14 11" version="1.1" xmlns="http://www.w3.org/2000/svg" xmlns:xlink="http://www.w3.org/1999/xlink">
    <!-- Generator: Sketch 60.1 (88133) - https://sketch.com -->
    <title>Shape</title>
    <desc>Created with Sketch.</desc>
    <g id="Page-3" stroke="none" stroke-width="1" fill="none" fill-rule="evenodd">
        <g id="Categoria" transform="translate(-317.000000, -27.000000)" fill="#FFFFFF" fill-rule="nonzero">
            <g id="Arrow" transform="translate(312.000000, 20.000000)">
                <path d="M19,7.58965662 L19,15.8389156 C19,16.0621222 18.8751694,16.2661728 18.6775382,16.3659823 L15.5664271,17.9374101 C15.1827639,18.1312113 14.7222222,17.8524793 14.7222222,17.4103434 L14.7222222,9.16108436 C14.7222222,8.93787779 14.8470528,8.73382723 15.044684,8.63401767 L18.1557951,7.06258993 C18.5394583,6.8687887 19,7.14752069 19,7.58965662 Z M13.9869063,8.62262482 L10.4869063,7.05119708 C10.1040694,6.87932217 9.66666667,7.16073051 9.66666667,7.58970573 L9.66666667,15.8388911 C9.66666667,16.0717677 9.80243651,16.2827982 10.0130937,16.3773752 L13.5130937,17.9488029 C13.8959306,18.1206778 14.3333333,17.8392695 14.3333333,17.4103188 L14.3333333,9.16113347 C14.3333333,8.928248 14.1975715,8.71720543 13.9869062,8.62262482 L13.9869063,8.62262482 Z M8.43357292,7.06258993 L5.32246181,8.63364937 C5.12483059,8.73345892 5,8.93750949 5,9.16071606 L5,17.4103434 C5,17.8524793 5.46054167,18.1312113 5.84420486,17.9374101 L8.95531597,16.3663506 C9.15294718,16.2665411 9.27777778,16.0624905 9.27777778,15.8392839 L9.27777778,7.58965662 C9.27777778,7.14752069 8.81723611,6.8687887 8.43357292,7.06258993 Z" id="Shape"></path>
            </g>
        </g>
    </g>
</svg>