<?xml version="1.0" encoding="UTF-8"?>
<svg width="14px" height="18px" viewBox="0 0 14 18" version="1.1" xmlns="http://www.w3.org/2000/svg" xmlns:xlink="http://www.w3.org/1999/xlink">
    <!-- Generator: Sketch 60.1 (88133) - https://sketch.com -->
    <title>badge</title>
    <desc>Created with Sketch.</desc>
    <g id="Page-3" stroke="none" stroke-width="1" fill="none" fill-rule="evenodd" opacity="0.75">
        <g id="HomeMap" transform="translate(-189.000000, -23.000000)" fill="#FFFFFF" fill-rule="nonzero">
            <g id="Topbar">
                <g id="Group-30" transform="translate(148.000000, 16.000000)">
                    <path d="M48,10.3733025 C46.0702856,10.3733025 44.5000456,11.887476 44.5000456,13.7482886 C44.5000456,15.6091012 46.0702856,17.1232747 48,17.1232747 C49.9297144,17.1232747 51.4999544,15.6091012 51.4999544,13.7482886 C51.4999544,11.887476 49.930079,10.3733025 48,10.3733025 Z M48,15.9982793 C46.7134022,15.9982793 45.6666971,14.9889476 45.6666971,13.7482886 C45.6666971,12.5076297 46.7134022,11.4982979 48,11.4982979 C49.2865978,11.4982979 50.3333029,12.5076297 50.3333029,13.7482886 C50.3333029,14.9889476 49.2865978,15.9982793 48,15.9982793 Z M54.4030937,16.5741363 C54.9156911,16.0710525 55.1173031,15.3320711 54.9306389,14.6454724 C54.6976731,13.7946947 54.6976731,13.9265301 54.9306389,13.0743461 C55.1176677,12.3880989 54.9156911,11.6494691 54.4030937,11.1456822 C53.7621645,10.522716 53.8354448,10.629239 53.604302,9.78900807 C53.416544,9.09889372 52.8616554,8.5557319 52.1561958,8.37081079 C51.3067277,8.14862421 51.4044348,8.20979583 50.7799117,7.58964214 C50.2614809,7.0826911 49.4995117,6.88370755 48.7918647,7.06862866 C47.935105,7.29749491 48.0590617,7.2939793 47.2070416,7.06862866 C46.5052278,6.88194975 45.7385191,7.0826911 45.2200883,7.59069682 C44.5893674,8.2119052 44.7020221,8.1451086 43.8448979,8.37081079 C43.1387092,8.5557319 42.5838206,9.09889372 42.395698,9.78830494 C42.163826,10.6334577 42.2360126,10.5220129 41.5969063,11.1460337 C41.0843089,11.6494691 40.8826969,12.3884505 41.0697257,13.0750492 C41.3026914,13.9247723 41.3026914,13.7929369 41.0697257,14.6461755 C40.8826969,15.3324227 41.0846734,16.0710525 41.5972709,16.5748394 C42.2382001,17.1978056 42.1649198,17.0912826 42.3960626,17.9315135 C42.4693429,18.2001062 42.6115285,18.4363552 42.7832451,18.647995 L41.0438406,22.7746186 C40.8867073,23.1462186 41.1718077,23.5494591 41.5830524,23.5494591 C41.6031042,23.5494591 41.47696,23.5536778 43.5269854,23.4780922 L44.8485827,24.8242195 C44.965977,24.9437502 45.1191,25 45.2707647,25 C45.4957097,25 45.7166443,24.8758989 45.8125285,24.6498452 L47.7247432,20.113653 C47.9032518,20.0546532 48.0970319,20.0545295 48.2756214,20.1133014 L50.1874715,24.6498452 C50.2829911,24.8758989 50.5042903,25 50.7292353,25 C50.8809,25 51.034023,24.9437502 51.1514173,24.8242195 L52.4730146,23.4784438 C54.52304,23.5540294 54.3968958,23.5498107 54.4169476,23.5498107 C54.8281923,23.5498107 55.1132927,23.1465701 54.9561594,22.7749701 L53.2171195,18.6486981 C53.388836,18.4370583 53.5310217,18.2008093 53.604302,17.9325682 C53.836174,17.0867123 53.7639874,17.1981572 54.4030937,16.5741363 L54.4030937,16.5741363 Z M45.0731631,23.4162175 C44.2495801,22.5773928 44.469421,22.8013372 44.0111457,22.3344641 C43.3439669,22.3590734 43.666619,22.3471203 42.464968,22.3917686 L43.7610448,19.3163125 C43.7898465,19.3254531 43.8146379,19.3426796 43.8441687,19.3504139 C44.6415021,19.5564287 44.5900965,19.512132 44.9958725,19.9097476 C45.3582636,20.2662305 45.8267471,20.4571281 46.3068971,20.4898233 L45.0731631,23.4162175 L45.0731631,23.4162175 Z M53.5353966,22.391417 C52.3355685,22.3471203 52.6556685,22.3590734 51.9892189,22.3344641 C51.5313082,22.8009856 51.7507845,22.5773928 50.9272014,23.4162175 L49.69128,20.4841983 C50.1728884,20.4522063 50.6413718,20.2658789 51.0044921,19.909396 C51.4204763,19.5012336 51.3628728,19.5511553 52.1561958,19.3500624 C52.1857267,19.342328 52.2105181,19.3251015 52.2393198,19.3163125 L53.5353966,22.391417 L53.5353966,22.391417 Z M52.4762958,17.6456944 C52.3942657,17.9473338 52.1540084,18.1846375 51.8484915,18.2647934 C50.9873569,18.4845191 50.8134529,18.4915503 50.1725238,19.1215477 C49.8808609,19.4066637 49.4364396,19.4593979 49.0879025,19.2438909 C48.4269215,18.8417051 47.5727139,18.8413535 46.9117329,19.2445941 C46.5653833,19.4565854 46.1187745,19.4070153 45.8271116,19.1208446 C45.1934741,18.4992846 45.0206638,18.4897925 44.1511439,18.2644418 C43.845627,18.1842859 43.6053698,17.9469822 43.5233396,17.6449913 C43.2294892,16.5681598 43.2488119,16.5836285 42.4285101,15.786288 C42.202836,15.564453 42.1138788,15.2371497 42.1973673,14.9316431 C42.4944988,13.8604366 42.4963217,13.860085 42.1973673,12.7888785 C42.1142434,12.4833719 42.2032005,12.1560686 42.4285101,11.9345852 C43.2458953,11.1365416 43.2283955,11.1590415 43.5233396,10.0744756 C43.6053698,9.77283626 43.845627,9.53553255 44.1511439,9.45607975 C45.2736814,9.16041691 45.2332131,9.18186213 46.0516921,8.37959982 C46.2412729,8.1929209 46.5555397,8.06460112 46.900431,8.15424918 C48.0109374,8.44885734 47.9886981,8.44956047 49.0981107,8.15424918 C49.3967006,8.07444483 49.7248213,8.16092884 49.9479434,8.37819357 C50.760589,9.18221369 50.7452767,9.16709657 51.8495853,9.45607975 C52.1536438,9.53588411 52.3942657,9.77318782 52.4762958,10.0751788 C52.7701462,11.1520103 52.7508235,11.1365416 53.5711253,11.933882 C53.7967995,12.1557171 53.8857566,12.4830204 53.8022681,12.7885269 C53.5036783,13.8614913 53.504772,13.8621944 53.8022681,14.9312915 C53.8853921,15.2367981 53.7964349,15.5641014 53.5711253,15.7855849 C52.7541047,16.58398 52.7712399,16.5611286 52.4762958,17.6456944 L52.4762958,17.6456944 Z" id="badge"></path>
                </g>
            </g>
        </g>
    </g>
</svg>