<?xml version="1.0" encoding="UTF-8"?>
<svg width="18px" height="24px" viewBox="0 0 18 24" version="1.1" xmlns="http://www.w3.org/2000/svg" xmlns:xlink="http://www.w3.org/1999/xlink">
    <!-- Generator: Sketch 60.1 (88133) - https://sketch.com -->
    <title>badgeDark</title>
    <desc>Created with Sketch.</desc>
    <g id="Page-3" stroke="none" stroke-width="1" fill="none" fill-rule="evenodd">
        <g id="Parceiro-VIP" transform="translate(-26.000000, -791.000000)" fill="#262061" fill-rule="nonzero">
            <path d="M30.5525458,807.998321 C30.1452062,807.590985 30.3575478,807.705827 29.3750579,807.442863 C28.9292812,807.323334 28.5374102,807.093651 28.1830389,806.8185 L26.056342,812.032772 C25.8505629,812.537605 26.2349339,813.086032 26.7796158,813.065407 L29.2494342,812.97119 L30.9481667,814.76553 C31.3231628,815.161147 31.9812811,815.037868 32.1870602,814.533034 L34.6268788,808.550966 C34.1187591,808.834085 33.5548586,809.00002 32.9717396,809.00002 C32.0576865,809.00002 31.1989454,808.644245 30.5525458,807.998321 Z M43.943658,812.032772 L41.8169611,806.8185 C41.4625898,807.09412 41.0707188,807.323334 40.6249421,807.442863 C39.637296,807.707233 39.8538563,807.591923 39.4474542,807.998321 C38.8010546,808.644245 37.9418447,809.00002 37.0277916,809.00002 C36.4446726,809.00002 35.8807722,808.833617 35.3726524,808.550966 L37.8124711,814.533034 C38.0182502,815.037868 38.6768372,815.161147 39.0513646,814.76553 L40.7505658,812.97119 L43.2203842,813.065407 C43.7650661,813.086032 44.1494371,812.537137 43.943658,812.032772 L43.943658,812.032772 Z M38.3280908,806.937561 C39.0443334,806.208669 39.1263638,806.27148 40.1463533,805.993517 C40.7974403,805.815864 41.3064976,805.297906 41.4808708,804.635106 C41.8314922,803.303883 41.7405556,803.464661 42.6972645,802.490618 C43.1739784,802.005471 43.3600702,801.298142 43.185697,800.635342 C42.8355444,799.305056 42.8350756,799.490678 43.185697,798.158985 C43.3600702,797.496186 43.1739784,796.788856 42.6972645,796.30371 C41.7405556,795.329667 41.8314922,795.489976 41.4808708,794.159221 C41.3064976,793.496422 40.7974403,792.978464 40.1463533,792.800811 C38.8394917,792.444099 38.9969901,792.537379 38.0393437,791.562867 C37.5626299,791.07772 36.8674808,790.88788 36.2163937,791.065533 C34.9100009,791.421776 35.0923428,791.422245 33.7836063,791.065533 C33.1325192,790.88788 32.4373701,791.077251 31.9606563,791.562867 C31.0039474,792.53691 31.1614457,792.444099 29.8541155,792.800811 C29.2030284,792.978464 28.6939711,793.496422 28.5195979,794.159221 C28.1694453,795.489976 28.2599131,795.329667 27.3032042,796.30371 C26.8264904,796.788856 26.6399298,797.496186 26.8147717,798.158985 C27.1649244,799.488334 27.1653931,799.302713 26.8147717,800.634874 C26.6403985,801.297673 26.8264904,802.005003 27.3032042,802.490618 C28.2599131,803.464661 28.1689765,803.303883 28.5195979,804.635106 C28.6939711,805.297906 29.2030284,805.815864 29.8541155,805.993517 C30.9031672,806.279449 30.9814476,806.23445 31.6719092,806.937561 C32.2920591,807.568954 33.2581429,807.681921 34.0034478,807.210368 C34.6118478,806.824128 35.3886209,806.824128 35.997021,807.210368 C36.7418571,807.681921 37.7079409,807.568954 38.3280908,806.937561 Z M30.577858,799.248339 C30.577858,796.762607 32.5578376,794.747491 35,794.747491 C37.4421624,794.747491 39.422142,796.762607 39.422142,799.248339 C39.422142,801.73407 37.4421624,803.749187 35,803.749187 C32.5578376,803.749187 30.577858,801.73407 30.577858,799.248339 L30.577858,799.248339 Z" id="badgeDark"></path>
        </g>
    </g>
</svg>