<?xml version="1.0" encoding="UTF-8"?>
<svg width="16px" height="13px" viewBox="0 0 16 13" version="1.1" xmlns="http://www.w3.org/2000/svg" xmlns:xlink="http://www.w3.org/1999/xlink">
    <!-- Generator: Sketch 60.1 (88133) - https://sketch.com -->
    <title>bars</title>
    <desc>Created with Sketch.</desc>
    <g id="Page-3" stroke="none" stroke-width="1" fill="none" fill-rule="evenodd">
        <g id="HomeMap" transform="translate(-312.000000, -26.000000)" fill="#FFFFFF" fill-rule="nonzero">
            <g id="Topbar">
                <g id="Menu" transform="translate(304.000000, 16.000000)">
                    <path d="M23.7857143,11.5569823 L8.21428571,11.5569823 C8.09593898,11.5569823 8,11.4621213 8,11.3451043 L8,10.4975923 C8,10.3805753 8.09593898,10.2857143 8.21428571,10.2857143 L23.7857143,10.2857143 C23.904061,10.2857143 24,10.3805753 24,10.4975923 L24,11.3451043 C24,11.4621213 23.904061,11.5569823 23.7857143,11.5569823 Z M23.7857143,17.2070626 L8.21428571,17.2070626 C8.09593898,17.2070626 8,17.1122016 8,16.9951846 L8,16.1476726 C8,16.0306556 8.09593898,15.9357945 8.21428571,15.9357945 L23.7857143,15.9357945 C23.904061,15.9357945 24,16.0306556 24,16.1476726 L24,16.9951846 C24,17.1122016 23.904061,17.2070626 23.7857143,17.2070626 Z M23.7857143,22.8571429 L8.21428571,22.8571429 C8.09593898,22.8571429 8,22.7622818 8,22.6452648 L8,21.7977528 C8,21.6807358 8.09593898,21.5858748 8.21428571,21.5858748 L23.7857143,21.5858748 C23.904061,21.5858748 24,21.6807358 24,21.7977528 L24,22.6452648 C24,22.7622818 23.904061,22.8571429 23.7857143,22.8571429 Z" id="bars"></path>
                </g>
            </g>
        </g>
    </g>
</svg>