<?xml version="1.0" encoding="UTF-8"?>
<svg width="5px" height="16px" viewBox="0 0 5 16" version="1.1" xmlns="http://www.w3.org/2000/svg" xmlns:xlink="http://www.w3.org/1999/xlink">
    <!-- Generator: Sketch 60.1 (88133) - https://sketch.com -->
    <title>Ellipsis-v</title>
    <desc>Created with Sketch.</desc>
    <g id="Page-3" stroke="none" stroke-width="1" fill="none" fill-rule="evenodd">
        <g id="Parceiro-Cinema" transform="translate(-325.000000, -24.000000)" fill="#FFFFFF" fill-rule="nonzero">
            <g id="Group">
                <g id="Menu-Copy" transform="translate(316.000000, 20.000000)">
                    <path d="M11.5,9.67741935 C12.8819444,9.67741935 14,10.716129 14,12 C14,13.283871 12.8819444,14.3225806 11.5,14.3225806 C10.1180556,14.3225806 9,13.283871 9,12 C9,10.716129 10.1180556,9.67741935 11.5,9.67741935 Z M9,6.32258065 C9,7.60645161 10.1180556,8.64516129 11.5,8.64516129 C12.8819444,8.64516129 14,7.60645161 14,6.32258065 C14,5.03870968 12.8819444,4 11.5,4 C10.1180556,4 9,5.03870968 9,6.32258065 Z M9,17.6774194 C9,18.9612903 10.1180556,20 11.5,20 C12.8819444,20 14,18.9612903 14,17.6774194 C14,16.3935484 12.8819444,15.3548387 11.5,15.3548387 C10.1180556,15.3548387 9,16.3935484 9,17.6774194 Z" id="Ellipsis-v"></path>
                </g>
            </g>
        </g>
    </g>
</svg>