<?xml version="1.0" encoding="UTF-8"?>
<svg width="14px" height="12px" viewBox="0 0 14 4" version="1.1" xmlns="http://www.w3.org/2000/svg" xmlns:xlink="http://www.w3.org/1999/xlink">
    <!-- Generator: Sketch 61 (89581) - https://sketch.com -->
    <title>ellipsis-h</title>
    <desc>Created with Sketch.</desc>
    <g id="Page-1" stroke="none" stroke-width="1" fill="none" fill-rule="evenodd" transform="translate(0, 4px)">
        <g id="HomeVIP" transform="translate(-305.000000, -143.000000)" fill="#30287B" fill-rule="nonzero">
            <g id="Group-17" transform="translate(24.000000, 122.000000)">
                <g id="Group-16" transform="translate(265.000000, 0.000000)">
                    <g id="Group-25">
                        <path d="M25.0322581,23 C25.0322581,24.1055556 24.1233871,25 23,25 C21.8766129,25 20.9677419,24.1055556 20.9677419,23 C20.9677419,21.8944444 21.8766129,21 23,21 C24.1233871,21 25.0322581,21.8944444 25.0322581,23 Z M27.9677419,21 C26.8443548,21 25.9354839,21.8944444 25.9354839,23 C25.9354839,24.1055556 26.8443548,25 27.9677419,25 C29.091129,25 30,24.1055556 30,23 C30,21.8944444 29.091129,21 27.9677419,21 Z M18.0322581,21 C16.908871,21 16,21.8944444 16,23 C16,24.1055556 16.908871,25 18.0322581,25 C19.1556452,25 20.0645161,24.1055556 20.0645161,23 C20.0645161,21.8944444 19.1556452,21 18.0322581,21 Z" id="ellipsis-h"></path>
                    </g>
                </g>
            </g>
        </g>
    </g>
</svg>