<?xml version="1.0" encoding="UTF-8"?>
<svg width="32px" height="26px" viewBox="0 0 32 26" version="1.1" xmlns="http://www.w3.org/2000/svg" xmlns:xlink="http://www.w3.org/1999/xlink">
    <!-- Generator: Sketch 61 (89581) - https://sketch.com -->
    <title>icon-no-internet</title>
    <desc>Created with Sketch.</desc>
    <g id="Page-1" stroke="none" stroke-width="1" fill="none" fill-rule="evenodd">
        <g id="Desafio" transform="translate(-40.000000, -109.000000)" fill="#FFFFFF" fill-rule="nonzero">
            <g id="Group-15" transform="translate(24.000000, 88.000000)">
                <path d="M16.2544542,28.8644092 C15.9214585,29.1772202 15.9149585,29.7068661 16.2369544,30.0308489 L17.9489323,31.7553718 C18.2559283,32.0646281 18.7499219,32.0717375 19.0689178,31.7746686 C19.4184133,31.4496702 19.7844086,31.1541247 20.1514038,30.8601027 L16.9034458,28.3103884 C16.6884486,28.498786 16.4639515,28.6678867 16.2544542,28.8644092 Z M39.8416497,38.101474 L42.1126203,35.8056648 C42.4386161,35.4776195 42.4271163,34.9393408 42.0841207,34.6290689 C38.8371626,31.6969736 34.6387168,30.431511 30.5672694,30.8215091 L26.4093231,27.5578139 C32.7062418,25.6098546 39.7966502,26.9987151 44.930584,31.7751764 C45.2495798,32.0722453 45.7435735,32.0651359 46.0505695,31.7558796 L47.7625474,30.0313567 C48.0845432,29.7068661 48.0775433,29.1772202 47.7450476,28.864917 C40.822637,22.3619015 30.903765,20.9613614 22.6708713,24.6231797 L18.2734281,21.171087 C17.9244326,20.8958539 17.4214391,20.9593302 17.1504426,21.3137816 L16.1684553,22.5970176 C15.8974588,22.9509612 15.959958,23.4613103 16.3089535,23.7370511 L45.7265737,46.8286975 C46.0755692,47.1044383 46.5780627,47.0404543 46.8495592,46.6860029 L47.8315465,45.4027669 C48.102543,45.0488233 48.0400438,44.5379664 47.6910483,44.2627333 L39.8416497,38.101474 Z M21.9153811,34.6290689 C21.5723855,34.938833 21.5613856,35.4771116 21.8868814,35.8056648 L23.6008593,37.5327267 C23.8993555,37.8338581 24.3803493,37.8536627 24.6978452,37.5733515 C25.3653365,36.9842919 26.0983271,36.524216 26.8553173,36.1235538 L23.4373614,33.4407934 C22.9133682,33.8038775 22.4003748,34.1913366 21.9153811,34.6290689 Z M28.7997922,42.124853 C28.7997922,43.9199615 30.2322737,45.3748373 31.9997509,45.3748373 C33.5952303,45.3748373 34.9072134,44.1855462 35.1492102,42.6336787 L30.7142675,39.152133 C29.588282,39.6553727 28.7997922,40.7954063 28.7997922,42.124853 Z" id="icon-no-internet"></path>
            </g>
        </g>
    </g>
</svg>