<?xml version="1.0" encoding="UTF-8"?>
<svg width="32px" height="26px" viewBox="0 0 32 26" version="1.1" xmlns="http://www.w3.org/2000/svg" xmlns:xlink="http://www.w3.org/1999/xlink">
    <!-- Generator: Sketch 60.1 (88133) - https://sketch.com -->
    <title>noLocation</title>
    <desc>Created with Sketch.</desc>
    <g id="Page-1" stroke="none" stroke-width="1" fill="none" fill-rule="evenodd">
        <g id="HomeLocation" transform="translate(-41.000000, -109.000000)" fill="#FFFFFF" fill-rule="nonzero">
            <g id="Start" transform="translate(0.000000, 64.000000)">
                <g id="Group-4" transform="translate(24.000000, 24.000000)">
                    <g id="Group-15">
                        <path d="M48.6995403,44.9189844 L18.8002009,21.1782426 C18.4552027,20.8979301 17.9517054,20.9542973 17.6757069,21.3046879 L17.1757096,21.9389457 C16.8992111,22.2893364 16.9552108,22.8007035 17.3002089,23.081016 L47.2000484,46.8217578 C47.5450465,47.1020703 48.0480438,47.0451953 48.3245423,46.6953125 L48.8245397,46.0610547 C49.1005382,45.7106641 49.0450385,45.1992969 48.6995403,44.9189844 Z M33.0001246,23.4375004 C36.9701033,23.4375004 40.200086,26.7179691 40.200086,30.7500003 C40.200086,32.0230862 40.0535867,32.8635159 39.256091,34.3265237 L41.1675808,35.8443752 C42.2950747,33.8710159 42.6000731,32.6263674 42.6000731,30.7500003 C42.6000731,25.3875004 38.2800963,21.0000004 33.0001246,21.0000004 C30.329139,21.0000004 27.906152,22.1253129 26.1616613,23.9295707 L28.0726511,25.4469144 C29.3626442,24.2098832 31.0901349,23.4375004 33.0001246,23.4375004 Z M34.970614,40.8092579 C34.3756172,41.6659376 33.7206208,42.6089454 33.0001246,43.6525001 C32.2796285,42.6084376 31.624632,41.6659376 31.0296352,40.8092579 C28.1161508,36.6147267 26.8086579,34.6987502 26.233161,33.2677346 L23.4066761,31.0232034 C23.4701758,34.7043361 24.8591683,36.0485158 32.0401298,46.5125 C32.2801285,46.8375 32.6401266,47 33.0001246,47 C33.3601227,47 33.7201208,46.8375 33.9601195,46.5125 C35.1831129,44.7300782 36.2246073,43.2325391 37.1341024,41.9228907 L35.2406126,40.4197657 C35.1486131,40.5523048 35.0656135,40.6721485 34.970614,40.8092579 L34.970614,40.8092579 Z" id="noLocation"></path>
                    </g>
                </g>
            </g>
        </g>
    </g>
</svg>