<?xml version="1.0" encoding="UTF-8"?>
<svg width="19px" height="15px" viewBox="0 0 19 15" version="1.1" xmlns="http://www.w3.org/2000/svg" xmlns:xlink="http://www.w3.org/1999/xlink">
    <!-- Generator: Sketch 60.1 (88133) - https://sketch.com -->
    <title>amigos</title>
    <desc>Created with Sketch.</desc>
    <g id="Page-3" stroke="none" stroke-width="1" fill="none" fill-rule="evenodd">
        <g id="Menu" transform="translate(-68.000000, -341.000000)" fill="#FFFFFF" fill-rule="nonzero">
            <g id="Search" transform="translate(56.000000, 172.000000)">
                <g id="Group-7-Copy-3" transform="translate(0.000000, 156.000000)">
                    <g id="Group-3">
                        <path d="M18.65,21.4375 C21.0101563,21.4375 22.925,19.5478516 22.925,17.21875 C22.925,14.8896484 21.0101563,13 18.65,13 C16.2898437,13 14.375,14.8896484 14.375,17.21875 C14.375,19.5478516 16.2898437,21.4375 18.65,21.4375 Z M18.65,14.40625 C20.2204687,14.40625 21.5,15.6689453 21.5,17.21875 C21.5,18.7685547 20.2204687,20.03125 18.65,20.03125 C17.0795313,20.03125 15.8,18.7685547 15.8,17.21875 C15.8,15.6689453 17.0795312,14.40625 18.65,14.40625 Z M21.31,21.90625 C20.4579687,21.90625 20.0482813,22.375 18.65,22.375 C17.2517188,22.375 16.845,21.90625 15.99,21.90625 C13.7871875,21.90625 12,23.6699219 12,25.84375 L12,26.59375 C12,27.3701172 12.6382813,28 13.425,28 L23.875,28 C24.6617187,28 25.3,27.3701172 25.3,26.59375 L25.3,25.84375 C25.3,23.6699219 23.5128125,21.90625 21.31,21.90625 Z M23.875,26.59375 L13.425,26.59375 L13.425,25.84375 C13.425,24.4492188 14.576875,23.3125 15.99,23.3125 C16.4234375,23.3125 17.1270313,23.78125 18.65,23.78125 C20.1848437,23.78125 20.8735937,23.3125 21.31,23.3125 C22.723125,23.3125 23.875,24.4492188 23.875,25.84375 L23.875,26.59375 Z M30.525,19.328125 L28.3875,19.328125 L28.3875,17.21875 C28.3875,16.9609375 28.17375,16.75 27.9125,16.75 L27.4375,16.75 C27.17625,16.75 26.9625,16.9609375 26.9625,17.21875 L26.9625,19.328125 L24.825,19.328125 C24.56375,19.328125 24.35,19.5390625 24.35,19.796875 L24.35,20.265625 C24.35,20.5234375 24.56375,20.734375 24.825,20.734375 L26.9625,20.734375 L26.9625,22.84375 C26.9625,23.1015625 27.17625,23.3125 27.4375,23.3125 L27.9125,23.3125 C28.17375,23.3125 28.3875,23.1015625 28.3875,22.84375 L28.3875,20.734375 L30.525,20.734375 C30.78625,20.734375 31,20.5234375 31,20.265625 L31,19.796875 C31,19.5390625 30.78625,19.328125 30.525,19.328125 Z" id="amigos"></path>
                    </g>
                </g>
            </g>
        </g>
    </g>
</svg>