<?xml version="1.0" encoding="UTF-8"?>
<svg width="26px" height="16px" viewBox="0 0 26 16" version="1.1" xmlns="http://www.w3.org/2000/svg" xmlns:xlink="http://www.w3.org/1999/xlink">
    <!-- Generator: Sketch 60.1 (88133) - https://sketch.com -->
    <title>group</title>
    <desc>Created with Sketch.</desc>
    <g id="Page-1" stroke="none" stroke-width="1" fill="none" fill-rule="evenodd">
        <g id="HomeVIP-NotVIP" transform="translate(-309.000000, -830.000000)" fill="#B294FF" fill-rule="nonzero">
            <g id="Group-2" transform="translate(0.000000, 372.000000)">
                <g id="Place" transform="translate(0.000000, 164.000000)">
                    <g id="Group-14" transform="translate(0.000000, 128.000000)">
                        <g id="Group-6">
                            <g id="Group-7">
                                <g id="Group-4" transform="translate(22.000000, 158.000000)">
                                    <g id="Group-10" transform="translate(58.000000, 8.000000)">
                                        <g id="Group-Copy" transform="translate(229.000000, 0.000000)">
                                            <path d="M13,0 C15.3558438,0 17.265625,1.95875 17.265625,4.375 C17.265625,6.79125 15.3558438,8.75 13,8.75 C10.6441562,8.75 8.734375,6.79125 8.734375,4.375 C8.734375,1.95875 10.6441562,0 13,0 Z M17.6094344,9.05691667 L15.9851656,8.64041667 C13.9877156,10.1139583 11.5665469,9.785125 10.014875,8.64041667 L8.39060625,9.05691667 C7.08845313,9.39079167 6.175,10.5907083 6.175,11.9673333 L6.175,14.5 C6.175,15.3284167 6.82979375,16 7.6375,16 L18.3625,16 C19.1702062,16 19.825,15.3284167 19.825,14.5 L19.825,11.9673333 C19.825,10.5907083 18.9115469,9.39079167 17.6094344,9.05691667 Z M21.45,9.83333333 C23.0205625,9.83333333 24.29375,8.5275 24.29375,6.91666667 C24.29375,5.30583333 23.0205625,4 21.45,4 C19.8794375,4 18.60625,5.30583333 18.60625,6.91666667 C18.60625,8.5275 19.8794375,9.83333333 21.45,9.83333333 Z M4.55,9.83333333 C6.1205625,9.83333333 7.39375,8.5275 7.39375,6.91666667 C7.39375,5.30583333 6.1205625,4 4.55,4 C2.9794375,4 1.70625,5.30583333 1.70625,6.91666667 C1.70625,8.5275 2.9794375,9.83333333 4.55,9.83333333 Z M5.525,14.5 L5.525,11.9673333 C5.525,11.2777083 5.71159063,10.6255 6.04105938,10.067375 C4.82279688,10.6807083 3.46803438,10.4302083 2.55990313,9.76029167 L1.47704375,10.0379583 C0.60896875,10.2605 0,11.0605 0,11.9782083 L0,13.6666667 C0,14.2189583 0.436515625,14.6666667 0.975,14.6666667 L5.53186563,14.6666667 C5.52750856,14.6112211 5.52521835,14.555625 5.525,14.5 L5.525,14.5 Z M24.5229563,10.0379167 L23.4400969,9.76025 C22.3056438,10.5971667 20.9664406,10.561625 19.9550406,10.061 C20.2868656,10.6205417 20.475,11.2750417 20.475,11.9673333 L20.475,14.5 C20.475,14.556125 20.4722375,14.6115833 20.4681344,14.6666667 L25.025,14.6666667 C25.5634844,14.6666667 26,14.2189583 26,13.6666667 L26,11.9782083 C26,11.0605 25.3910313,10.2605 24.5229563,10.0379167 Z" id="group"></path>
                                        </g>
                                    </g>
                                </g>
                            </g>
                        </g>
                    </g>
                </g>
            </g>
        </g>
    </g>
</svg>