<?xml version="1.0" encoding="UTF-8"?>
<svg width="18px" height="18px" viewBox="0 0 18 18" version="1.1" xmlns="http://www.w3.org/2000/svg" xmlns:xlink="http://www.w3.org/1999/xlink">
    <!-- Generator: Sketch 60.1 (88133) - https://sketch.com -->
    <title>phone</title>
    <desc>Created with Sketch.</desc>
    <g id="Page-3" stroke="none" stroke-width="1" fill="none" fill-rule="evenodd">
        <g id="Parceiro-VIP" transform="translate(-36.000000, -692.000000)" fill="#B294FF" fill-rule="nonzero">
            <g id="Group-30" transform="translate(0.000000, 584.000000)">
                <g id="Group-24" transform="translate(0.000000, 108.000000)">
                    <path d="M53.3459878,0.865353178 L49.689735,0.0217077651 C49.2919769,-0.0700852996 48.8853945,0.13603601 48.7244843,0.511469996 L47.036983,4.44886864 C46.8889016,4.79439913 46.9872737,5.19621687 47.2782254,5.43426421 L49.4092934,7.1778754 C48.1446166,9.87348369 45.9310017,12.1176149 43.1778785,13.4092569 L41.4342678,11.2782234 C41.1962205,10.9872717 40.7944029,10.8888996 40.4488725,11.036981 L36.511475,12.7244828 C36.1361466,12.8853228 35.9298847,13.2918701 36.0217129,13.6897338 L36.865358,17.3459876 C36.9530378,17.7259216 37.2919092,18 37.6874876,18 C46.690553,18 54,10.7039455 54,1.68748294 C54,1.29457628 53.7288045,0.953665771 53.3459878,0.865353178 Z" id="phone"></path>
                </g>
            </g>
        </g>
    </g>
</svg>