<?xml version="1.0" encoding="UTF-8"?>
<svg width="32px" height="28px" viewBox="0 0 32 28" version="1.1" xmlns="http://www.w3.org/2000/svg" xmlns:xlink="http://www.w3.org/1999/xlink">
    <!-- Generator: Sketch 60.1 (88133) - https://sketch.com -->
    <title>Pig</title>
    <desc>Created with Sketch.</desc>
    <g id="Page-1" stroke="none" stroke-width="1" fill="none" fill-rule="evenodd">
        <g id="HomeBanner" transform="translate(-40.000000, -108.000000)" fill="#FFFFFF" fill-rule="nonzero">
            <g id="Start" transform="translate(0.000000, 64.000000)">
                <g id="Group-4" transform="translate(24.000000, 24.000000)">
                    <g id="Group-15">
                        <path d="M39.9996869,34 C39.5107789,34 39.1107632,34.39375 39.1107632,34.875 C39.1107632,35.35625 39.5107789,35.75 39.9996869,35.75 C40.4885949,35.75 40.8886106,35.35625 40.8886106,34.875 C40.8886106,34.39375 40.4885949,34 39.9996869,34 Z M47.1110763,32.25 L45.4721233,32.25 C44.8554325,30.8664062 43.8776164,29.6851562 42.6664579,28.7828125 L42.6664579,25.25 L41.7775342,25.25 C40.094135,25.25 38.5662974,25.8023437 37.2829139,26.6828125 C37.305137,26.496875 37.3329158,26.3164062 37.3329158,26.125 C37.3329158,22.7398437 34.5494736,20 31.1104501,20 C27.6714266,20 24.8879843,22.7398437 24.8879843,26.125 C24.8879843,26.6554688 24.9768767,27.1585938 25.1102152,27.6507813 C22.3878865,28.7335937 20.3322505,31.1015625 19.732227,34 L19.1099804,34 C18.287726,34 17.6377006,33.2617188 17.8043738,32.425 C17.9266008,31.8015625 18.5210685,31.375 19.1655381,31.375 L19.2210959,31.375 C19.4044364,31.375 19.5544422,31.2273438 19.5544422,31.046875 L19.5544422,29.953125 C19.5544422,29.7726562 19.4044364,29.625 19.2210959,29.625 C17.6377006,29.625 16.2265342,30.740625 16.0265264,32.2828125 C15.7820724,34.153125 17.259908,35.75 19.1099804,35.75 L19.5544422,35.75 C19.5544422,38.6046875 20.9656086,41.1148438 23.110137,42.7117188 L23.110137,47.125 C23.110137,47.60625 23.5101526,48 23.9990606,48 L30.2215264,48 C30.7104344,48 31.1104501,47.60625 31.1104501,47.125 L31.1104501,44.5 L34.6661448,44.5 L34.6661448,47.125 C34.6661448,47.60625 35.0661605,48 35.5550685,48 L41.7775342,48 C42.2664423,48 42.6664579,47.60625 42.6664579,47.125 L42.6664579,42.7007813 C43.3164834,42.2085938 43.9109511,41.6453125 44.4054149,41 L47.1110763,41 C47.5999843,41 48,40.60625 48,40.125 L48,33.125 C48,32.64375 47.5999843,32.25 47.1110763,32.25 Z M31.1104501,21.75 C33.5661018,21.75 35.5550685,23.7078125 35.5550685,26.125 C35.5550685,26.4257812 35.5217338,26.715625 35.4661761,27 L28.443679,27 C27.882546,27 27.3380802,27.065625 26.804726,27.1640625 C26.7158336,26.8304688 26.6658317,26.4859375 26.6658317,26.125 C26.6658317,23.7078125 28.6547984,21.75 31.1104501,21.75 Z M46.2221526,39.25 L43.5164912,39.25 C42.5720098,40.475 42.5720098,40.5679687 40.8886106,41.8367187 L40.8886106,46.25 L36.4439922,46.25 L36.4439922,42.75 L29.3326027,42.75 L29.3326027,46.25 L24.8879843,46.25 L24.8879843,41.8367187 C21.2822877,39.1570313 21.332271,36.7234375 21.332271,35.75 C21.332271,31.8890625 24.5213033,28.75 28.443679,28.75 L37.427364,28.75 C38.3662896,28.0117188 39.2718806,27.3007812 40.8886106,27.065625 L40.8886106,29.6523438 C43.0942524,31.2984375 43.3331507,31.8015625 44.3109667,34 L46.2221526,34 L46.2221526,39.25 Z" id="Pig"></path>
                    </g>
                </g>
            </g>
        </g>
    </g>
</svg>