<?xml version="1.0" encoding="UTF-8"?>
<svg width="60px" height="60px" viewBox="0 0 60 60" version="1.1" xmlns="http://www.w3.org/2000/svg" xmlns:xlink="http://www.w3.org/1999/xlink">
    <!-- Generator: Sketch 61.2 (89653) - https://sketch.com -->
    <title>playIcon</title>
    <desc>Created with Sketch.</desc>
    <g id="Page-3" stroke="none" stroke-width="1" fill="none" fill-rule="evenodd">
        <g id="Filme-ComTrailer" transform="translate(-150.000000, -253.000000)" fill="#FFFFFF" fill-rule="nonzero">
            <g id="Group-22" transform="translate(83.000000, 93.000000)">
                <g id="Group-21">
                    <path d="M110.995968,187.822581 L89.7056452,174.879032 C87.7943548,173.814516 85.3870968,175.181452 85.3870968,177.419355 L85.3870968,202.580645 C85.3870968,204.806452 87.7822581,206.185484 89.7056452,205.120968 L110.995968,192.903226 C112.979839,191.802419 112.979839,188.935484 110.995968,187.822581 Z M127,190 C127,173.427419 113.572581,160 97,160 C80.4274194,160 67,173.427419 67,190 C67,206.572581 80.4274194,220 97,220 C113.572581,220 127,206.572581 127,190 Z M72.8064516,190 C72.8064516,176.633065 83.6330645,165.806452 97,165.806452 C110.366935,165.806452 121.193548,176.633065 121.193548,190 C121.193548,203.366935 110.366935,214.193548 97,214.193548 C83.6330645,214.193548 72.8064516,203.366935 72.8064516,190 Z" id="playIcon"></path>
                </g>
            </g>
        </g>
    </g>
</svg>