<?xml version="1.0" encoding="UTF-8"?>
<svg width="13px" height="13px" viewBox="0 0 13 13" version="1.1" xmlns="http://www.w3.org/2000/svg" xmlns:xlink="http://www.w3.org/1999/xlink">
    <!-- Generator: Sketch 61.2 (89653) - https://sketch.com -->
    <title>plus</title>
    <desc>Created with Sketch.</desc>
    <g id="Page-1" stroke="none" stroke-width="1" fill="none" fill-rule="evenodd">
        <g id="GaleriaDeFotos" transform="translate(-321.000000, -25.000000)" fill="#FFFFFF" fill-rule="nonzero">
            <path d="M334,32.6084821 L334,30.3915179 C334,30.0055804 333.689509,29.6950893 333.303571,29.6950893 L329.304911,29.6950893 L329.304911,25.6964286 C329.304911,25.3104911 328.99442,25 328.608482,25 L326.391518,25 C326.00558,25 325.695089,25.3104911 325.695089,25.6964286 L325.695089,29.6950893 L321.696429,29.6950893 C321.310491,29.6950893 321,30.0055804 321,30.3915179 L321,32.6084821 C321,32.9944196 321.310491,33.3049107 321.696429,33.3049107 L325.695089,33.3049107 L325.695089,37.3035714 C325.695089,37.6895089 326.00558,38 326.391518,38 L328.608482,38 C328.99442,38 329.304911,37.6895089 329.304911,37.3035714 L329.304911,33.3049107 L333.303571,33.3049107 C333.689509,33.3049107 334,32.9944196 334,32.6084821 Z" id="plus"></path>
        </g>
    </g>
</svg>