<?xml version="1.0" encoding="UTF-8"?>
<svg width="18px" height="18px" viewBox="0 0 18 18" version="1.1" xmlns="http://www.w3.org/2000/svg" xmlns:xlink="http://www.w3.org/1999/xlink">
    <!-- Generator: Sketch 60.1 (88133) - https://sketch.com -->
    <title>plus</title>
    <desc>Created with Sketch.</desc>
    <g id="Page-3" stroke="none" stroke-width="1" fill="none" fill-rule="evenodd">
        <g id="Parceiro-VIP" transform="translate(-24.000000, -1167.000000)" fill="#30287B" fill-rule="nonzero">
            <g id="Group-32" transform="translate(0.000000, 986.000000)">
                <g id="Group-5-Copy-2" transform="translate(24.000000, 179.000000)">
                    <path d="M18,11 C18,6.02822581 13.9717742,2 9,2 C4.02822581,2 0,6.02822581 0,11 C0,15.9717742 4.02822581,20 9,20 C13.9717742,20 18,15.9717742 18,11 Z M1.74193548,11 C1.74193548,6.98991935 4.98991935,3.74193548 9,3.74193548 C13.0100806,3.74193548 16.2580645,6.98991935 16.2580645,11 C16.2580645,15.0100806 13.0100806,18.2580645 9,18.2580645 C4.98991935,18.2580645 1.74193548,15.0100806 1.74193548,11 Z M14.1428571,10.3571429 L14.1428571,11.6428571 C14.1428571,11.9080357 13.9258929,12.125 13.6607143,12.125 L10.125,12.125 L10.125,15.6607143 C10.125,15.9258929 9.90803571,16.1428571 9.64285714,16.1428571 L8.35714286,16.1428571 C8.09196429,16.1428571 7.875,15.9258929 7.875,15.6607143 L7.875,12.125 L4.33928571,12.125 C4.07410714,12.125 3.85714286,11.9080357 3.85714286,11.6428571 L3.85714286,10.3571429 C3.85714286,10.0919643 4.07410714,9.875 4.33928571,9.875 L7.875,9.875 L7.875,6.33928571 C7.875,6.07410714 8.09196429,5.85714286 8.35714286,5.85714286 L9.64285714,5.85714286 C9.90803571,5.85714286 10.125,6.07410714 10.125,6.33928571 L10.125,9.875 L13.6607143,9.875 C13.9258929,9.875 14.1428571,10.0919643 14.1428571,10.3571429 Z" id="plus"></path>
                </g>
            </g>
        </g>
    </g>
</svg>