<?xml version="1.0" encoding="UTF-8"?>
<svg width="18px" height="12px" viewBox="0 0 18 12" version="1.1" xmlns="http://www.w3.org/2000/svg" xmlns:xlink="http://www.w3.org/1999/xlink">
    <!-- Generator: Sketch 60.1 (88133) - https://sketch.com -->
    <title>privacidade</title>
    <desc>Created with Sketch.</desc>
    <g id="Page-3" stroke="none" stroke-width="1" fill="none" fill-rule="evenodd">
        <g id="Menu" transform="translate(-67.000000, -498.000000)" fill="#FFFFFF" fill-rule="nonzero">
            <g id="Search" transform="translate(56.000000, 172.000000)">
                <g id="Group-7-Copy-6" transform="translate(0.000000, 312.000000)">
                    <g id="Group-3">
                        <path d="M20,16.499984 C19.6687892,16.5051768 19.3400297,16.5577951 19.0237481,16.65625 C19.1700486,16.9135364 19.2479452,17.2040341 19.2499986,17.5 C19.2499986,18.4664983 18.4664954,19.25 17.4999953,19.25 C17.2040287,19.2479466 16.9135306,19.1700502 16.6562437,19.02375 C16.2399474,20.46752 16.7942084,22.0156944 18.0322361,22.8672031 C19.2702637,23.7187118 20.9142668,23.6824916 22.1135909,22.7772839 C23.312915,21.8720761 23.7984532,20.3009933 23.318974,18.8769587 C22.8394949,17.4529241 21.5025851,16.4954657 20,16.499984 L20,16.499984 Z M28.8912669,19.54375 C27.1965762,16.2371875 23.8415698,14 20,14 C16.1584302,14 12.8024863,16.23875 11.1087331,19.5440625 C10.9637556,19.8308437 10.9637556,20.1694688 11.1087331,20.45625 C12.8034238,23.7628125 16.1584302,26 20,26 C23.8415698,26 27.1975137,23.76125 28.8912669,20.4559375 C29.0362444,20.1691563 29.0362444,19.8305312 28.8912669,19.54375 Z M20,24.5 C16.9171816,24.5 14.0909263,22.78125 12.5646734,20 C14.0909263,17.21875 16.9168691,15.5 20,15.5 C23.0831309,15.5 25.9090737,17.21875 27.4353266,20 C25.9093862,22.78125 23.0831309,24.5 20,24.5 Z" id="privacidade"></path>
                    </g>
                </g>
            </g>
        </g>
    </g>
</svg>