<?xml version="1.0" encoding="UTF-8"?>
<svg width="14px" height="14px" viewBox="0 0 14 14" version="1.1" xmlns="http://www.w3.org/2000/svg" xmlns:xlink="http://www.w3.org/1999/xlink">
    <!-- Generator: Sketch 60.1 (88133) - https://sketch.com -->
    <title>SetaLeft</title>
    <desc>Created with Sketch.</desc>
    <g id="Page-3" stroke="none" stroke-width="1" fill="none" fill-rule="evenodd">
        <g id="Evento" transform="translate(-25.000000, -25.000000)" fill="#FFFFFF" fill-rule="nonzero">
            <g id="Group">
                <g id="Arrow" transform="translate(20.000000, 20.000000)">
                    <path d="M12.1843674,18.8888614 L12.8030868,18.2629162 C12.9495245,18.1147684 12.9495245,17.8745576 12.8030868,17.7263782 L7.95526892,12.821976 L18.6249996,12.821976 C18.8320936,12.821976 19,12.6521086 19,12.4425961 L19,11.5573763 C19,11.3478637 18.8320936,11.1779964 18.6249996,11.1779964 L7.95526892,11.1779964 L12.8030868,6.27356256 C12.9495245,6.1254147 12.9495245,5.88520399 12.8030868,5.73702452 L12.1843674,5.11111089 C12.0379297,4.96296304 11.800492,4.96296304 11.6540231,5.11111089 L5.10982825,11.731733 C4.96339058,11.8798808 4.96339058,12.1200915 5.10982825,12.268271 L11.6540231,18.8888931 C11.8004607,19.0370409 12.0378985,19.0370409 12.1843674,18.8888614 Z" id="SetaLeft"></path>
                </g>
            </g>
        </g>
    </g>
</svg>