<?xml version="1.0" encoding="UTF-8"?>
<svg width="14px" height="14px" viewBox="0 0 14 14" version="1.1" xmlns="http://www.w3.org/2000/svg" xmlns:xlink="http://www.w3.org/1999/xlink">
    <!-- Generator: Sketch 60.1 (88133) - https://sketch.com -->
    <title>search</title>
    <desc>Created with Sketch.</desc>
    <g id="Page-3" stroke="none" stroke-width="1" fill="none" fill-rule="evenodd">
        <g id="HomeMap" transform="translate(-33.000000, -25.000000)" fill="#FFFFFF" fill-rule="nonzero">
            <g id="Topbar">
                <g id="Search" transform="translate(24.000000, 16.000000)">
                    <g id="Group-27">
                        <path d="M22.903618,21.8208584 L19.5842488,18.5014892 C19.5213613,18.4386016 19.439334,18.4057907 19.3518383,18.4057907 L18.9909184,18.4057907 C19.8522045,17.4077926 20.3744446,16.1090279 20.3744446,14.6872223 C20.3744446,11.5455788 17.8288658,9 14.6872223,9 C11.5455788,9 9,11.5455788 9,14.6872223 C9,17.8288658 11.5455788,20.3744446 14.6872223,20.3744446 C16.1090279,20.3744446 17.4077926,19.8522045 18.4057907,18.9909184 L18.4057907,19.3518383 C18.4057907,19.439334 18.4413359,19.5213613 18.5014892,19.5842488 L21.8208584,22.903618 C21.9493677,23.0321273 22.1571701,23.0321273 22.2856794,22.903618 L22.903618,22.2856794 C23.0321273,22.1571701 23.0321273,21.9493677 22.903618,21.8208584 Z M14.6872223,19.0620087 C12.2701528,19.0620087 10.3124359,17.1042918 10.3124359,14.6872223 C10.3124359,12.2701528 12.2701528,10.3124359 14.6872223,10.3124359 C17.1042918,10.3124359 19.0620087,12.2701528 19.0620087,14.6872223 C19.0620087,17.1042918 17.1042918,19.0620087 14.6872223,19.0620087 Z" id="search"></path>
                    </g>
                </g>
            </g>
        </g>
    </g>
</svg>