<?xml version="1.0" encoding="UTF-8"?>
<svg width="16px" height="16px" viewBox="0 0 16 16" version="1.1" xmlns="http://www.w3.org/2000/svg" xmlns:xlink="http://www.w3.org/1999/xlink">
    <!-- Generator: Sketch 60.1 (88133) - https://sketch.com -->
    <title>configs</title>
    <desc>Created with Sketch.</desc>
    <g id="Page-3" stroke="none" stroke-width="1" fill="none" fill-rule="evenodd">
        <g id="Menu" transform="translate(-68.000000, -288.000000)" fill="#FFFFFF" fill-rule="nonzero">
            <g id="Search" transform="translate(56.000000, 172.000000)">
                <g id="Group-7-Copy-2" transform="translate(0.000000, 104.000000)">
                    <g id="Group-3">
                        <path d="M26.5406857,19.3871225 L27.6005288,18.7941543 C27.914258,18.6186381 28.0663631,18.260541 27.9725372,17.921444 C27.5929734,16.5494752 26.8461607,15.3231517 25.8404697,14.3473445 C25.5848533,14.0993444 25.1889473,14.0490862 24.8757506,14.224409 L23.817838,14.816603 C23.4741762,14.5782421 23.1074611,14.372763 22.7228477,14.2030541 L22.7228477,13.0174726 C22.722805,12.6663494 22.4791126,12.3591576 22.1290054,12.2688914 C20.7390577,11.9106008 19.2627396,11.9101492 17.8710611,12.2688591 C17.5209531,12.3591172 17.2771523,12.666311 17.2771523,13.0174403 L17.2771523,14.2030218 C16.8925389,14.3727307 16.5258238,14.5782098 16.182162,14.8165707 L15.1242494,14.2243767 C14.8110527,14.049054 14.4151467,14.0993121 14.1595303,14.3473123 C13.1538393,15.3231195 12.4070266,16.5494107 12.0274628,17.9214117 C11.9336369,18.2605088 12.085742,18.6186058 12.3994712,18.7941221 L13.4593143,19.3871225 C13.4187086,19.7947666 13.4187086,20.2052536 13.4593143,20.6128976 L12.3994712,21.2058658 C12.085742,21.3813821 11.9336369,21.7394791 12.0274628,22.0785762 C12.4070266,23.4505449 13.1538393,24.6768684 14.1595303,25.6526756 C14.4151467,25.9006758 14.8110527,25.9509339 15.1242494,25.7756112 L16.182162,25.1834172 C16.5258168,25.4217796 16.8925331,25.6272486 17.2771523,25.7969338 L17.2771523,26.9825153 C17.277195,27.3336385 17.5208874,27.6408303 17.8709946,27.7310965 C19.2609423,28.0893871 20.7372604,28.089871 22.1289389,27.7311288 C22.4790469,27.6408707 22.7228477,27.3336769 22.7228477,26.9825476 L22.7228477,25.7969661 C23.1074536,25.6272559 23.4741675,25.4217882 23.817838,25.1834495 L24.8757506,25.7756435 C25.1889473,25.9509662 25.5848533,25.9007081 25.8404697,25.6527079 C26.8461607,24.6769007 27.5929734,23.4505772 27.9725372,22.0786084 C28.0663631,21.7395114 27.914258,21.3814143 27.6005288,21.2058981 L26.5406857,20.6129299 C26.5812914,20.2048651 26.5812914,19.7951873 26.5406857,19.3871225 Z M24.7873499,21.419995 L26.2457949,22.2357698 C25.9834501,22.9224728 25.6024785,23.5609148 25.1191853,24.1237712 L23.6604076,23.3073513 C22.5958716,24.1911261 22.4402717,24.2775778 21.1252782,24.7276427 L21.1252782,26.3598697 C20.3804798,26.4830958 19.6195202,26.4830958 18.8747218,26.3598697 L18.8747218,24.7276427 C17.5598947,24.2776423 17.403729,24.1908036 16.3395924,23.3073513 L14.8808147,24.1237712 C14.3975279,23.5609105 14.016557,22.9224696 13.7542051,22.2357698 L15.2126501,21.419995 C14.9586978,20.0877682 14.9585647,19.9129294 15.2126501,18.5800574 L13.7542051,17.7642826 C14.0154798,17.0794756 14.3969074,16.4401203 14.8808147,15.8762489 L16.3395924,16.6926689 C17.4041284,15.808894 17.5597616,15.7224101 18.8747218,15.2723775 L18.8747218,13.6401827 C19.6195202,13.5169566 20.3804798,13.5169566 21.1252782,13.6401827 L21.1252782,15.2724097 C22.4401053,15.7224101 22.596271,15.8092489 23.6604076,16.6927011 L25.1191853,15.8762812 C25.6024791,16.4391491 25.9834505,17.0776018 26.2457949,17.7643148 L24.7873499,18.5800897 C25.0413355,19.9123487 25.0414353,20.087123 24.7873499,21.419995 Z M20,16.9032497 C18.2381437,16.9032497 16.8047944,18.2924443 16.8047944,20.0000262 C16.8047944,21.7076081 18.2381437,23.0968027 20,23.0968027 C21.7618563,23.0968027 23.1952056,21.7076081 23.1952056,20.0000262 C23.1952056,18.2924443 21.7618563,16.9032497 20,16.9032497 Z M20,21.5484145 C19.1190552,21.5484145 18.4023972,20.8538333 18.4023972,20.0000262 C18.4023972,19.1462514 19.1190552,18.4516379 20,18.4516379 C20.8809448,18.4516379 21.5976028,19.1462514 21.5976028,20.0000262 C21.5976028,20.8538333 20.8809448,21.5484145 20,21.5484145 Z" id="configs"></path>
                    </g>
                </g>
            </g>
        </g>
    </g>
</svg>