<?xml version="1.0" encoding="UTF-8"?>
<svg width="18px" height="16px" viewBox="0 0 18 16" version="1.1" xmlns="http://www.w3.org/2000/svg" xmlns:xlink="http://www.w3.org/1999/xlink">
    <!-- Generator: Sketch 60.1 (88133) - https://sketch.com -->
    <title>share</title>
    <desc>Created with Sketch.</desc>
    <g id="Page-3" stroke="none" stroke-width="1" fill="none" fill-rule="evenodd">
        <g id="IndiqueAmigos" transform="translate(-310.000000, -600.000000)" fill="#FFFFFF" fill-rule="nonzero">
            <g id="Topbar" transform="translate(24.000000, 512.000000)">
                <path d="M303.560547,92.9393798 L299.060614,88.4403817 C298.122677,87.5024446 296.499997,88.1592881 296.499997,89.5010063 L296.499997,91.288443 C295.17343,91.347193 293.874056,91.4931304 292.726244,91.8506303 C291.627183,92.1928176 290.755308,92.7125049 290.135309,93.3950046 C289.381872,94.2250042 288.999997,95.2687538 288.999997,96.4981282 C288.999997,98.4261587 290.036809,100.012345 291.652183,101.021876 C292.825494,101.756501 294.31618,100.626533 293.871556,99.280002 C293.386712,97.8075339 293.335431,97.0636592 296.499997,96.8187531 L296.499997,98.5 C296.499997,99.843533 298.123989,100.497283 299.060614,99.5606269 L303.560547,95.0606289 C304.146484,94.4750041 304.146484,93.5250045 303.560547,92.9393798 Z M297.999996,98.5000063 L297.999996,95.2550038 C293.978399,95.3150663 291.20287,95.979691 292.447182,99.7500018 C291.524683,99.1734396 290.499996,98.1275025 290.499996,96.4981282 C290.499996,93.0814422 294.535618,92.7810361 297.999996,92.7528174 L297.999996,89.5000063 L302.499986,94.0000063 L297.999996,98.5000063 Z M298.773114,101.140407 C299.004046,101.074443 299.22465,100.976595 299.428551,100.849689 C299.677801,100.694939 299.999988,100.875501 299.999988,101.168876 L299.999988,102.500006 C299.999988,103.328438 299.328426,104.000006 298.499989,104.000006 L287.5,104.000006 C286.671562,104.000006 286,103.328438 286,102.500006 L286,91.5000061 C286,90.6715683 286.671562,90.0000061 287.5,90.0000061 L291.624995,90.0000061 C291.832089,90.0000061 292,90.1679122 292,90.3750059 L292,90.5151933 C292,90.6688495 291.906651,90.8079745 291.763464,90.8636932 C291.335277,91.0302869 290.938589,91.2242243 290.574402,91.4444742 C290.515282,91.4805544 290.447412,91.4997591 290.378152,91.5000061 L287.687499,91.5000061 C287.583945,91.5000061 287.5,91.583952 287.5,91.6875053 L287.5,102.312501 C287.5,102.416054 287.583945,102.500006 287.687499,102.500006 L298.312489,102.500006 C298.416043,102.500006 298.499989,102.416054 298.499989,102.312501 L298.499989,101.501064 C298.499989,101.333251 298.611833,101.18672 298.773114,101.140407 Z" id="share"></path>
            </g>
        </g>
    </g>
</svg>