<?xml version="1.0" encoding="UTF-8"?>
<svg width="18px" height="16px" viewBox="0 0 18 16" version="1.1" xmlns="http://www.w3.org/2000/svg" xmlns:xlink="http://www.w3.org/1999/xlink">
    <!-- Generator: Sketch 60.1 (88133) - https://sketch.com -->
    <title>share2</title>
    <desc>Created with Sketch.</desc>
    <g id="Page-3" stroke="none" stroke-width="1" fill="none" fill-rule="evenodd">
        <g id="Parceiro-VIP" transform="translate(-306.000000, -693.000000)" fill="#B294FF" fill-rule="nonzero">
            <g id="Group-30" transform="translate(0.000000, 584.000000)">
                <g id="Group-24-Copy-3" transform="translate(270.000000, 109.000000)">
                    <path d="M53.7650625,5.54525462 L49.2649687,9.79478399 C48.790625,10.2427525 48,9.91062769 48,9.24953423 L48,7.00069147 C43.4820312,7.03100396 41.5760625,8.09797224 42.8507812,12.3554704 C42.990875,12.8233764 42.4493437,13.1856887 42.0693437,12.8970326 C40.851625,11.972033 39.75,10.2027526 39.75,8.4168471 C39.75,3.91881784 43.4249687,3.02622448 48,3.00084949 L48,0.750381736 C48,0.088694529 48.7911562,-0.242367825 49.2649687,0.205131978 L53.7650625,4.4547551 C54.0781875,4.75047372 54.0784375,5.249286 53.7650625,5.54525462 Z M48,11.8477518 L48,14.0000062 L38,14.0000062 L38,4.00000618 L39.591125,4.00000618 C39.6931647,3.99994036 39.7907642,3.95826196 39.861375,3.8845991 C40.3286562,3.39809932 40.8687812,3.01303699 41.4555625,2.70722462 C41.803375,2.52594345 41.6745,2.00000618 41.2822812,2.00000618 L37.5,2.00000618 C36.6715625,2.00000618 36,2.67156839 36,3.50000618 L36,14.5000062 C36,15.3284378 36.6715625,16.0000062 37.5,16.0000062 L48.5,16.0000062 C49.3284375,16.0000062 50,15.3284378 50,14.5000062 L50,11.7248144 C50,11.4658145 49.7438437,11.2852521 49.4996562,11.371627 C49.1572999,11.4927075 48.7906788,11.5289203 48.43125,11.4771582 C48.2040625,11.4444708 48,11.6182207 48,11.8477518 L48,11.8477518 Z" id="share2"></path>
                </g>
            </g>
        </g>
    </g>
</svg>