<?xml version="1.0" encoding="UTF-8"?>
<svg width="32px" height="30px" viewBox="0 0 32 30" version="1.1" xmlns="http://www.w3.org/2000/svg" xmlns:xlink="http://www.w3.org/1999/xlink">
    <!-- Generator: Sketch 60.1 (88133) - https://sketch.com -->
    <title>Shape Copy 4</title>
    <desc>Created with Sketch.</desc>
    <g id="Page-3" stroke="none" stroke-width="1" fill="none" fill-rule="evenodd">
        <g id="ResgatarDesconto-Sucesso" transform="translate(-272.000000, -499.000000)" fill="#B3B3B3" fill-rule="nonzero">
            <g id="Group-12" transform="translate(46.000000, 454.000000)">
                <g id="Group-17" transform="translate(10.000000, 45.000000)">
                    <path d="M245.886704,10.0483283 L237.28457,8.80043575 L233.43981,1.04358252 C232.750933,-0.339058989 230.754955,-0.356634941 230.06019,1.04358252 L226.21543,8.80043575 L217.613296,10.0483283 C216.070682,10.270957 215.452459,12.1633011 216.571148,13.2471515 L222.794595,19.2815614 L221.322635,27.8058979 C221.057683,29.3467229 222.688614,30.5008771 224.054593,29.7802631 L231.75,25.7553702 L239.445407,29.7802631 C240.811386,30.4950184 242.442317,29.3467229 242.177365,27.8058979 L240.705405,19.2815614 L246.928852,13.2471515 C248.047541,12.1633011 247.429318,10.270957 245.886704,10.0483283 L245.886704,10.0483283 Z M237.673167,18.2973082 L239.068585,26.4056804 L231.75,22.5799817 L224.431415,26.4056804 L225.826833,18.2973082 L219.903666,12.5558307 L228.087764,11.3723833 L231.75,3.99048371 L235.412236,11.3723833 L243.596334,12.5558307 L237.673167,18.2973082 Z" id="Shape-Copy-4"></path>
                </g>
            </g>
        </g>
    </g>
</svg>