<?xml version="1.0" encoding="UTF-8"?>
<svg width="32px" height="30px" viewBox="0 0 32 30" version="1.1" xmlns="http://www.w3.org/2000/svg" xmlns:xlink="http://www.w3.org/1999/xlink">
    <!-- Generator: Sketch 60.1 (88133) - https://sketch.com -->
    <title>Shape Copy 3</title>
    <desc>Created with Sketch.</desc>
    <g id="Page-3" stroke="none" stroke-width="1" fill="none" fill-rule="evenodd">
        <g id="ResgatarDesconto-Sucesso" transform="translate(-218.000000, -499.000000)" fill="#FFCE44" fill-rule="nonzero">
            <g id="Group-12" transform="translate(46.000000, 454.000000)">
                <g id="Group-17" transform="translate(10.000000, 45.000000)">
                    <path d="M191.886704,10.0483283 L183.28457,8.80043575 L179.43981,1.04358252 C178.750933,-0.339058989 176.754955,-0.356634941 176.06019,1.04358252 L172.21543,8.80043575 L163.613296,10.0483283 C162.070682,10.270957 161.452459,12.1633011 162.571148,13.2471515 L168.794595,19.2815614 L167.322635,27.8058979 C167.057683,29.3467229 168.688614,30.5008771 170.054593,29.7802631 L177.75,25.7553702 L185.445407,29.7802631 C186.811386,30.4950184 188.442317,29.3467229 188.177365,27.8058979 L186.705405,19.2815614 L192.928852,13.2471515 C194.047541,12.1633011 193.429318,10.270957 191.886704,10.0483283 L191.886704,10.0483283 Z" id="Shape-Copy-3"></path>
                </g>
            </g>
        </g>
    </g>
</svg>