<?xml version="1.0" encoding="UTF-8"?>
<svg width="14px" height="14px" viewBox="0 0 14 14" version="1.1" xmlns="http://www.w3.org/2000/svg" xmlns:xlink="http://www.w3.org/1999/xlink">
    <!-- Generator: Sketch 61 (89581) - https://sketch.com -->
    <title>success-icon</title>
    <desc>Created with Sketch.</desc>
    <g id="Page-1" stroke="none" stroke-width="1" fill="none" fill-rule="evenodd">
        <g id="Validation-Success" transform="translate(-306.000000, -344.000000)" fill="#13735E" fill-rule="nonzero">
            <g id="Group" transform="translate(24.000000, 304.000000)">
                <g id="Group-12">
                    <path d="M289,40 C285.133996,40 282,43.133996 282,47 C282,50.866004 285.133996,54 289,54 C292.866004,54 296,50.866004 296,47 C296,43.133996 292.866004,40 289,40 Z M289,41.3548387 C292.119855,41.3548387 294.645161,43.8796653 294.645161,47 C294.645161,50.1198548 292.120335,52.6451613 289,52.6451613 C285.880145,52.6451613 283.354839,50.1203347 283.354839,47 C283.354839,43.8801452 285.879665,41.3548387 289,41.3548387 M292.957371,45.0317298 L292.321274,44.390496 C292.189544,44.2576935 291.975085,44.2568185 291.842282,44.3885766 L287.852508,48.3462863 L286.164831,46.6449194 C286.033101,46.5121169 285.818641,46.5112419 285.685839,46.6429718 L285.044577,47.2790685 C284.911774,47.4107984 284.910899,47.6252581 285.042657,47.7580887 L287.605024,50.3412016 C287.736754,50.474004 287.951214,50.474879 288.084016,50.343121 L292.95548,45.51075 C293.088254,45.3789919 293.089101,45.1645323 292.957371,45.0317298 L292.957371,45.0317298 Z" id="success-icon"></path>
                </g>
            </g>
        </g>
    </g>
</svg>