<?xml version="1.0" encoding="UTF-8"?>
<svg width="18px" height="14px" viewBox="0 0 18 14" version="1.1" xmlns="http://www.w3.org/2000/svg" xmlns:xlink="http://www.w3.org/1999/xlink">
    <!-- Generator: Sketch 60.1 (88133) - https://sketch.com -->
    <title>tags</title>
    <desc>Created with Sketch.</desc>
    <g id="Page-3" stroke="none" stroke-width="1" fill="none" fill-rule="evenodd">
        <g id="Menu" transform="translate(-68.000000, -237.000000)" fill="#FFFFFF" fill-rule="nonzero">
            <g id="Search" transform="translate(56.000000, 172.000000)">
                <g id="Group-7-Copy" transform="translate(0.000000, 52.000000)">
                    <g id="Group-3">
                        <path d="M29.6045975,21.0342207 L23.8637765,26.6155709 C23.3365451,27.1281567 22.4817697,27.1281294 21.9545945,26.6155709 L21.9444695,26.6057271 L28.6500065,20.1061467 L21.3205443,13 L22.6908229,13 C23.0488646,13 23.3922412,13.1382838 23.6454139,13.3844257 L29.6045975,19.1780727 C30.1318008,19.6906312 30.1318008,20.5216622 29.6045975,21.0342207 L29.6045975,21.0342207 Z M26.0045961,21.0342207 L20.2637751,26.6155709 C20.0001875,26.8718638 19.6546717,27 19.3091841,27 C18.9636965,27 18.6181807,26.8718638 18.3545931,26.6155709 L12.3954095,20.8219239 C12.1422349,20.5757838 12,20.2419457 12,19.8938499 L12,14.3124997 C12,13.587617 12.6044065,13 13.3500005,13 L19.0908215,13 C19.4488644,13 19.7922433,13.1382787 20.0454125,13.3844257 L26.0045961,19.1780727 C26.5317994,19.6906312 26.5317994,20.5216622 26.0045961,21.0342207 Z M25.0500051,20.1061467 L19.0908215,14.3124997 L13.3500005,14.3124997 L13.3500005,19.8938499 L19.3092966,25.6873875 L25.0500051,20.1061467 Z M16.0500016,15.6249994 C15.3044075,15.6249994 14.7000011,16.2126164 14.7000011,16.937499 C14.7000011,17.6623817 15.3044075,18.2499987 16.0500016,18.2499987 C16.7955956,18.2499987 17.4000021,17.6623817 17.4000021,16.937499 C17.4000021,16.2126164 16.7955956,15.6249994 16.0500016,15.6249994 Z" id="tags"></path>
                    </g>
                </g>
            </g>
        </g>
    </g>
</svg>