<?xml version="1.0" encoding="UTF-8"?>
<svg width="18px" height="15px" viewBox="0 0 18 15" version="1.1" xmlns="http://www.w3.org/2000/svg" xmlns:xlink="http://www.w3.org/1999/xlink">
    <!-- Generator: Sketch 60.1 (88133) - https://sketch.com -->
    <title>Shape</title>
    <desc>Created with Sketch.</desc>
    <g id="Page-3" stroke="none" stroke-width="1" fill="none" fill-rule="evenodd">
        <g id="Evento" transform="translate(-24.000000, -812.000000)" fill="#30287B" fill-rule="nonzero">
            <g id="Group-5-Copy" transform="translate(24.000000, 808.000000)">
                <path d="M14.0045961,10.6193636 L8.04541252,4.41188467 C7.79223975,4.14816125 7.4488632,4 7.09082152,4 L1.35000053,4 C0.604406486,4 0,4.62958969 0,5.40624966 L0,11.3862677 C0,11.7592276 0.14223489,12.1169113 0.395409529,12.3806327 L6.35459311,18.5881117 C6.88176831,19.1372815 7.73654365,19.1373108 8.2637751,18.5881117 L14.0045961,12.6080936 C14.5317994,12.0589238 14.5317994,11.1685334 14.0045961,10.6193636 Z M3.15000123,8.68749886 C2.40440719,8.68749886 1.8000007,8.05790917 1.8000007,7.2812492 C1.8000007,6.50458923 2.40440719,5.87499954 3.15000123,5.87499954 C3.89559527,5.87499954 4.50000176,6.50458923 4.50000176,7.2812492 C4.50000176,8.05790917 3.89559527,8.68749886 3.15000123,8.68749886 Z M17.6045975,12.6080936 L11.8637765,18.5881117 C11.3365732,19.1372815 10.4817978,19.1372815 9.95459451,18.5881117 L9.94446951,18.5775648 L14.8398808,13.4781813 C15.3179779,12.9801638 15.5812561,12.3180253 15.5812561,11.6137286 C15.5812561,10.9094319 15.3179497,10.2472934 14.8398808,9.74927594 L9.32054427,4 L10.6908229,4 C11.0488646,4 11.3922412,4.14816125 11.6454139,4.41188467 L17.6045975,10.6193636 C18.1318008,11.1685334 18.1318008,12.0589238 17.6045975,12.6080936 L17.6045975,12.6080936 Z" id="Shape"></path>
            </g>
        </g>
    </g>
</svg>