<?xml version="1.0" encoding="UTF-8"?>
<svg width="16px" height="14px" viewBox="0 0 16 14" version="1.1" xmlns="http://www.w3.org/2000/svg" xmlns:xlink="http://www.w3.org/1999/xlink">
    <!-- Generator: Sketch 61 (89581) - https://sketch.com -->
    <title>warning-icon</title>
    <desc>Created with Sketch.</desc>
    <g id="Page-1" stroke="none" stroke-width="1" fill="none" fill-rule="evenodd">
        <g id="Validation-Warning" transform="translate(-305.000000, -344.000000)" fill="#E6AE10" fill-rule="nonzero">
            <g id="Group" transform="translate(24.000000, 304.000000)">
                <g id="Group-12">
                    <path d="M296.81992,52.0316055 C297.332642,52.9064414 296.689059,54 295.665004,54 L282.334841,54 C281.308813,54 280.668203,52.9047461 281.179925,52.0316055 L287.845089,40.65584 C288.358061,39.7805939 289.642867,39.7821798 290.154922,40.65584 L296.81992,52.0316055 Z M289.000006,49.6796875 C288.294311,49.6796875 287.722228,50.2428321 287.722228,50.9375 C287.722228,51.632168 288.294311,52.1953125 289.000006,52.1953125 C289.7057,52.1953125 290.277783,51.632168 290.277783,50.9375 C290.277783,50.2428321 289.7057,49.6796875 289.000006,49.6796875 Z M287.786867,45.1585079 L287.992923,48.8772579 C288.002562,49.0512735 288.148728,49.1875 288.325756,49.1875 L289.674255,49.1875 C289.851283,49.1875 289.99745,49.0512735 290.007089,48.8772579 L290.213144,45.1585079 C290.223561,44.970547 290.071533,44.8125001 289.880311,44.8125001 L288.119673,44.8125001 C287.92845,44.8125001 287.77645,44.970547 287.786867,45.1585079 L287.786867,45.1585079 Z" id="warning-icon"></path>
                </g>
            </g>
        </g>
    </g>
</svg>