<?xml version="1.0" encoding="UTF-8"?>
<svg width="18px" height="18px" viewBox="0 0 18 18" version="1.1" xmlns="http://www.w3.org/2000/svg" xmlns:xlink="http://www.w3.org/1999/xlink">
    <!-- Generator: Sketch 60.1 (88133) - https://sketch.com -->
    <title>whatsapp</title>
    <desc>Created with Sketch.</desc>
    <g id="Page-3" stroke="none" stroke-width="1" fill="none" fill-rule="evenodd">
        <g id="Parceiro-VIP" transform="translate(-216.000000, -692.000000)" fill="#B294FF" fill-rule="nonzero">
            <g id="Group-30" transform="translate(0.000000, 584.000000)">
                <g id="Group-24-Copy-2" transform="translate(180.000000, 108.000000)">
                    <path d="M51.3040179,2.615625 C49.6205357,0.928125 47.3785714,0 44.9959821,0 C40.078125,0 36.0763393,4.00178571 36.0763393,8.91964286 C36.0763393,10.490625 36.4861607,12.0254464 37.265625,13.3794643 L36,18 L40.7290179,16.7584821 C42.0308036,17.4696429 43.4973214,17.8433036 44.9919643,17.8433036 L44.9959821,17.8433036 C49.9098214,17.8433036 54,13.8415179 54,8.92366071 C54,6.54107143 52.9875,4.303125 51.3040179,2.615625 Z M44.9959821,16.340625 C43.6620536,16.340625 42.35625,15.9830357 41.2191964,15.3080357 L40.95,15.1473214 L38.1455357,15.8825893 L38.8928571,13.1464286 L38.7160714,12.8651786 C37.9727679,11.6839286 37.5830357,10.321875 37.5830357,8.91964286 C37.5830357,4.83348214 40.9098214,1.50669643 45,1.50669643 C46.9808036,1.50669643 48.8410714,2.278125 50.2392857,3.68035714 C51.6375,5.08258929 52.4973214,6.94285714 52.4933176,8.92366071 C52.4933176,13.0138393 49.0821429,16.340625 44.9959821,16.340625 Z M49.0620536,10.7879464 C48.8410714,10.6754464 47.7441964,10.1370536 47.5392857,10.0647321 C47.334375,9.98839286 47.1857143,9.95223214 47.0370536,10.1772321 C46.8883929,10.4022321 46.4625,10.9004464 46.3299107,11.053125 C46.2013393,11.2017857 46.06875,11.221875 45.8477679,11.109375 C44.5379464,10.4544643 43.678125,9.94017857 42.8142857,8.45758929 C42.5852679,8.06383929 43.0433036,8.09196429 43.4691964,7.24017857 C43.5415179,7.09151786 43.5053571,6.96294643 43.4491071,6.85044643 C43.3928571,6.73794643 42.946875,5.64107143 42.7620536,5.19508929 C42.58125,4.76116071 42.3964286,4.82142857 42.2598214,4.81339286 C42.13125,4.80535714 41.9825893,4.80535714 41.8339286,4.80535714 C41.6852679,4.80535714 41.4441964,4.86160714 41.2392857,5.08258929 C41.034375,5.30758929 40.4598214,5.84598214 40.4598214,6.94285714 C40.4598214,8.03973214 41.259375,9.10044643 41.3678571,9.24910714 C41.4803571,9.39776786 42.9388393,11.6477679 45.1767857,12.6160714 C46.5910714,13.2267857 47.1455357,13.2790179 47.8526786,13.1745536 C48.2825893,13.1102679 49.1705357,12.6361607 49.3553571,12.1138393 C49.5401786,11.5915179 49.5401786,11.1455357 49.4839286,11.053125 C49.4316964,10.9526786 49.2830357,10.8964286 49.0620536,10.7879464 Z" id="whatsapppp"></path>
                </g>
            </g>
        </g>
    </g>
</svg>